<?xml version="1.0" encoding="utf-8"?>
<!-- Generator: Adobe Illustrator 24.0.1, SVG Export Plug-In . SVG Version: 6.00 Build 0)  -->
<svg version="1.1" xmlns="http://www.w3.org/2000/svg" xmlns:xlink="http://www.w3.org/1999/xlink" x="0px" y="0px"
	 viewBox="0 0 500 500" style="enable-background:new 0 0 500 500;" xml:space="preserve">
<style type="text/css">
	.st0{display:none;}
	.st1{display:inline;fill:#FFFFFF;}
	.st2{opacity:0.7;fill:#C7C7C7;}
	.st3{fill:#96A4A6;}
	.st4{fill:#CAE2EC;}
	.st5{fill:#7C8B86;}
	.st6{fill:#7C8F89;}
	.st7{fill:#B2BEBA;}
	.st8{fill:#AFC6CE;}
	.st9{fill:#94A9BC;}
	.st10{fill:#F04D4E;}
	.st11{fill:#F47878;}
	.st12{fill:#252F33;}
	.st13{clip-path:url(#XMLID_106_);fill:#FADC64;}
	.st14{clip-path:url(#XMLID_106_);}
	.st15{fill:#D3A72E;}
	.st16{clip-path:url(#XMLID_106_);fill:#CFCFCF;}
	.st17{clip-path:url(#XMLID_107_);fill:#414F5A;}
	.st18{clip-path:url(#XMLID_107_);fill:none;stroke:#54616A;stroke-width:8;stroke-miterlimit:10;}
	.st19{clip-path:url(#XMLID_107_);fill:none;stroke:#54616A;stroke-width:17;stroke-miterlimit:10;}
	.st20{fill:#E6C041;}
	.st21{fill:none;}
	.st22{fill:#253036;}
	.st23{fill:#1C1815;}
	.st24{fill:#EFFAF1;}
	.st25{fill:#BDBEC2;}
	.st26{fill:#2D3B43;}
	.st27{fill:#CF4A4B;}
	.st28{fill:#5D4A3C;}
	.st29{clip-path:url(#XMLID_108_);fill:#333F47;}
	.st30{clip-path:url(#XMLID_108_);}
	.st31{clip-path:url(#XMLID_109_);fill:#414F5A;}
	.st32{clip-path:url(#XMLID_109_);fill:none;stroke:#54616A;stroke-width:4;stroke-miterlimit:10;}
	.st33{clip-path:url(#XMLID_109_);}
	.st34{fill:#54616A;}
	.st35{fill:#727E81;}
	.st36{fill:#FADC64;}
	.st37{fill:#7F7F7F;}
	.st38{opacity:0.24;}
	.st39{fill:#FAFCFB;}
	.st40{opacity:0.34;}
	.st41{opacity:0.3;}
	.st42{opacity:0.55;fill:#FFFFFF;}
	.st43{display:inline;fill:#7F7F7F;}
	.st44{font-family:'Montserrat-Regular';}
	.st45{font-size:9px;}
	.st46{display:inline;}
	.st47{fill:#FA5A33;}
	.st48{fill:#99343E;}
	.st49{fill:#EB3800;}
	.st50{font-family:'OpenSans-Bold';}
	.st51{font-size:17px;}
</style>
<g id="BACKGROUND" class="st0">
	<rect id="XMLID_24_" class="st1" width="500" height="500"/>
</g>
<g id="OBJECTS">
	<g id="XMLID_602_">
		<path id="XMLID_519_" class="st2" d="M17.2,285.97l64.24,16.25c5.83,1.47,12,0.66,17.24-2.28l129.74-72.62l-91.76-14.85
			L16.98,284.47C16.35,284.84,16.49,285.79,17.2,285.97z"/>
		<g id="XMLID_557_">
			<polygon id="XMLID_508_" class="st3" points="189.03,222.54 156.88,213.9 156.88,149.82 189.03,145.43 			"/>
			<polygon id="XMLID_533_" class="st4" points="151.8,200.7 29.39,266 26.95,189.45 151.8,129.38 			"/>
			<g id="XMLID_31_">
				<g>
					<g id="XMLID_139_">
						<g id="XMLID_140_">
							<rect x="24.51" y="190.9" class="st5" width="4.89" height="90.38"/>
						</g>
					</g>
				</g>
			</g>
			<g id="XMLID_479_">
				<g>
					<g id="XMLID_120_">
						<rect x="95.86" y="166.86" class="st3" width="4.89" height="87.32"/>
					</g>
				</g>
			</g>
			<g id="XMLID_488_">
				<g>
					<g id="XMLID_117_">
						<rect x="148.18" y="151.86" class="st3" width="4.89" height="75.71"/>
					</g>
				</g>
			</g>
			<polygon id="XMLID_523_" class="st6" points="50.25,287.83 54.93,290.84 164.96,227.56 164.96,211.54 54.93,272.02 			"/>
			<polygon id="XMLID_509_" class="st7" points="38.57,275.88 54.93,272.02 164.96,211.54 148.18,205.99 26.95,270.25 			"/>
			<g id="XMLID_526_">
				<g>
					<g id="XMLID_141_">
						<g id="XMLID_143_">
							<rect x="67.81" y="205.18" class="st3" width="4.89" height="90.38"/>
						</g>
					</g>
				</g>
			</g>
			<g id="XMLID_542_">
				<g>
					<g id="XMLID_146_">
						<rect id="XMLID_148_" x="70.25" y="205.18" class="st8" width="4.89" height="90.38"/>
					</g>
				</g>
			</g>
			<g id="XMLID_597_">
				<g>
					<g id="XMLID_256_">
						
							<rect id="XMLID_257_" x="154.63" y="174.36" transform="matrix(0.2201 -0.9755 0.9755 0.2201 -52.6896 292.1383)" class="st3" width="3.46" height="9.31"/>
					</g>
					<g id="XMLID_254_">
						
							<rect id="XMLID_255_" x="152.41" y="188.45" transform="matrix(0.2202 -0.9755 0.9755 0.2202 -68.1637 300.9464)" class="st3" width="3.46" height="9.31"/>
					</g>
					<g id="XMLID_252_">
						
							<rect id="XMLID_253_" x="190.58" y="180.38" transform="matrix(0.2202 -0.9755 0.9755 0.2202 -30.5297 331.8863)" class="st3" width="3.46" height="9.31"/>
					</g>
					<g id="XMLID_250_">
						
							<rect id="XMLID_251_" x="188.36" y="194.46" transform="matrix(0.2202 -0.9755 0.9755 0.2202 -45.9953 340.7086)" class="st3" width="3.46" height="9.31"/>
					</g>
				</g>
			</g>
			<g id="XMLID_538_">
				<g>
					<g id="XMLID_151_">
						<g id="XMLID_152_">
							<rect x="193.15" y="140.48" class="st3" width="4.89" height="90.38"/>
						</g>
					</g>
				</g>
			</g>
			<g id="XMLID_530_">
				<g id="XMLID_536_">
					<rect id="XMLID_537_" x="195.59" y="140.48" class="st8" width="4.89" height="90.38"/>
				</g>
			</g>
			<polygon id="XMLID_482_" class="st9" points="16.69,189.95 16.69,186.16 147.21,128.5 205.67,139.77 205.67,143.57 80.22,210.35 
							"/>
			<polygon id="XMLID_520_" class="st10" points="16.69,186.16 147.21,124.7 205.67,139.77 80.22,206.55 			"/>
			<g id="XMLID_486_">
				<g>
					<g id="XMLID_229_">
						<path class="st11" d="M29.12,180.3c0,0,0.99,0.25,2.72,0.73c1.72,0.49,4.19,1.15,7.13,2.02c2.94,0.86,6.37,1.89,10.02,3.03
							c1.83,0.58,3.71,1.17,5.63,1.78c1.91,0.62,3.86,1.25,5.8,1.88c1.94,0.65,3.88,1.29,5.78,1.93c1.91,0.63,3.77,1.29,5.59,1.91
							c3.62,1.25,6.99,2.45,9.87,3.5c2.88,1.04,5.26,1.98,6.94,2.6c1.67,0.64,2.62,1.03,2.62,1.03s-0.99-0.25-2.72-0.73
							c-1.72-0.49-4.19-1.15-7.13-2.02c-2.94-0.86-6.37-1.89-10.02-3.03c-1.83-0.58-3.72-1.15-5.63-1.78
							c-1.91-0.62-3.86-1.25-5.8-1.88c-1.94-0.65-3.87-1.29-5.78-1.93c-1.9-0.65-3.77-1.29-5.59-1.91c-3.62-1.25-6.99-2.45-9.87-3.5
							c-2.88-1.04-5.26-1.98-6.94-2.6C30.07,180.69,29.12,180.3,29.12,180.3z"/>
					</g>
					<g id="XMLID_228_">
						<path class="st11" d="M49.08,170.5c0,0,0.99,0.25,2.72,0.73c1.72,0.49,4.19,1.15,7.13,2.02c2.94,0.86,6.37,1.89,10.02,3.03
							c1.83,0.58,3.71,1.17,5.63,1.78c1.91,0.62,3.86,1.25,5.8,1.88c1.94,0.65,3.88,1.29,5.78,1.93c1.91,0.63,3.77,1.29,5.59,1.91
							c3.62,1.25,6.99,2.45,9.87,3.5c2.88,1.04,5.26,1.98,6.94,2.6c1.67,0.64,2.62,1.03,2.62,1.03s-0.99-0.25-2.72-0.73
							c-1.72-0.49-4.19-1.15-7.13-2.02c-2.94-0.86-6.37-1.89-10.02-3.03c-1.83-0.58-3.72-1.15-5.63-1.78
							c-1.91-0.62-3.86-1.25-5.8-1.88c-1.94-0.65-3.87-1.29-5.78-1.93c-1.9-0.65-3.77-1.29-5.59-1.91c-3.62-1.25-6.99-2.45-9.87-3.5
							c-2.88-1.04-5.26-1.98-6.94-2.6C50.03,170.89,49.08,170.5,49.08,170.5z"/>
					</g>
					<g id="XMLID_227_">
						<path class="st11" d="M70.25,161.09c0,0,0.94,0.23,2.58,0.68c1.63,0.46,3.98,1.08,6.78,1.9c2.8,0.81,6.05,1.79,9.52,2.87
							c1.73,0.55,3.53,1.11,5.35,1.68c1.82,0.59,3.66,1.18,5.51,1.78c1.84,0.61,3.68,1.23,5.49,1.83c1.81,0.6,3.58,1.23,5.31,1.82
							c3.44,1.19,6.64,2.33,9.37,3.34c2.74,0.99,4.99,1.89,6.58,2.49c1.59,0.61,2.48,0.98,2.48,0.98s-0.94-0.23-2.58-0.68
							c-1.63-0.46-3.98-1.08-6.78-1.9c-2.8-0.81-6.05-1.78-9.52-2.87c-1.73-0.55-3.53-1.09-5.35-1.68
							c-1.82-0.59-3.66-1.18-5.51-1.78c-1.84-0.61-3.68-1.23-5.49-1.83c-1.81-0.62-3.58-1.23-5.31-1.82
							c-3.44-1.19-6.64-2.33-9.37-3.34c-2.74-1-4.99-1.89-6.58-2.49C71.15,161.46,70.25,161.09,70.25,161.09z"/>
					</g>
					<g id="XMLID_226_">
						<path class="st11" d="M90.52,151.39c0,0,0.93,0.23,2.55,0.67c1.61,0.46,3.93,1.06,6.68,1.87c2.76,0.8,5.97,1.76,9.39,2.82
							c1.71,0.54,3.49,1.07,5.27,1.66c1.79,0.58,3.61,1.17,5.43,1.75c1.81,0.61,3.63,1.21,5.41,1.81c1.79,0.59,3.53,1.21,5.23,1.79
							c3.39,1.17,6.54,2.3,9.24,3.3c2.7,0.98,4.92,1.87,6.49,2.46c1.56,0.6,2.45,0.97,2.45,0.97s-0.93-0.23-2.55-0.67
							c-1.61-0.46-3.93-1.06-6.68-1.87c-2.76-0.8-5.97-1.76-9.39-2.82c-1.71-0.54-3.49-1.07-5.27-1.66
							c-1.79-0.58-3.61-1.17-5.43-1.76c-1.81-0.61-3.63-1.21-5.41-1.81c-1.79-0.59-3.53-1.21-5.23-1.79
							c-3.39-1.17-6.54-2.3-9.24-3.3c-2.7-0.98-4.92-1.87-6.49-2.46C91.41,151.76,90.52,151.39,90.52,151.39z"/>
					</g>
					<g id="XMLID_225_">
						<path class="st11" d="M110.99,141.76c0,0,0.9,0.22,2.47,0.64c1.56,0.44,3.8,1.02,6.47,1.8c2.67,0.77,5.77,1.69,9.09,2.72
							c1.65,0.52,3.37,1.04,5.1,1.6c1.73,0.56,3.49,1.13,5.25,1.7c1.75,0.59,3.51,1.17,5.24,1.75c1.73,0.57,3.42,1.17,5.06,1.73
							c3.28,1.14,6.33,2.23,8.93,3.2c2.61,0.95,4.76,1.82,6.27,2.39c1.51,0.59,2.37,0.94,2.37,0.94s-0.9-0.22-2.47-0.64
							c-1.56-0.44-3.8-1.02-6.47-1.8c-2.67-0.77-5.77-1.69-9.09-2.72c-1.65-0.52-3.37-1.04-5.1-1.6c-1.73-0.56-3.49-1.13-5.25-1.7
							c-1.75-0.59-3.51-1.17-5.24-1.75c-1.73-0.57-3.42-1.17-5.06-1.74c-3.28-1.14-6.33-2.23-8.93-3.2
							c-2.61-0.95-4.76-1.81-6.28-2.39C111.84,142.11,110.99,141.76,110.99,141.76z"/>
					</g>
					<g id="XMLID_223_">
						<path class="st11" d="M132.49,131.46c0,0,0.88,0.21,2.41,0.63c1.52,0.43,3.71,0.99,6.32,1.75c2.61,0.75,5.64,1.65,8.87,2.65
							c1.62,0.51,3.29,1.01,4.98,1.56c1.69,0.55,3.41,1.1,5.13,1.66c1.71,0.57,3.43,1.15,5.11,1.71c1.69,0.56,3.34,1.15,4.94,1.7
							c3.2,1.11,6.18,2.18,8.72,3.13c2.55,0.93,4.64,1.78,6.12,2.34c1.47,0.58,2.31,0.93,2.31,0.93s-0.88-0.21-2.41-0.62
							c-1.52-0.43-3.71-0.99-6.32-1.75c-2.61-0.75-5.64-1.65-8.87-2.65c-1.61-0.51-3.29-1.01-4.98-1.56
							c-1.69-0.55-3.41-1.1-5.13-1.66c-1.71-0.57-3.43-1.15-5.11-1.71c-1.69-0.56-3.34-1.15-4.94-1.7c-3.2-1.11-6.17-2.18-8.72-3.13
							c-2.55-0.93-4.64-1.78-6.12-2.34C133.33,131.81,132.49,131.46,132.49,131.46z"/>
					</g>
				</g>
			</g>
			<polygon id="XMLID_506_" class="st5" points="54.93,290.84 24.51,281.71 24.51,264.6 54.93,272.02 			"/>
		</g>
		<g id="XMLID_600_">
			<path id="XMLID_522_" class="st2" d="M124.79,360.35l67.76,19.1c11.18,3.15,23.16,1.72,33.28-3.99L478.49,233.1
				c7.74-4.36,5.99-15.98-2.69-17.87l-96.83-21.05L122.56,342.68C115.17,346.97,116.56,358.03,124.79,360.35z"/>
			<g id="XMLID_577_">
				<polygon id="XMLID_115_" class="st12" points="403.93,268.31 373.61,257.95 380.04,231.06 410.25,232.01 				"/>
				<g id="XMLID_451_">
					<defs>
						<path id="XMLID_441_" d="M180.1,214.91l-38.81,18.96c-7.05,4-11.41,11.48-11.41,19.58v79.09l83.8,27.8l71.74-100.37
							l-60.46-24.78L180.1,214.91z"/>
					</defs>
					<clipPath id="XMLID_106_">
						<use xlink:href="#XMLID_441_"  style="overflow:visible;"/>
					</clipPath>
					<path id="XMLID_6_" class="st13" d="M180.1,214.91l-38.81,18.96c-7.05,4-11.41,11.48-11.41,19.58v80.16l83.8,26.73
						l71.74-100.37l-60.46-24.78L180.1,214.91z"/>
					<g id="XMLID_442_" class="st14">
						<g>
							<g id="XMLID_118_">
								<path class="st15" d="M144.65,332.49l-1.13-0.22c0.71-3.69,0.12-6.9-1.74-9.54c-3.85-5.47-11.91-6.78-11.99-6.79l0.18-1.14
									c0.35,0.06,8.63,1.41,12.76,7.27C144.77,324.98,145.42,328.48,144.65,332.49z"/>
							</g>
						</g>
					</g>
					<g id="XMLID_487_" class="st14">
						<g>
							<g id="XMLID_122_">
								<path class="st15" d="M196.16,351.39l-1.15-0.14c0.52-4.42,2.31-7.64,5.3-9.58c5.87-3.81,14.46-1.43,16.13-0.91l-0.29,1.12
									l-0.05-0.02c-1.58-0.49-9.72-2.75-15.16,0.78C198.25,344.38,196.64,347.33,196.16,351.39z"/>
							</g>
						</g>
					</g>
					<path id="XMLID_496_" class="st16" d="M136.05,214.09c0,1.83-1.48,3.31-3.31,3.31c-1.83,0-3.31-1.48-3.31-3.31
						c0-1.83,1.48-3.31,3.31-3.31C134.56,210.78,136.05,212.26,136.05,214.09z"/>
					<path id="XMLID_498_" class="st16" d="M136.05,214.09c0,1.83-1.48,3.31-3.31,3.31c-1.83,0-3.31-1.48-3.31-3.31
						c0-1.83,1.48-3.31,3.31-3.31C134.56,210.78,136.05,212.26,136.05,214.09z"/>
					<g id="XMLID_470_" class="st14">
						<g>
							<g id="XMLID_181_">
								<g>
									<path class="st15" d="M186.24,342.02c-0.31,0-0.63-0.04-0.93-0.14l-32.95-9.64c-1.39-0.41-2.37-1.71-2.37-3.16v-21.72
										l39.53,10.47v20.89c0,1.05-0.48,2.01-1.32,2.64C187.62,341.79,186.94,342.02,186.24,342.02z M185.63,340.78
										c0.65,0.19,1.34,0.07,1.88-0.34c0.54-0.41,0.86-1.03,0.86-1.71v-20l-37.23-9.86v20.22c0,0.94,0.63,1.79,1.54,2.05
										L185.63,340.78z"/>
								</g>
							</g>
						</g>
					</g>
					<g id="XMLID_569_" class="st14">
						<defs>
							<path id="XMLID_516_" d="M169.59,322.9L169.59,322.9c-3.03-0.78-6-1.23-8.8-1.9c-33.6-8.03-29.43-5.64-29.43-48.47
								l0.05-17.88l76.67,19.86l-0.05,17.88C208.04,324.86,205.3,331.84,169.59,322.9z"/>
						</defs>
						<clipPath id="XMLID_107_">
							<use xlink:href="#XMLID_516_"  style="overflow:visible;"/>
						</clipPath>
						<path id="XMLID_440_" class="st17" d="M169.59,322.9L169.59,322.9c-3.03-0.78-6-1.23-8.8-1.9
							c-33.6-8.03-29.43-5.64-29.43-48.47l0.05-17.88l76.67,19.86l-0.05,17.88C208.04,324.86,205.3,331.84,169.59,322.9z"/>
						<line id="XMLID_514_" class="st18" x1="152.27" y1="343.96" x2="247.29" y2="231.01"/>
						<line id="XMLID_596_" class="st18" x1="122.25" y1="307.65" x2="217.26" y2="194.7"/>
						<line id="XMLID_532_" class="st19" x1="162.44" y1="357.42" x2="257.46" y2="244.46"/>
					</g>
				</g>
				<path id="XMLID_752_" class="st20" d="M270.09,236.77l-52.59,26.57l-83.31-21.8c-1.88-0.56,4.86-6.38,6.3-7.19L348.94,120.2
					c2.36-1.34,5.17-1.65,7.77-0.86l70.2,21.26c4.81,1.46,8.11,5.89,8.11,10.92V157l-67.76,47.62L270.09,236.77z"/>
				<line id="XMLID_35_" class="st21" x1="213.68" y1="273.6" x2="435.02" y2="150.47"/>
				<path id="XMLID_68_" class="st22" d="M391.51,260.14c0,0-1.62-22.63,12.59-31.49c12.24-7.63,17.4,5.76,16.54,14.94l-3.21,2.05
					L391.51,260.14z"/>
				<path id="XMLID_60_" class="st23" d="M417.57,252.81c-2.46,9.92-9.27,16.77-15.2,15.3c-5.93-1.47-8.74-10.71-6.28-20.63
					c2.46-9.92,9.27-16.77,15.2-15.3C417.22,233.66,420.03,242.89,417.57,252.81z"/>
				<path id="XMLID_96_" class="st24" d="M414.3,252c-1.71,6.9-6.45,11.67-10.57,10.64c-4.13-1.02-6.08-7.45-4.37-14.35
					c1.71-6.9,6.45-11.67,10.57-10.64C414.06,238.67,416.02,245.1,414.3,252z"/>
				<path id="XMLID_431_" class="st25" d="M411.53,251.31c-1.08,4.34-4.05,7.33-6.64,6.69c-2.59-0.64-3.82-4.68-2.74-9.02
					c1.08-4.34,4.05-7.33,6.64-6.69C411.38,242.94,412.6,246.98,411.53,251.31z"/>
				<polygon id="XMLID_1139_" class="st12" points="244.85,357.97 214.54,347.61 220.96,320.73 251.17,321.68 				"/>
				<path id="XMLID_766_" class="st22" d="M232.43,349.81c0,0-1.62-22.63,12.59-31.49c12.24-7.63,17.4,5.76,16.54,14.94l-3.21,2.05
					L232.43,349.81z"/>
				<path id="XMLID_1143_" class="st15" d="M428.49,146.56L223.66,256.91c-6.15,3.3-9.99,9.71-9.99,16.69v73.9l19.96-11.19
					c1.48-6.51,4.66-13.8,11.4-18c7.31-4.55,12.09-1.62,14.58,3.44l132.98-74.54c1.42-6.65,4.59-14.24,11.52-18.56
					c7.45-4.64,12.26-1.5,14.71,3.73l16.2-9.16v-72.75C435.02,147.12,431.44,144.98,428.49,146.56z"/>
				
					<ellipse id="XMLID_491_" transform="matrix(0.241 -0.9705 0.9705 0.241 -141.7461 498.3732)" class="st23" cx="247.76" cy="339.81" rx="18.51" ry="11.06"/>
				<path id="XMLID_485_" class="st24" d="M255.23,341.66c-1.71,6.9-6.45,11.67-10.57,10.64c-4.13-1.02-6.08-7.45-4.37-14.35
					c1.71-6.9,6.45-11.67,10.57-10.64C254.98,328.34,256.94,334.76,255.23,341.66z"/>
				<path id="XMLID_472_" class="st25" d="M252.45,340.98c-1.08,4.34-4.05,7.33-6.64,6.69c-2.59-0.64-3.82-4.68-2.74-9.02
					c1.08-4.34,4.05-7.33,6.64-6.69C252.3,332.6,253.52,336.64,252.45,340.98z"/>
				<path id="XMLID_435_" class="st15" d="M435.02,218.58v4.64l-16.2,9.16c1.57,3.36,2.16,7.58,1.84,11.16l17.22-9.81v-13.73
					L435.02,218.58z"/>
				<path id="XMLID_453_" class="st26" d="M128.17,324.55v7.8c0,0.18,0.12,0.34,0.29,0.4l24.51,8.17c0.32,0.11,0.63-0.19,0.53-0.52
					c-0.91-2.96-8.89-14.92-24.86-16.28C128.39,324.11,128.17,324.31,128.17,324.55z"/>
				<path id="XMLID_499_" class="st26" d="M213.68,352.6l0,7.74c-0.11,0.14-0.38,0.29-0.55,0.24l-29.15-9.67
					c-0.32-0.11-0.39-0.53-0.12-0.73c2.5-1.83,16.32-4.6,29.61,1.7C213.69,351.98,213.82,352.4,213.68,352.6z"/>
				<g id="XMLID_480_">
					<g>
						<g id="XMLID_169_">
							<path class="st27" d="M136.93,321.99c-0.01,1.79-1.54,2.97-3.41,2.65c-1.87-0.32-3.38-2.03-3.37-3.82
								c0.01-1.79,1.54-2.97,3.41-2.65C135.43,318.5,136.94,320.2,136.93,321.99z"/>
						</g>
						<g id="XMLID_165_">
							<path class="st27" d="M136.06,321.84c-0.01,1.33-1.14,2.21-2.53,1.97c-1.39-0.24-2.51-1.51-2.51-2.84
								c0.01-1.33,1.14-2.21,2.53-1.97C134.95,319.24,136.07,320.51,136.06,321.84z"/>
						</g>
					</g>
				</g>
				<g id="XMLID_489_">
					<g>
						<g id="XMLID_164_">
							<path class="st27" d="M141.85,325.04c-0.01,1.06-0.92,1.77-2.03,1.58c-1.11-0.19-2.01-1.21-2.01-2.27
								c0.01-1.06,0.92-1.77,2.03-1.58C140.96,322.96,141.86,323.98,141.85,325.04z"/>
						</g>
						<g id="XMLID_163_">
							<path class="st27" d="M141.34,324.95c0,0.79-0.68,1.32-1.51,1.18s-1.5-0.9-1.49-1.69c0-0.79,0.68-1.32,1.51-1.18
								C140.67,323.4,141.34,324.16,141.34,324.95z"/>
						</g>
					</g>
				</g>
				<g id="XMLID_502_">
					<g>
						<g id="XMLID_161_">
							<path class="st27" d="M205.92,344.13c-0.68,1.65,0.26,3.34,2.11,3.77c1.85,0.43,3.9-0.56,4.58-2.21
								c0.68-1.65-0.26-3.34-2.11-3.77C208.65,341.49,206.6,342.48,205.92,344.13z"/>
						</g>
						<g id="XMLID_160_">
							<path class="st27" d="M206.77,344.33c-0.51,1.23,0.19,2.48,1.57,2.8c1.38,0.32,2.9-0.42,3.41-1.64
								c0.51-1.23-0.19-2.48-1.57-2.8C208.81,342.37,207.28,343.11,206.77,344.33z"/>
						</g>
					</g>
				</g>
				<g id="XMLID_497_">
					<g>
						<g id="XMLID_156_">
							<path class="st27" d="M200.2,345.45c-0.41,0.98,0.16,1.99,1.26,2.24c1.1,0.26,2.33-0.33,2.73-1.32
								c0.41-0.98-0.16-1.99-1.26-2.24C201.83,343.88,200.6,344.47,200.2,345.45z"/>
						</g>
						<g id="XMLID_154_">
							<path class="st27" d="M200.71,345.57c-0.3,0.73,0.12,1.48,0.94,1.67s1.73-0.25,2.03-0.98c0.3-0.73-0.12-1.48-0.94-1.67
								C201.92,344.4,201.01,344.84,200.71,345.57z"/>
						</g>
					</g>
				</g>
				<path id="XMLID_483_" class="st26" d="M132.27,250.09l-0.85,4.56v2.26l76.22,20.04l0.44-2.44v-5.56c0-1.67-1.12-3.12-2.73-3.55
					l-68.53-18.18C134.76,246.66,132.66,247.99,132.27,250.09z"/>
				<g id="XMLID_507_">
					<polygon id="XMLID_515_" class="st28" points="152.74,320.67 152.74,322.08 185.59,330.26 185.59,328.82 					"/>
					<polygon id="XMLID_512_" class="st28" points="152.74,322.69 152.73,324.11 185.59,332.28 185.59,330.84 					"/>
					<polygon id="XMLID_513_" class="st28" points="152.73,324.71 152.73,326.13 185.59,334.3 185.59,332.86 					"/>
					<polygon id="XMLID_517_" class="st28" points="152.73,326.73 152.73,328.15 185.58,336.32 185.58,334.88 					"/>
					<polygon id="XMLID_518_" class="st28" points="152.73,328.75 152.73,330.17 185.58,338.34 185.58,336.9 					"/>
				</g>
				<g id="XMLID_1140_">
					<g>
						<g id="XMLID_198_">
							<g>
								<g id="XMLID_199_">
									<path class="st15" d="M233.63,336.32l-19.96,11.19v12.84l18.76-10.57C232.41,349.39,232.04,343.31,233.63,336.32z"/>
								</g>
							</g>
						</g>
						<g id="XMLID_196_">
							<g id="XMLID_197_">
								<path class="st15" d="M392.59,247.22L259.6,321.76c1.68,3.42,2.31,7.8,1.97,11.5l-1.25,0.8l131.2-73.92l-0.01,0.01
									C391.51,260.14,391.09,254.2,392.59,247.22z"/>
							</g>
						</g>
					</g>
				</g>
				<g id="XMLID_478_">
					<defs>
						<path id="XMLID_452_" d="M428.11,212.74L226.13,321.09c-3.66,1.96-8.09-0.69-8.09-4.84l0-36.17
							c-0.15-6.93,3.6-13.36,9.71-16.63l198.7-106.56c1.8-0.96,3.97,0.34,3.97,2.38v49.6C430.43,210.48,429.54,211.97,428.11,212.74
							z"/>
					</defs>
					<clipPath id="XMLID_108_">
						<use xlink:href="#XMLID_452_"  style="overflow:visible;"/>
					</clipPath>
					<path id="XMLID_436_" class="st29" d="M428.11,212.74L226.13,321.09c-3.66,1.96-8.09-0.69-8.09-4.84l0-36.17
						c-0.15-6.93,3.6-13.36,9.71-16.63l198.7-106.56c1.8-0.96,3.97,0.34,3.97,2.38v49.6C430.43,210.48,429.54,211.97,428.11,212.74z
						"/>
					<g id="XMLID_573_" class="st30">
						<defs>
							<path id="XMLID_521_" d="M426.79,211.89L227.54,318.76c-3.46,1.85-7.64-0.65-7.64-4.57l0-34.16
								c-0.14-6.54,3.4-12.62,9.17-15.71l196.16-105.18c1.7-0.91,3.75,0.32,3.75,2.24v46.84
								C428.98,209.76,428.14,211.17,426.79,211.89z"/>
						</defs>
						<clipPath id="XMLID_109_">
							<use xlink:href="#XMLID_521_"  style="overflow:visible;"/>
						</clipPath>
						<path id="XMLID_471_" class="st31" d="M426.79,211.89L227.54,318.76c-3.46,1.85-7.64-0.65-7.64-4.57l0-34.16
							c-0.14-6.54,3.4-12.62,9.17-15.71l196.16-105.18c1.7-0.91,3.75,0.32,3.75,2.24v46.84
							C428.98,209.76,428.14,211.17,426.79,211.89z"/>
						<line id="XMLID_568_" class="st32" x1="219.56" y1="333.19" x2="259.78" y2="242.58"/>
						<g id="XMLID_574_" class="st33">
							<polygon id="XMLID_615_" class="st34" points="223.77,354.21 215.34,350.46 258.77,252.14 260.22,272.13 							"/>
						</g>
						<line id="XMLID_627_" class="st32" x1="259.89" y1="299.27" x2="300.11" y2="208.65"/>
						<g id="XMLID_575_" class="st33">
							<polygon id="XMLID_623_" class="st34" points="267.82,324.12 259.39,320.38 302.81,222.05 304.26,242.05 							"/>
						</g>
						<line id="XMLID_779_" class="st32" x1="303.05" y1="274.41" x2="343.27" y2="183.8"/>
						<g id="XMLID_762_" class="st33">
							<polygon id="XMLID_765_" class="st34" points="308.88,303.03 300.45,299.29 343.88,200.96 345.33,220.95 							"/>
						</g>
						<line id="XMLID_803_" class="st32" x1="343.94" y1="251.94" x2="384.16" y2="161.33"/>
						<g id="XMLID_797_" class="st33">
							<polygon id="XMLID_798_" class="st34" points="351.25,280.13 342.82,276.39 386.25,178.06 387.69,198.05 							"/>
						</g>
						<g id="XMLID_654_" class="st33">
							<polygon id="XMLID_761_" class="st34" points="392.83,252.99 384.4,249.24 427.83,150.92 429.27,170.91 							"/>
						</g>
						<line id="XMLID_570_" class="st32" x1="376.42" y1="250.48" x2="416.63" y2="159.86"/>
					</g>
					<g id="XMLID_476_" class="st30">
						<g>
							<g id="XMLID_134_">
								<rect x="258.77" y="240.74" class="st15" width="2.31" height="73.82"/>
							</g>
						</g>
					</g>
					<g id="XMLID_484_" class="st30">
						<g>
							<g id="XMLID_129_">
								<rect x="300.85" y="218.58" class="st15" width="2.31" height="73.82"/>
							</g>
						</g>
					</g>
					<g id="XMLID_505_" class="st30">
						<g>
							<g id="XMLID_127_">
								<rect x="342.92" y="196.43" class="st15" width="2.31" height="73.82"/>
							</g>
						</g>
					</g>
					<g id="XMLID_510_" class="st30">
						<g>
							<g id="XMLID_125_">
								<rect x="385" y="174.28" class="st15" width="2.31" height="73.82"/>
							</g>
						</g>
					</g>
				</g>
				<g id="XMLID_481_">
					<polygon id="XMLID_1159_" class="st35" points="266.84,312.99 266.84,308.87 383.1,245.36 383.13,249.68 					"/>
				</g>
				<g id="XMLID_511_">
					<polygon id="XMLID_1157_" class="st35" points="266.84,323.65 266.84,314.65 383.1,251.14 383.13,260.22 					"/>
				</g>
				<g id="XMLID_1147_">
					<polygon id="XMLID_1160_" class="st15" points="191.86,219.17 186.02,219.18 186.02,223.32 227.56,237 227.56,229.47 					"/>
					<polygon id="XMLID_1163_" class="st15" points="254.98,212.76 263.3,213.68 263.3,218.1 227.56,237 227.56,228.09 					"/>
					<polygon id="XMLID_494_" class="st36" points="227.39,232.68 186.02,219.18 221.93,200.17 263.3,213.68 					"/>
				</g>
				<g id="XMLID_1165_">
					<polygon id="XMLID_1172_" class="st15" points="311.68,154.99 305.85,154.99 305.85,159.14 347.39,172.81 347.39,165.29 					
						"/>
					<polygon id="XMLID_1170_" class="st15" points="374.8,148.58 383.13,149.49 383.13,153.92 347.39,172.81 347.39,163.9 					"/>
					<polygon id="XMLID_1166_" class="st36" points="347.22,168.5 305.85,154.99 341.76,135.99 383.13,149.49 					"/>
				</g>
				<g id="XMLID_1164_">
					<g>
						<path id="XMLID_232_" class="st37" d="M229.3,276.52l-8.07-0.33l0.34,32.34l8.07,0.33c0.82,0.03,1.49-0.63,1.48-1.48
							l-0.31-29.26C230.8,277.28,230.12,276.56,229.3,276.52z"/>
						<g id="XMLID_221_">
							<g id="XMLID_230_">
								<path id="XMLID_231_" class="st37" d="M224.51,281.56l-9.73-0.4c-0.42-0.02-0.76-0.38-0.76-0.81c0-0.43,0.33-0.76,0.75-0.75
									l9.73,0.4c0.42,0.02,0.76,0.38,0.76,0.81C225.27,281.24,224.93,281.57,224.51,281.56z"/>
							</g>
							<g id="XMLID_222_">
								<path id="XMLID_224_" class="st37" d="M224.77,305.57l-9.73-0.4c-0.42-0.02-0.76-0.38-0.76-0.81c0-0.43,0.33-0.76,0.75-0.75
									l9.73,0.4c0.42,0.02,0.76,0.38,0.76,0.81C225.52,305.26,225.19,305.59,224.77,305.57z"/>
							</g>
						</g>
					</g>
				</g>
				<g id="XMLID_1180_">
					<g>
						<path id="XMLID_220_" class="st37" d="M116.39,257.93l7.53,2.18l-0.06,28.74l-7.53-2.18c-0.77-0.22-1.4-1.02-1.39-1.77
							l0.06-26C114.99,258.14,115.62,257.71,116.39,257.93z"/>
						<g id="XMLID_215_">
							<g id="XMLID_218_">
								<path id="XMLID_219_" class="st37" d="M120.9,263.89l9.08,2.63c0.39,0.11,0.71-0.11,0.71-0.49c0-0.38-0.31-0.78-0.7-0.89
									l-9.08-2.63c-0.39-0.11-0.71,0.11-0.71,0.49C120.2,263.37,120.51,263.77,120.9,263.89z"/>
							</g>
							<g id="XMLID_216_">
								<path id="XMLID_217_" class="st37" d="M120.85,285.23l9.08,2.63c0.39,0.11,0.71-0.11,0.71-0.49c0-0.38-0.31-0.78-0.7-0.89
									l-9.08-2.63c-0.39-0.11-0.71,0.11-0.71,0.49C120.15,284.72,120.46,285.12,120.85,285.23z"/>
							</g>
						</g>
					</g>
				</g>
				<g id="XMLID_437_" class="st38">
					<path id="XMLID_755_" class="st39" d="M423.34,146.03c0,0-3.17,1.81-8.72,4.99c-5.57,3.13-13.49,7.69-23.07,13.02
						c-9.58,5.32-20.71,11.61-32.72,18.2c-12.01,6.59-24.82,13.63-37.62,20.66c-12.85,6.95-25.71,13.9-37.76,20.41
						c-12.05,6.52-23.37,12.46-33.04,17.63c-9.67,5.16-17.79,9.34-23.45,12.32c-5.68,2.94-8.92,4.62-8.92,4.62s3.17-1.81,8.72-4.99
						c5.57-3.13,13.49-7.69,23.07-13.02c9.58-5.32,20.71-11.61,32.72-18.2c12.01-6.59,24.82-13.63,37.63-20.66
						c12.85-6.95,25.71-13.9,37.76-20.41c12.05-6.52,23.37-12.46,33.04-17.63c9.67-5.16,17.79-9.34,23.45-12.33
						C420.1,147.71,423.34,146.03,423.34,146.03z"/>
				</g>
				<g id="XMLID_1161_" class="st40">
					<path id="XMLID_531_" class="st39" d="M354.42,119.77c0,0-3.17,1.81-8.72,4.99c-5.57,3.13-13.49,7.69-23.07,13.01
						c-9.58,5.32-20.71,11.61-32.72,18.2c-12.01,6.59-24.82,13.63-37.62,20.66c-12.85,6.95-25.71,13.9-37.76,20.41
						c-12.05,6.52-23.37,12.46-33.04,17.63c-9.67,5.16-17.79,9.34-23.45,12.32c-5.68,2.94-8.92,4.62-8.92,4.62s3.17-1.81,8.72-4.99
						c5.57-3.13,13.49-7.69,23.07-13.02c9.58-5.32,20.71-11.61,32.72-18.2c12.01-6.59,24.82-13.63,37.63-20.66
						c12.85-6.95,25.71-13.9,37.76-20.41c12.05-6.52,23.37-12.46,33.04-17.63c9.67-5.16,17.79-9.34,23.45-12.33
						C351.18,121.45,354.42,119.77,354.42,119.77z"/>
				</g>
				<g id="XMLID_492_" class="st41">
					<path id="XMLID_529_" class="st39" d="M137.82,242.21c0,0,1.08,0.19,2.95,0.57c1.87,0.4,4.55,0.92,7.75,1.64
						c3.2,0.71,6.92,1.58,10.89,2.56c1.98,0.5,4.04,0.98,6.12,1.53c2.08,0.54,4.19,1.09,6.3,1.64c2.11,0.57,4.21,1.14,6.28,1.71
						c2.07,0.55,4.1,1.16,6.07,1.71c3.93,1.12,7.59,2.21,10.72,3.19c3.13,0.96,5.72,1.85,7.54,2.42c1.82,0.6,2.84,0.97,2.84,0.97
						s-1.08-0.19-2.95-0.57c-1.87-0.4-4.55-0.91-7.75-1.64c-3.2-0.71-6.92-1.58-10.89-2.56c-1.98-0.5-4.04-0.98-6.12-1.53
						c-2.08-0.54-4.19-1.09-6.3-1.64c-2.1-0.57-4.21-1.15-6.28-1.71c-2.07-0.56-4.1-1.16-6.07-1.71c-3.93-1.12-7.59-2.22-10.72-3.19
						c-3.13-0.96-5.72-1.84-7.54-2.42C138.85,242.58,137.82,242.21,137.82,242.21z"/>
				</g>
				<path id="XMLID_650_" class="st42" d="M215.29,307.04c-0.01-2.64-0.1-5.24-0.14-7.75c-0.04-2.52-0.14-4.95-0.22-7.25
					c-0.07-2.31-0.18-4.49-0.28-6.5c-0.38-8.05-0.92-13.41-0.92-13.41s-0.54,5.37-0.92,13.41c-0.1,2.01-0.21,4.19-0.28,6.5
					c-0.08,2.31-0.18,4.74-0.22,7.25c-0.04,2.51-0.13,5.11-0.14,7.75c-0.02,2.64-0.04,5.32-0.06,8.01c0.02,2.68,0.04,5.37,0.05,8.01
					c0,2.64,0.1,5.24,0.14,7.75c0.11,5.03,0.28,9.72,0.49,13.75c0.38,8.05,0.92,13.41,0.92,13.41s0.54-5.37,0.92-13.41
					c0.21-4.02,0.38-8.72,0.49-13.75c0.04-2.51,0.14-5.11,0.14-7.75c0.02-2.64,0.04-5.32,0.05-8.01
					C215.32,312.37,215.31,309.69,215.29,307.04z"/>
			</g>
		</g>
	</g>
	<rect id="XMLID_14_" x="61.07" y="124.62" class="st21" width="375.13" height="46"/>
	<text id="XMLID_13_" transform="matrix(1 0 0 1 74.3522 131.0052)" class="st0"><tspan x="0" y="0" class="st43 st44 st45">Lorem ipsum dolor sit amet, consectetuer adipiscing elit. Aenean commodo ligula eget dolor. </tspan><tspan x="-9.94" y="12" class="st43 st44 st45">Aenean massa.  nascetur ridiculus mus. Donec quam felis, Cum sociis natoque penatibus et magnis </tspan><tspan x="-1.77" y="24" class="st43 st44 st45">dis parturient montes, nascetur ridiculus mus. Donec quam felis, ultricies nec, pellentesque eu, </tspan><tspan x="139.81" y="36" class="st43 st44 st45">pretium quis, sem. </tspan></text>
	<g id="XMLID_2_" class="st0">
		<g id="XMLID_3_" class="st46">
			<g id="XMLID_4_">
				<polygon id="XMLID_378_" class="st47" points="123.06,90 81.58,90 91.16,68.83 81.58,48.32 123.06,48.32 				"/>
			</g>
			<g id="XMLID_5_">
				<polygon id="XMLID_377_" class="st48" points="123.06,59.09 104.47,78.5 123.06,90 				"/>
			</g>
		</g>
		<g id="XMLID_7_" class="st46">
			<g id="XMLID_11_">
				<polygon id="XMLID_376_" class="st47" points="377.09,90 418.58,90 409,68.83 418.58,48.32 377.09,48.32 				"/>
			</g>
			<g id="XMLID_8_">
				<polygon id="XMLID_375_" class="st48" points="377.09,59.09 395.69,78.5 377.09,90 				"/>
			</g>
		</g>
		<g id="XMLID_9_" class="st46">
			<rect id="XMLID_10_" x="104.47" y="36.83" class="st49" width="291.07" height="41.67"/>
		</g>
		<text id="XMLID_1_" transform="matrix(1 0 0 1 120.9605 63.4898)" class="st1 st50 st51">ISOMETRIC BUS AND BUS STOP</text>
	</g>
</g>
<g id="DESIGNED_BY_FREEPIK" class="st0">
	<g id="XMLID_10584_" class="st46">
		<g id="XMLID_10585_">
			<path id="XMLID_10586_" class="st37" d="M180.31,482.93v-0.16c-0.22,0.25-0.43,0.45-0.64,0.61c-0.21,0.16-0.44,0.28-0.69,0.36
				c-0.25,0.08-0.52,0.12-0.81,0.12c-0.39,0-0.75-0.08-1.08-0.25c-0.33-0.16-0.62-0.4-0.86-0.7c-0.24-0.3-0.42-0.66-0.55-1.07
				c-0.12-0.41-0.19-0.86-0.19-1.34c0-1.01,0.25-1.8,0.74-2.37c0.49-0.57,1.15-0.85,1.95-0.85c0.47,0,0.86,0.08,1.18,0.24
				c0.32,0.16,0.63,0.41,0.94,0.74v-2.39c0-0.33,0.07-0.58,0.2-0.75c0.13-0.17,0.32-0.26,0.57-0.26c0.25,0,0.43,0.08,0.57,0.23
				c0.13,0.16,0.2,0.39,0.2,0.69v7.15c0,0.31-0.07,0.54-0.21,0.69c-0.14,0.15-0.33,0.23-0.55,0.23c-0.22,0-0.4-0.08-0.55-0.24
				C180.38,483.45,180.31,483.23,180.31,482.93z M177.12,480.55c0,0.44,0.07,0.81,0.2,1.12c0.14,0.31,0.32,0.54,0.56,0.7
				c0.24,0.16,0.5,0.24,0.78,0.24c0.29,0,0.55-0.07,0.78-0.22c0.24-0.15,0.42-0.38,0.56-0.68c0.14-0.31,0.21-0.69,0.21-1.15
				c0-0.43-0.07-0.8-0.21-1.11c-0.14-0.31-0.33-0.55-0.57-0.71c-0.24-0.16-0.5-0.25-0.79-0.25c-0.3,0-0.56,0.08-0.8,0.25
				c-0.23,0.17-0.41,0.41-0.54,0.72C177.18,479.77,177.12,480.13,177.12,480.55z"/>
			<path id="XMLID_10591_" class="st37" d="M187.45,480.96h-3.17c0,0.37,0.08,0.69,0.22,0.97c0.14,0.28,0.34,0.49,0.58,0.64
				c0.24,0.14,0.5,0.21,0.79,0.21c0.19,0,0.37-0.02,0.53-0.07c0.16-0.05,0.32-0.12,0.47-0.21c0.15-0.1,0.29-0.2,0.42-0.31
				c0.13-0.11,0.29-0.26,0.49-0.45c0.08-0.07,0.2-0.11,0.36-0.11c0.17,0,0.3,0.05,0.4,0.14c0.1,0.09,0.16,0.22,0.16,0.39
				c0,0.15-0.06,0.32-0.17,0.51c-0.12,0.2-0.29,0.38-0.52,0.56c-0.23,0.18-0.52,0.33-0.87,0.45c-0.35,0.12-0.75,0.18-1.21,0.18
				c-1.04,0-1.85-0.3-2.43-0.89c-0.58-0.59-0.87-1.4-0.87-2.42c0-0.48,0.07-0.92,0.21-1.33c0.14-0.41,0.35-0.76,0.62-1.05
				c0.27-0.29,0.61-0.52,1.01-0.67c0.4-0.16,0.84-0.23,1.33-0.23c0.63,0,1.18,0.13,1.63,0.4c0.45,0.27,0.79,0.61,1.02,1.04
				c0.22,0.42,0.34,0.86,0.34,1.29c0,0.41-0.12,0.67-0.35,0.79C188.21,480.9,187.88,480.96,187.45,480.96z M184.28,480.04h2.94
				c-0.04-0.55-0.19-0.97-0.45-1.24c-0.26-0.28-0.6-0.41-1.02-0.41c-0.4,0-0.74,0.14-0.99,0.42
				C184.5,479.08,184.34,479.49,184.28,480.04z"/>
			<path id="XMLID_10594_" class="st37" d="M194.84,481.73c0,0.45-0.11,0.83-0.33,1.15c-0.22,0.32-0.54,0.56-0.96,0.72
				c-0.43,0.16-0.94,0.25-1.55,0.25c-0.58,0-1.08-0.09-1.5-0.27c-0.42-0.18-0.72-0.4-0.92-0.67c-0.2-0.27-0.3-0.54-0.3-0.81
				c0-0.18,0.06-0.33,0.19-0.46c0.13-0.13,0.29-0.19,0.48-0.19c0.17,0,0.3,0.04,0.39,0.12c0.09,0.08,0.18,0.2,0.26,0.35
				c0.17,0.29,0.37,0.5,0.6,0.65c0.23,0.14,0.55,0.21,0.95,0.21c0.32,0,0.59-0.07,0.8-0.22c0.21-0.15,0.31-0.31,0.31-0.5
				c0-0.29-0.11-0.49-0.32-0.62c-0.22-0.13-0.57-0.26-1.07-0.37c-0.56-0.14-1.01-0.28-1.36-0.44c-0.35-0.15-0.63-0.35-0.84-0.6
				c-0.21-0.25-0.31-0.56-0.31-0.92c0-0.32,0.1-0.63,0.29-0.92c0.19-0.29,0.48-0.52,0.86-0.69c0.38-0.17,0.83-0.26,1.37-0.26
				c0.42,0,0.8,0.04,1.13,0.13c0.33,0.09,0.61,0.2,0.84,0.35c0.22,0.15,0.39,0.31,0.51,0.49c0.12,0.18,0.17,0.35,0.17,0.52
				c0,0.19-0.06,0.34-0.19,0.46c-0.12,0.12-0.3,0.18-0.53,0.18c-0.17,0-0.31-0.05-0.42-0.14c-0.12-0.09-0.25-0.24-0.4-0.43
				c-0.12-0.16-0.27-0.29-0.43-0.38c-0.17-0.1-0.39-0.14-0.68-0.14c-0.29,0-0.54,0.06-0.73,0.19c-0.19,0.12-0.29,0.28-0.29,0.47
				c0,0.17,0.07,0.31,0.21,0.42c0.14,0.11,0.33,0.2,0.58,0.27c0.24,0.07,0.57,0.16,1,0.26c0.5,0.12,0.91,0.27,1.23,0.44
				c0.32,0.17,0.56,0.37,0.72,0.6C194.76,481.17,194.84,481.44,194.84,481.73z"/>
			<path id="XMLID_10606_" class="st37" d="M196.49,476.51c-0.23,0-0.42-0.07-0.58-0.21c-0.16-0.14-0.24-0.33-0.24-0.59
				c0-0.23,0.08-0.42,0.25-0.57s0.36-0.22,0.57-0.22c0.21,0,0.4,0.07,0.56,0.2c0.16,0.13,0.24,0.33,0.24,0.59
				c0,0.25-0.08,0.44-0.24,0.58C196.9,476.44,196.71,476.51,196.49,476.51z M197.3,478.19v4.68c0,0.32-0.08,0.57-0.23,0.74
				c-0.15,0.17-0.35,0.25-0.59,0.25c-0.24,0-0.43-0.08-0.58-0.26c-0.15-0.17-0.22-0.41-0.22-0.73v-4.64c0-0.32,0.07-0.56,0.22-0.72
				c0.15-0.16,0.34-0.24,0.58-0.24c0.24,0,0.43,0.08,0.59,0.24C197.22,477.67,197.3,477.9,197.3,478.19z"/>
			<path id="XMLID_10609_" class="st37" d="M204.39,478.45v4.71c0,0.54-0.06,1-0.17,1.39c-0.11,0.39-0.3,0.71-0.55,0.96
				c-0.25,0.25-0.58,0.44-0.99,0.56c-0.41,0.12-0.92,0.18-1.53,0.18c-0.56,0-1.06-0.08-1.5-0.23c-0.44-0.16-0.78-0.36-1.02-0.61
				c-0.24-0.25-0.36-0.5-0.36-0.76c0-0.2,0.07-0.36,0.2-0.48c0.13-0.13,0.3-0.19,0.49-0.19c0.24,0,0.45,0.1,0.62,0.31
				c0.09,0.11,0.18,0.22,0.27,0.32c0.09,0.11,0.2,0.2,0.31,0.28c0.11,0.08,0.25,0.13,0.41,0.17c0.16,0.04,0.34,0.06,0.55,0.06
				c0.42,0,0.75-0.06,0.98-0.18c0.23-0.12,0.39-0.28,0.49-0.49c0.09-0.21,0.15-0.43,0.16-0.67c0.02-0.24,0.03-0.62,0.04-1.16
				c-0.25,0.35-0.54,0.61-0.86,0.8c-0.33,0.18-0.72,0.27-1.17,0.27c-0.54,0-1.02-0.14-1.42-0.42c-0.41-0.28-0.72-0.66-0.93-1.16
				c-0.22-0.5-0.33-1.07-0.33-1.73c0-0.49,0.07-0.93,0.2-1.32c0.13-0.39,0.32-0.72,0.57-0.99c0.25-0.27,0.53-0.47,0.85-0.61
				c0.32-0.14,0.67-0.2,1.06-0.2c0.46,0,0.86,0.09,1.19,0.26c0.34,0.18,0.65,0.45,0.94,0.83v-0.22c0-0.28,0.07-0.5,0.21-0.65
				c0.14-0.15,0.32-0.23,0.53-0.23c0.31,0,0.52,0.1,0.62,0.31C204.34,477.77,204.39,478.07,204.39,478.45z M199.7,480.51
				c0,0.66,0.14,1.15,0.43,1.49c0.29,0.34,0.66,0.5,1.11,0.5c0.27,0,0.52-0.07,0.76-0.22c0.24-0.14,0.43-0.36,0.59-0.65
				c0.15-0.29,0.23-0.64,0.23-1.06c0-0.66-0.15-1.18-0.44-1.54c-0.29-0.37-0.67-0.55-1.15-0.55c-0.46,0-0.83,0.18-1.11,0.53
				C199.84,479.36,199.7,479.86,199.7,480.51z"/>
			<path id="XMLID_10612_" class="st37" d="M206.97,478.16v0.2c0.28-0.38,0.6-0.65,0.93-0.83c0.34-0.18,0.73-0.26,1.17-0.26
				c0.43,0,0.81,0.09,1.15,0.28c0.34,0.19,0.59,0.45,0.75,0.79c0.11,0.2,0.18,0.41,0.21,0.64c0.03,0.23,0.05,0.52,0.05,0.88v3.02
				c0,0.32-0.07,0.57-0.22,0.74c-0.15,0.17-0.34,0.25-0.58,0.25c-0.24,0-0.44-0.08-0.59-0.26c-0.15-0.17-0.23-0.41-0.23-0.73v-2.7
				c0-0.53-0.07-0.94-0.22-1.23c-0.15-0.28-0.44-0.42-0.89-0.42c-0.29,0-0.55,0.09-0.79,0.26c-0.24,0.17-0.41,0.41-0.52,0.71
				c-0.08,0.24-0.12,0.69-0.12,1.35v2.03c0,0.33-0.08,0.58-0.23,0.74c-0.15,0.16-0.35,0.25-0.59,0.25c-0.23,0-0.43-0.08-0.58-0.26
				c-0.15-0.17-0.23-0.41-0.23-0.73v-4.68c0-0.31,0.07-0.54,0.2-0.69c0.13-0.15,0.32-0.23,0.55-0.23c0.14,0,0.27,0.03,0.39,0.1
				c0.11,0.07,0.21,0.17,0.28,0.3C206.94,477.8,206.97,477.97,206.97,478.16z"/>
			<path id="XMLID_10615_" class="st37" d="M216.83,480.96h-3.17c0,0.37,0.08,0.69,0.22,0.97c0.14,0.28,0.34,0.49,0.58,0.64
				c0.24,0.14,0.5,0.21,0.79,0.21c0.19,0,0.37-0.02,0.53-0.07c0.16-0.05,0.32-0.12,0.47-0.21c0.15-0.1,0.29-0.2,0.42-0.31
				c0.13-0.11,0.29-0.26,0.49-0.45c0.08-0.07,0.2-0.11,0.36-0.11c0.17,0,0.3,0.05,0.4,0.14c0.1,0.09,0.15,0.22,0.15,0.39
				c0,0.15-0.06,0.32-0.17,0.51c-0.12,0.2-0.29,0.38-0.52,0.56c-0.23,0.18-0.52,0.33-0.87,0.45c-0.35,0.12-0.75,0.18-1.21,0.18
				c-1.04,0-1.85-0.3-2.43-0.89c-0.58-0.59-0.87-1.4-0.87-2.42c0-0.48,0.07-0.92,0.21-1.33c0.14-0.41,0.35-0.76,0.62-1.05
				c0.27-0.29,0.61-0.52,1.01-0.67c0.4-0.16,0.84-0.23,1.33-0.23c0.63,0,1.18,0.13,1.63,0.4c0.45,0.27,0.79,0.61,1.02,1.04
				c0.23,0.42,0.34,0.86,0.34,1.29c0,0.41-0.12,0.67-0.35,0.79C217.58,480.9,217.25,480.96,216.83,480.96z M213.66,480.04h2.94
				c-0.04-0.55-0.19-0.97-0.45-1.24c-0.26-0.28-0.6-0.41-1.02-0.41c-0.4,0-0.74,0.14-0.99,0.42
				C213.87,479.08,213.71,479.49,213.66,480.04z"/>
			<path id="XMLID_10623_" class="st37" d="M223.44,482.93v-0.16c-0.22,0.25-0.43,0.45-0.64,0.61c-0.21,0.16-0.44,0.28-0.69,0.36
				c-0.25,0.08-0.52,0.12-0.81,0.12c-0.39,0-0.75-0.08-1.08-0.25c-0.33-0.16-0.62-0.4-0.86-0.7c-0.24-0.3-0.42-0.66-0.55-1.07
				c-0.12-0.41-0.19-0.86-0.19-1.34c0-1.01,0.25-1.8,0.74-2.37c0.49-0.57,1.15-0.85,1.95-0.85c0.47,0,0.86,0.08,1.18,0.24
				c0.32,0.16,0.63,0.41,0.94,0.74v-2.39c0-0.33,0.07-0.58,0.2-0.75c0.13-0.17,0.32-0.26,0.57-0.26c0.25,0,0.43,0.08,0.57,0.23
				c0.13,0.16,0.2,0.39,0.2,0.69v7.15c0,0.31-0.07,0.54-0.21,0.69c-0.14,0.15-0.33,0.23-0.55,0.23c-0.22,0-0.4-0.08-0.55-0.24
				C223.51,483.45,223.44,483.23,223.44,482.93z M220.25,480.55c0,0.44,0.07,0.81,0.2,1.12c0.14,0.31,0.32,0.54,0.56,0.7
				c0.24,0.16,0.5,0.24,0.78,0.24c0.29,0,0.55-0.07,0.78-0.22c0.24-0.15,0.42-0.38,0.56-0.68c0.14-0.31,0.21-0.69,0.21-1.15
				c0-0.43-0.07-0.8-0.21-1.11c-0.14-0.31-0.33-0.55-0.57-0.71c-0.24-0.16-0.5-0.25-0.79-0.25c-0.3,0-0.56,0.08-0.8,0.25
				c-0.23,0.17-0.41,0.41-0.54,0.72C220.31,479.77,220.25,480.13,220.25,480.55z"/>
			<path id="XMLID_10630_" class="st37" d="M230.06,475.78v2.48c0.3-0.32,0.62-0.56,0.93-0.73c0.32-0.17,0.71-0.25,1.18-0.25
				c0.54,0,1.01,0.13,1.42,0.38c0.4,0.26,0.72,0.63,0.94,1.11c0.22,0.48,0.34,1.06,0.34,1.72c0,0.49-0.06,0.94-0.19,1.35
				c-0.12,0.41-0.31,0.76-0.54,1.07c-0.24,0.3-0.53,0.53-0.86,0.7c-0.34,0.16-0.71,0.25-1.12,0.25c-0.25,0-0.48-0.03-0.7-0.09
				c-0.22-0.06-0.41-0.14-0.56-0.23c-0.15-0.1-0.29-0.2-0.39-0.3c-0.11-0.1-0.25-0.26-0.43-0.46v0.16c0,0.3-0.07,0.54-0.22,0.69
				c-0.15,0.16-0.33,0.23-0.56,0.23c-0.23,0-0.41-0.08-0.55-0.23c-0.14-0.16-0.2-0.39-0.2-0.69v-7.08c0-0.33,0.07-0.58,0.2-0.74
				c0.13-0.17,0.32-0.25,0.56-0.25c0.25,0,0.44,0.08,0.58,0.24C229.99,475.26,230.06,475.48,230.06,475.78z M230.14,480.6
				c0,0.65,0.15,1.14,0.44,1.49c0.29,0.35,0.68,0.52,1.16,0.52c0.41,0,0.76-0.18,1.05-0.53c0.29-0.35,0.44-0.86,0.44-1.52
				c0-0.43-0.06-0.8-0.18-1.1c-0.12-0.31-0.3-0.55-0.52-0.72c-0.23-0.17-0.49-0.25-0.79-0.25c-0.31,0-0.58,0.08-0.83,0.25
				c-0.24,0.17-0.43,0.41-0.57,0.73C230.21,479.78,230.14,480.16,230.14,480.6z"/>
			<path id="XMLID_10633_" class="st37" d="M236.96,484.06l0.15-0.36l-1.99-5.02c-0.12-0.29-0.18-0.5-0.18-0.63
				c0-0.14,0.04-0.27,0.11-0.39c0.07-0.12,0.17-0.21,0.29-0.29c0.12-0.07,0.25-0.11,0.39-0.11c0.23,0,0.41,0.07,0.53,0.22
				c0.12,0.15,0.22,0.36,0.31,0.64l1.37,3.99l1.3-3.71c0.1-0.3,0.2-0.54,0.28-0.71c0.08-0.17,0.17-0.29,0.26-0.34
				c0.09-0.06,0.22-0.09,0.39-0.09c0.12,0,0.24,0.03,0.35,0.1c0.11,0.07,0.2,0.15,0.26,0.26c0.06,0.11,0.09,0.23,0.09,0.35
				c-0.02,0.08-0.04,0.18-0.08,0.32c-0.04,0.14-0.08,0.28-0.13,0.42l-2.11,5.53c-0.18,0.49-0.36,0.87-0.53,1.15
				c-0.17,0.28-0.4,0.49-0.69,0.64c-0.29,0.15-0.67,0.22-1.16,0.22c-0.47,0-0.83-0.05-1.07-0.15c-0.24-0.1-0.36-0.29-0.36-0.56
				c0-0.19,0.06-0.33,0.17-0.43c0.11-0.1,0.28-0.15,0.5-0.15c0.09,0,0.17,0.01,0.26,0.04c0.1,0.02,0.19,0.04,0.27,0.04
				c0.19,0,0.33-0.03,0.44-0.08c0.11-0.05,0.2-0.15,0.29-0.29C236.75,484.52,236.85,484.32,236.96,484.06z"/>
		</g>
		<g id="XMLID_10647_">
			<path id="XMLID_10648_" class="st37" d="M260.44,477.41h0.39v-0.49c0-0.51,0.06-0.91,0.19-1.21c0.13-0.3,0.35-0.52,0.65-0.65
				c0.31-0.14,0.73-0.2,1.26-0.2c0.95,0,1.42,0.23,1.42,0.7c0,0.15-0.05,0.28-0.15,0.38c-0.1,0.11-0.21,0.16-0.35,0.16
				c-0.06,0-0.17-0.01-0.33-0.04c-0.15-0.02-0.28-0.03-0.39-0.03c-0.29,0-0.48,0.09-0.57,0.26c-0.08,0.17-0.12,0.42-0.12,0.74v0.39
				h0.4c0.62,0,0.93,0.19,0.93,0.56c0,0.26-0.08,0.43-0.25,0.5c-0.16,0.07-0.39,0.11-0.68,0.11h-0.4v4.29
				c0,0.32-0.08,0.56-0.23,0.73c-0.15,0.17-0.35,0.25-0.59,0.25c-0.23,0-0.42-0.08-0.57-0.25c-0.15-0.17-0.23-0.41-0.23-0.73v-4.29
				h-0.45c-0.24,0-0.43-0.05-0.56-0.16c-0.13-0.11-0.2-0.25-0.2-0.42C259.62,477.6,259.9,477.41,260.44,477.41"/>
			<path id="XMLID_10649_" class="st37" d="M265.75,481.51v1.35c0,0.33-0.08,0.57-0.23,0.74c-0.15,0.17-0.35,0.25-0.59,0.25
				c-0.24,0-0.43-0.08-0.58-0.25c-0.15-0.16-0.23-0.41-0.23-0.73v-4.51c0-0.73,0.26-1.09,0.79-1.09c0.27,0,0.46,0.08,0.58,0.26
				c0.12,0.17,0.18,0.42,0.2,0.76c0.19-0.33,0.39-0.58,0.59-0.76c0.21-0.17,0.48-0.26,0.82-0.26c0.34,0,0.67,0.08,0.99,0.26
				c0.32,0.17,0.48,0.4,0.48,0.68c0,0.2-0.07,0.36-0.2,0.49c-0.14,0.13-0.28,0.19-0.44,0.19c-0.06,0-0.21-0.04-0.43-0.11
				c-0.23-0.07-0.43-0.11-0.6-0.11c-0.24,0-0.43,0.06-0.58,0.19c-0.15,0.13-0.27,0.31-0.35,0.55c-0.08,0.25-0.14,0.54-0.17,0.88
				C265.76,480.61,265.75,481.03,265.75,481.51"/>
			<path id="XMLID_10655_" class="st37" d="M273.2,480.96h-3.17c0.01,0.37,0.08,0.69,0.22,0.97c0.15,0.28,0.34,0.49,0.58,0.64
				c0.24,0.14,0.5,0.21,0.79,0.21c0.19,0,0.37-0.02,0.53-0.07c0.16-0.04,0.32-0.12,0.47-0.21c0.15-0.1,0.29-0.2,0.42-0.31
				c0.13-0.11,0.29-0.26,0.49-0.45c0.08-0.07,0.2-0.11,0.36-0.11c0.17,0,0.3,0.05,0.41,0.14c0.1,0.09,0.15,0.22,0.15,0.39
				c0,0.15-0.06,0.32-0.17,0.51c-0.12,0.2-0.29,0.39-0.52,0.57c-0.23,0.18-0.52,0.33-0.87,0.45c-0.35,0.12-0.75,0.18-1.21,0.18
				c-1.04,0-1.85-0.3-2.43-0.89c-0.58-0.6-0.87-1.4-0.87-2.42c0-0.48,0.07-0.92,0.22-1.33c0.14-0.41,0.35-0.76,0.62-1.05
				c0.27-0.29,0.61-0.52,1.01-0.67c0.4-0.16,0.84-0.23,1.33-0.23c0.63,0,1.18,0.13,1.63,0.4c0.45,0.26,0.8,0.61,1.02,1.03
				c0.23,0.43,0.34,0.86,0.34,1.3c0,0.41-0.12,0.67-0.35,0.79C273.95,480.9,273.62,480.96,273.2,480.96 M270.02,480.04h2.94
				c-0.04-0.55-0.19-0.97-0.45-1.24c-0.26-0.28-0.6-0.41-1.03-0.41c-0.4,0-0.74,0.14-0.99,0.42
				C270.24,479.08,270.08,479.49,270.02,480.04"/>
			<path id="XMLID_10667_" class="st37" d="M279.94,480.96h-3.17c0,0.37,0.08,0.69,0.22,0.97c0.14,0.28,0.34,0.49,0.58,0.64
				c0.24,0.14,0.5,0.21,0.79,0.21c0.19,0,0.37-0.02,0.53-0.07c0.16-0.04,0.32-0.12,0.47-0.21c0.15-0.1,0.29-0.2,0.41-0.31
				c0.12-0.11,0.29-0.26,0.49-0.45c0.08-0.07,0.2-0.11,0.36-0.11c0.17,0,0.3,0.05,0.41,0.14c0.1,0.09,0.15,0.22,0.15,0.39
				c0,0.15-0.05,0.32-0.17,0.51c-0.11,0.2-0.28,0.39-0.52,0.57c-0.23,0.18-0.52,0.33-0.87,0.45c-0.35,0.12-0.76,0.18-1.21,0.18
				c-1.04,0-1.85-0.3-2.43-0.89c-0.58-0.6-0.87-1.4-0.87-2.42c0-0.48,0.07-0.92,0.22-1.33c0.14-0.41,0.35-0.76,0.62-1.05
				c0.27-0.29,0.61-0.52,1.01-0.67c0.4-0.16,0.84-0.23,1.33-0.23c0.63,0,1.17,0.13,1.63,0.4c0.45,0.26,0.79,0.61,1.01,1.03
				c0.22,0.43,0.34,0.86,0.34,1.3c0,0.41-0.12,0.67-0.35,0.79C280.69,480.9,280.36,480.96,279.94,480.96 M276.77,480.04h2.94
				c-0.04-0.55-0.19-0.97-0.45-1.24c-0.26-0.28-0.6-0.41-1.03-0.41c-0.4,0-0.73,0.14-1,0.42
				C276.98,479.08,276.82,479.49,276.77,480.04"/>
			<path id="XMLID_10679_" class="st37" d="M283.49,478.17v0.19c0.3-0.38,0.62-0.65,0.95-0.83c0.32-0.18,0.7-0.27,1.11-0.27
				c0.5,0,0.96,0.13,1.38,0.39c0.42,0.26,0.75,0.63,0.99,1.13c0.24,0.5,0.37,1.08,0.37,1.76c0,0.5-0.07,0.96-0.21,1.38
				c-0.14,0.42-0.34,0.77-0.58,1.05c-0.25,0.28-0.53,0.5-0.87,0.65c-0.34,0.15-0.69,0.23-1.08,0.23c-0.46,0-0.85-0.09-1.17-0.28
				c-0.31-0.18-0.61-0.46-0.9-0.82v2.43c0,0.71-0.26,1.07-0.78,1.07c-0.31,0-0.51-0.09-0.61-0.27c-0.09-0.19-0.15-0.45-0.15-0.81v-7
				c0-0.31,0.07-0.54,0.2-0.69c0.13-0.15,0.32-0.23,0.55-0.23c0.23,0,0.42,0.08,0.56,0.23
				C283.42,477.65,283.49,477.88,283.49,478.17 M286.67,480.53c0-0.43-0.07-0.8-0.2-1.1c-0.13-0.31-0.31-0.54-0.54-0.7
				c-0.23-0.16-0.49-0.25-0.77-0.25c-0.45,0-0.82,0.18-1.13,0.53c-0.31,0.35-0.46,0.87-0.46,1.56c0,0.64,0.15,1.15,0.46,1.5
				c0.3,0.36,0.68,0.54,1.13,0.54c0.27,0,0.52-0.08,0.75-0.23c0.23-0.16,0.42-0.39,0.55-0.7
				C286.6,481.35,286.67,480.97,286.67,480.53"/>
			<path id="XMLID_10683_" class="st37" d="M289.92,476.51c-0.23,0-0.42-0.07-0.58-0.21c-0.16-0.14-0.24-0.33-0.24-0.59
				c0-0.23,0.08-0.42,0.25-0.57c0.16-0.15,0.35-0.22,0.57-0.22c0.21,0,0.4,0.07,0.56,0.2c0.16,0.14,0.24,0.33,0.24,0.59
				c0,0.25-0.08,0.44-0.24,0.58C290.33,476.44,290.14,476.51,289.92,476.51 M290.73,478.18v4.69c0,0.32-0.08,0.57-0.23,0.73
				c-0.16,0.17-0.35,0.25-0.59,0.25c-0.24,0-0.43-0.08-0.58-0.25c-0.15-0.17-0.22-0.42-0.22-0.73v-4.64c0-0.32,0.08-0.56,0.22-0.72
				c0.15-0.17,0.34-0.24,0.58-0.24c0.24,0,0.43,0.08,0.59,0.24C290.65,477.67,290.73,477.9,290.73,478.18"/>
			<path id="XMLID_10689_" class="st37" d="M295.95,483.11l-1.43-2.35l-0.88,0.83v1.29c0,0.31-0.08,0.55-0.25,0.72
				c-0.16,0.17-0.35,0.25-0.57,0.25c-0.25,0-0.45-0.08-0.59-0.25c-0.14-0.16-0.21-0.41-0.21-0.73v-6.91c0-0.36,0.07-0.63,0.21-0.82
				c0.14-0.19,0.34-0.28,0.6-0.28c0.25,0,0.45,0.09,0.59,0.26c0.15,0.17,0.22,0.42,0.22,0.75v3.93l1.82-1.91
				c0.23-0.24,0.4-0.4,0.52-0.49c0.12-0.09,0.26-0.13,0.43-0.13c0.2,0,0.37,0.06,0.51,0.19c0.13,0.13,0.2,0.29,0.2,0.48
				c0,0.24-0.22,0.56-0.66,0.95l-0.86,0.79l1.66,2.61c0.12,0.2,0.21,0.34,0.26,0.44c0.05,0.1,0.08,0.2,0.08,0.29
				c0,0.26-0.07,0.46-0.21,0.61c-0.14,0.15-0.33,0.22-0.55,0.22c-0.2,0-0.35-0.05-0.46-0.16
				C296.28,483.59,296.13,483.39,295.95,483.11"/>
			<path id="XMLID_10690_" class="st37" d="M299.47,483.85c-0.24,0-0.45-0.08-0.63-0.24c-0.18-0.16-0.27-0.38-0.27-0.67
				c0-0.24,0.09-0.45,0.26-0.62c0.17-0.17,0.38-0.26,0.63-0.26c0.25,0,0.46,0.09,0.64,0.26c0.17,0.17,0.26,0.38,0.26,0.63
				c0,0.28-0.09,0.5-0.26,0.66C299.92,483.77,299.71,483.85,299.47,483.85"/>
			<path id="XMLID_10691_" class="st37" d="M307.54,481.85c0,0.2-0.06,0.42-0.18,0.65c-0.12,0.23-0.31,0.45-0.55,0.66
				c-0.25,0.21-0.56,0.38-0.93,0.5c-0.38,0.13-0.8,0.19-1.27,0.19c-1,0-1.79-0.29-2.35-0.88c-0.56-0.58-0.84-1.37-0.84-2.35
				c0-0.67,0.13-1.25,0.39-1.77c0.25-0.51,0.63-0.9,1.11-1.18c0.49-0.28,1.07-0.42,1.75-0.42c0.42,0,0.81,0.06,1.16,0.18
				c0.35,0.12,0.65,0.28,0.89,0.47c0.24,0.2,0.43,0.4,0.56,0.62c0.13,0.22,0.19,0.43,0.19,0.62c0,0.19-0.07,0.36-0.21,0.49
				c-0.15,0.13-0.32,0.2-0.52,0.2c-0.14,0-0.25-0.04-0.34-0.1c-0.09-0.07-0.19-0.18-0.3-0.34c-0.2-0.3-0.4-0.53-0.62-0.67
				c-0.21-0.15-0.49-0.23-0.82-0.23c-0.48,0-0.86,0.19-1.16,0.56c-0.29,0.37-0.44,0.89-0.44,1.53c0,0.31,0.04,0.59,0.11,0.84
				c0.07,0.25,0.18,0.47,0.33,0.65c0.14,0.18,0.32,0.32,0.52,0.41c0.2,0.1,0.43,0.14,0.66,0.14c0.33,0,0.6-0.08,0.84-0.23
				c0.23-0.15,0.44-0.38,0.62-0.69c0.1-0.18,0.2-0.32,0.32-0.43c0.11-0.1,0.26-0.16,0.42-0.16c0.2,0,0.36,0.08,0.49,0.23
				C307.47,481.52,307.54,481.68,307.54,481.85"/>
			<path id="XMLID_10692_" class="st37" d="M314.53,480.56c0,0.48-0.08,0.93-0.22,1.34c-0.15,0.41-0.37,0.76-0.66,1.05
				c-0.28,0.29-0.63,0.52-1.02,0.68c-0.4,0.15-0.84,0.23-1.34,0.23c-0.49,0-0.93-0.08-1.33-0.24c-0.39-0.16-0.73-0.38-1.02-0.68
				c-0.29-0.3-0.51-0.65-0.66-1.05c-0.14-0.4-0.22-0.85-0.22-1.33c0-0.49,0.08-0.94,0.22-1.35c0.15-0.41,0.37-0.76,0.65-1.05
				c0.28-0.29,0.62-0.51,1.02-0.67c0.4-0.16,0.84-0.23,1.33-0.23c0.49,0,0.94,0.08,1.34,0.24c0.4,0.16,0.74,0.38,1.03,0.67
				c0.29,0.3,0.5,0.64,0.65,1.04C314.45,479.63,314.53,480.07,314.53,480.56 M312.9,480.56c0-0.66-0.15-1.18-0.44-1.54
				c-0.29-0.37-0.68-0.55-1.17-0.55c-0.32,0-0.6,0.08-0.84,0.25c-0.24,0.16-0.43,0.41-0.56,0.73c-0.13,0.32-0.2,0.7-0.2,1.12
				c0,0.42,0.06,0.79,0.19,1.11c0.13,0.32,0.31,0.56,0.55,0.73c0.24,0.17,0.52,0.25,0.85,0.25c0.49,0,0.88-0.18,1.17-0.56
				C312.76,481.72,312.9,481.21,312.9,480.56"/>
			<path id="XMLID_10708_" class="st37" d="M320.71,480.68v2.15c0,0.34-0.08,0.59-0.23,0.77c-0.16,0.17-0.36,0.26-0.61,0.26
				c-0.25,0-0.45-0.08-0.59-0.26c-0.15-0.17-0.23-0.43-0.23-0.77v-2.58c0-0.41-0.01-0.73-0.04-0.95c-0.03-0.22-0.11-0.41-0.23-0.55
				c-0.12-0.15-0.32-0.22-0.58-0.22c-0.53,0-0.88,0.18-1.05,0.55c-0.17,0.36-0.25,0.88-0.25,1.57v2.19c0,0.34-0.08,0.59-0.23,0.76
				c-0.16,0.17-0.35,0.26-0.6,0.26c-0.25,0-0.45-0.09-0.6-0.26c-0.16-0.17-0.23-0.43-0.23-0.76v-4.64c0-0.31,0.07-0.54,0.21-0.69
				c0.14-0.16,0.33-0.24,0.56-0.24c0.22,0,0.41,0.08,0.56,0.22c0.15,0.15,0.22,0.35,0.22,0.62v0.15c0.28-0.33,0.58-0.58,0.9-0.74
				c0.32-0.16,0.68-0.24,1.07-0.24c0.41,0,0.76,0.08,1.05,0.24c0.29,0.16,0.53,0.41,0.73,0.74c0.27-0.33,0.57-0.58,0.88-0.74
				c0.31-0.16,0.66-0.24,1.04-0.24c0.44,0,0.83,0.09,1.15,0.26c0.32,0.17,0.56,0.42,0.72,0.75c0.14,0.3,0.21,0.76,0.21,1.39v3.16
				c0,0.34-0.08,0.59-0.23,0.77c-0.15,0.17-0.36,0.26-0.61,0.26c-0.25,0-0.45-0.09-0.6-0.26c-0.16-0.17-0.23-0.43-0.23-0.76v-2.73
				c0-0.35-0.01-0.63-0.04-0.84c-0.03-0.21-0.11-0.39-0.24-0.53c-0.13-0.14-0.33-0.21-0.6-0.21c-0.21,0-0.42,0.07-0.61,0.19
				c-0.19,0.12-0.34,0.3-0.45,0.51C320.77,479.5,320.71,479.98,320.71,480.68"/>
		</g>
		<g id="XMLID_10711_">
			<path id="XMLID_10714_" class="st37" d="M245.27,480.17c0,0,0-0.01,0-0.01C245.27,480.16,245.27,480.16,245.27,480.17z"/>
			<path id="XMLID_10729_" class="st37" d="M245.35,480.69C245.35,480.69,245.35,480.69,245.35,480.69
				c-0.03-0.15-0.05-0.29-0.07-0.44C245.3,480.39,245.32,480.54,245.35,480.69z"/>
			<path id="XMLID_10732_" class="st37" d="M245.89,482.19c0-0.01-0.01-0.01-0.01-0.02C245.88,482.18,245.89,482.18,245.89,482.19z"
				/>
			<path id="XMLID_10735_" class="st37" d="M245.84,482.09c-0.01-0.03-0.03-0.06-0.04-0.08
				C245.81,482.03,245.82,482.06,245.84,482.09z"/>
			<path id="XMLID_10738_" class="st37" d="M245.5,481.26c0.08,0.25,0.17,0.49,0.29,0.72C245.68,481.75,245.58,481.51,245.5,481.26
				C245.51,481.26,245.51,481.26,245.5,481.26z"/>
			<path id="XMLID_10747_" class="st37" d="M251.55,473.96c0.31,0,0.54,0.02,0.81,0.07l0.07-0.48c0,0-0.73-0.23-1.69-0.15
				l-0.08-0.26c0.3-0.06,0.52-0.33,0.52-0.65c0-0.36-0.3-0.66-0.66-0.66c-0.36,0-0.66,0.29-0.66,0.66c0,0.32,0.22,0.58,0.52,0.65
				l0.08,0.29c-1.02,0.14-1.83,0.54-1.83,0.54l0.14,0.44c0.62-0.21,1.15-0.33,1.64-0.38C250.9,473.98,251.25,473.96,251.55,473.96z"
				/>
			<path id="XMLID_10756_" class="st37" d="M245.88,476.37L245.88,476.37c0.03-0.04,0.05-0.07,0.07-0.09l-0.2-0.14l-0.3-0.22
				c-0.02,0.02-0.5,0.47-0.88,1.28c-0.02-0.03-0.03-0.05-0.06-0.07c-0.11-0.12-0.27-0.19-0.47-0.18c0,0-0.01,0-0.01,0
				c-0.12,0-0.21-0.04-0.27-0.09c0.06-0.07,0.09-0.16,0.09-0.26c0-0.23-0.19-0.42-0.42-0.42c-0.23,0-0.42,0.19-0.42,0.42
				c0,0.23,0.19,0.42,0.42,0.42c0.04,0,0.07-0.01,0.1-0.01c0.1,0.11,0.27,0.21,0.5,0.21c0.12,0,0.21,0.03,0.27,0.1
				c0.07,0.08,0.09,0.18,0.1,0.27c0,0,0,0,0,0c-0.27,0.74-0.19,1.67-0.19,1.67l0.66,0.03c0.01-0.34,0.06-0.93,0.23-1.39
				C245.45,476.96,245.86,476.39,245.88,476.37z"/>
			<path id="XMLID_10759_" class="st37" d="M257.29,474.51c-0.23,0-0.42,0.19-0.42,0.42c0,0.04,0.01,0.07,0.01,0.1
				c-0.11,0.1-0.21,0.27-0.21,0.51c0,0.12-0.03,0.21-0.1,0.27c-0.05,0.05-0.12,0.07-0.18,0.09c-0.49-0.69-1.1-1.11-1.1-1.11
				l-0.47,0.51c0.36,0.33,0.72,0.73,1.08,1.24c0.25,0.35,0.5,0.81,0.71,1.26l0.64-0.3c0,0-0.29-0.72-0.7-1.37
				c0.07-0.02,0.14-0.06,0.21-0.12c0.13-0.11,0.19-0.27,0.18-0.47c0-0.13,0.04-0.22,0.09-0.28c0.07,0.05,0.16,0.09,0.26,0.09
				c0.23,0,0.42-0.19,0.42-0.42C257.71,474.7,257.53,474.51,257.29,474.51z"/>
			<path id="XMLID_10762_" class="st37" d="M255.63,480.26c-0.88,0.43-2.33,1-4.24,1.26c-0.75,0.1-1.47,0.14-2.14,0.14
				c-0.87,0-1.64-0.06-2.23-0.14c-0.67-0.08-1.2-0.19-1.52-0.26c0.08,0.24,0.17,0.49,0.28,0.72c0,0.01,0,0.01,0.01,0.02
				c0.01,0.03,0.03,0.06,0.04,0.08c0.01,0.03,0.03,0.05,0.04,0.08c0,0.01,0.01,0.01,0.01,0.02c0.19,0.36,0.42,0.68,0.68,0.97
				c0.9,0.98,1.82,1.14,1.83,1.14l0.01,0l0.01,0c0.01,0,0.82,0.27,2.06,0.27c1.22,0,2.41-0.25,3.55-0.73
				c0.84-0.43,1.64-1.09,2.03-1.67c0.31-0.45,0.53-0.93,0.66-1.43c0.07-0.27,0.12-0.69,0.09-1.14
				C256.56,479.76,256.16,480,255.63,480.26z"/>
			<path id="XMLID_10941_" class="st37" d="M246.16,476.58c-0.03,0.04-0.41,0.58-0.71,1.41c-0.23,0.62-0.22,1.53-0.22,1.54v0
				c0,0.21,0.01,0.42,0.04,0.63c0,0,0,0.01,0,0.01c0,0.03,0.01,0.05,0.01,0.08c0.02,0.14,0.04,0.29,0.07,0.44
				c0.44,0.11,3.05,0.72,5.97,0.31c1.83-0.25,3.22-0.8,4.06-1.2c0.7-0.34,1.15-0.65,1.33-0.77c-0.17-0.64-0.65-1.65-1.09-2.28
				c-1.25-1.79-2.6-2.25-3.3-2.36c-0.26-0.04-0.48-0.07-0.78-0.07c-0.28,0-0.63,0.02-1.09,0.07c-0.46,0.05-0.98,0.17-1.58,0.37
				c-0.84,0.28-1.6,0.72-2.2,1.28l-0.02,0.02C246.56,476.13,246.37,476.31,246.16,476.58z M253.83,476.16c0.6,0,1.09,0.49,1.09,1.09
				c0,0.6-0.49,1.09-1.09,1.09c-0.6,0-1.09-0.49-1.09-1.09C252.74,476.65,253.23,476.16,253.83,476.16z M248.68,476.12
				c0.97,0,1.76,0.79,1.76,1.76c0,0.97-0.79,1.76-1.76,1.76c-0.97,0-1.76-0.79-1.76-1.76C246.92,476.91,247.71,476.12,248.68,476.12
				z"/>
		</g>
	</g>
</g>
</svg>
