<?xml version="1.0" encoding="utf-8"?>
<!-- Generator: Adobe Illustrator 24.0.1, SVG Export Plug-In . SVG Version: 6.00 Build 0)  -->
<svg version="1.1" id="Cloud_copy" xmlns="http://www.w3.org/2000/svg" xmlns:xlink="http://www.w3.org/1999/xlink" x="0px" y="0px"
	 viewBox="0 0 500 500" style="enable-background:new 0 0 500 500;" xml:space="preserve">
<style type="text/css">
	.st0{display:none;fill:url(#SVGID_1_);stroke:url(#SVGID_2_);stroke-miterlimit:10;}
	.st1{fill:#FAFAFA;stroke:#000000;stroke-width:0.75;stroke-miterlimit:10;}
	.st2{fill:url(#SVGID_3_);}
	.st3{opacity:0.6;}
	.st4{fill:#020230;}
	.st5{fill:#BA2F2F;}
	.st6{fill:#BABABA;}
	.st7{fill:url(#XMLID_3_);}
	.st8{opacity:0.1;}
	.st9{fill:#FFFFFF;}
	.st10{fill:url(#XMLID_4_);}
	.st11{fill:#37474F;}
	.st12{fill:#263238;}
	.st13{display:none;}
	.st14{display:inline;fill:#37474F;}
	.st15{display:inline;fill:#263238;}
	.st16{fill:url(#XMLID_5_);stroke:#000000;stroke-width:0.75;stroke-miterlimit:10;}
	.st17{opacity:0.4;fill:#3E3066;stroke:#000000;stroke-width:0.75;stroke-miterlimit:10;}
	.st18{opacity:0.1;fill:url(#XMLID_6_);}
	.st19{fill:#455A64;}
	.st20{fill:url(#XMLID_7_);}
	.st21{fill:#FFFFFF;stroke:#000000;stroke-width:0.25;stroke-miterlimit:10;}
	.st22{fill:url(#XMLID_8_);}
	.st23{fill:url(#XMLID_9_);}
	.st24{fill:url(#XMLID_10_);}
	.st25{fill:url(#XMLID_11_);}
	.st26{opacity:0.4;fill:#FFFFFF;}
	.st27{fill:#FFA8A7;}
	.st28{fill:#E0E0E0;}
	.st29{fill:#F0F0F0;}
	.st30{fill:#F28F8F;}
	.st31{fill:#EBEBEB;stroke:#000000;stroke-width:0.75;stroke-miterlimit:10;}
	.st32{fill:#0D1858;}
	.st33{fill:url(#XMLID_12_);stroke:#EE4B4E;stroke-miterlimit:10;}
	.st34{fill:#6C2CC6;}
	.st35{enable-background:new    ;}
	.st36{clip-path:url(#SVGID_5_);enable-background:new    ;}
	.st37{fill:#2B2954;}
	.st38{fill:#2C2B57;}
	.st39{fill:#2E2C5A;}
	.st40{fill:#302E5D;}
	.st41{fill:#312F61;}
	.st42{fill:#333164;}
	.st43{fill:#343367;}
	.st44{fill:#36346A;}
	.st45{fill:#38366D;}
	.st46{fill:#393771;}
	.st47{fill:#3B3974;}
	.st48{fill:#3D3A77;}
	.st49{fill:#3E3C7A;}
	.st50{fill:#403E7E;}
	.st51{fill:#423F81;}
	.st52{fill:#434184;}
	.st53{fill:#454287;}
	.st54{fill:#47448A;}
	.st55{fill:#48468E;}
	.st56{fill:#4A4791;}
	.st57{fill:#4B4994;}
	.st58{fill:#4D4A97;}
	.st59{fill:#4F4C9B;}
	.st60{fill:#504D9E;}
	.st61{fill:#524FA1;}
	.st62{fill:#6764AC;}
	.st63{fill:#6F6DB1;}
	.st64{fill:#7674B5;}
	.st65{fill:#7C79B8;}
	.st66{fill:#807EBA;}
	.st67{clip-path:url(#SVGID_7_);enable-background:new    ;}
	.st68{clip-path:url(#SVGID_9_);enable-background:new    ;}
	.st69{fill:#2C2A56;}
	.st70{fill:#3F3D7C;}
	.st71{fill:#47448B;}
	.st72{fill:#514E9F;}
	.st73{fill:#49468F;}
	.st74{fill:#302E5E;}
	.st75{fill:#4B4894;}
	.st76{fill:#343266;}
	.st77{fill:#4D4A96;}
</style>
<linearGradient id="SVGID_1_" gradientUnits="userSpaceOnUse" x1="0" y1="250" x2="500" y2="250">
	<stop  offset="1.065558e-07" style="stop-color:#459CD1"/>
	<stop  offset="1" style="stop-color:#662D91"/>
</linearGradient>
<linearGradient id="SVGID_2_" gradientUnits="userSpaceOnUse" x1="-0.5" y1="250" x2="500.5" y2="250">
	<stop  offset="1.065558e-07" style="stop-color:#459CD1"/>
	<stop  offset="1" style="stop-color:#662D91"/>
</linearGradient>
<rect class="st0" width="500" height="500"/>
<g id="Floor">
	<path id="SUELO_1_" class="st1" d="M176.03,322.23c40.91,17.62,107.23,17.62,148.14,0c40.91-17.62,40.91-46.19,0-63.81
		c-40.91-17.62-107.23-17.62-148.14,0C135.13,276.04,135.13,304.61,176.03,322.23z"/>
	<g>
		<g>
			
				<linearGradient id="SVGID_3_" gradientUnits="userSpaceOnUse" x1="7647.7041" y1="4457.3911" x2="7676.3267" y2="4457.3911" gradientTransform="matrix(-0.5031 -0.8642 -0.8642 0.5031 7957.8018 4573.6997)">
				<stop  offset="0" style="stop-color:#E39A65"/>
				<stop  offset="1" style="stop-color:#E95F8D"/>
			</linearGradient>
			<path class="st2" d="M236.09,191.06l21.26,12.22c2.04,1.17,5.59,1.01,7.93-0.36l0,0c2.34-1.36,2.59-3.42,0.55-4.58l-21.26-12.22
				c-2.04-1.17-5.59-1.01-7.93,0.36h0C234.3,187.84,234.05,189.9,236.09,191.06z"/>
		</g>
		<g class="st3">
			<path class="st4" d="M236.09,202.7l21.26,12.22c2.04,1.17,5.59,1.01,7.93-0.36l0,0c2.34-1.36,2.59-3.42,0.55-4.58l-21.26-12.22
				c-2.04-1.17-5.59-1.01-7.93,0.36h0C234.3,199.48,234.05,201.53,236.09,202.7z"/>
		</g>
		<path class="st5" d="M250.69,195.3l-6.32-3.65c-0.35-0.2-0.31-0.56,0.1-0.79l0,0c0.41-0.23,1.02-0.26,1.37-0.06l6.32,3.65
			c0.35,0.2,0.31,0.56-0.1,0.79l0,0C251.66,195.47,251.04,195.5,250.69,195.3z"/>
		<path class="st5" d="M255.49,198.06l-2.3-1.33c-0.35-0.2-0.31-0.56,0.1-0.79l0,0c0.41-0.23,1.02-0.26,1.37-0.06l2.3,1.33
			c0.35,0.2,0.31,0.56-0.1,0.79v0C256.45,198.24,255.84,198.27,255.49,198.06z"/>
	</g>
</g>
<g id="Shadows">
	<polygon id="XMLID_510_" class="st6" points="205.69,278.11 175.73,295.42 173.48,294.09 203.44,276.81 	"/>
	<polygon id="XMLID_509_" class="st6" points="193.18,285.79 205.17,278.87 205.46,279.03 193.47,285.95 	"/>
	<path id="XMLID_508_" class="st6" d="M350.3,296.42c2.09-1.2,2.09-3.16,0-4.36l-81.02-46.78c-2.09-1.2-5.47-1.2-7.55,0
		l-36.08,20.82l3.54,2.05l18.61-10.71l81.48,47.04l-17.06,9.84l3.78,1.91L350.3,296.42z"/>
	<path id="XMLID_507_" class="st6" d="M228.61,286.4l57.8,33.37c0.59,0.34,1.54,0.34,2.13,0l17.85-10.3c0.59-0.34,0.59-0.89,0-1.23
		l-57.8-33.37c-0.59-0.34-1.54-0.34-2.13,0l-17.85,10.3C228.02,285.51,228.02,286.06,228.61,286.4z"/>
</g>
<g id="Plants">
	<g id="Plants_1_">
		<g id="XMLID_1302_">
			<g id="XMLID_1402_">
				<linearGradient id="XMLID_3_" gradientUnits="userSpaceOnUse" x1="174.9793" y1="278.4631" x2="156.9012" y2="278.4631">
					<stop  offset="1.065558e-07" style="stop-color:#459CD1"/>
					<stop  offset="1" style="stop-color:#662D91"/>
				</linearGradient>
				<path id="XMLID_1417_" class="st7" d="M174.98,286.15c-0.61-3.49-1.02-10.04-5.02-15.56c-2.89-4-7.46-7.58-10.94-6.55
					c-3.25,0.97-2.67,6.12,1.11,9.06c3.77,2.94,8.64,7.07,10.86,14.64l3.27,5.33L174.98,286.15z"/>
			</g>
			<g id="XMLID_1075_" class="st8">
				<path id="XMLID_1099_" d="M174.98,286.15c-0.61-3.49-1.02-10.04-5.02-15.56c-2.89-4-7.46-7.58-10.94-6.55
					c-3.25,0.97-2.67,6.12,1.11,9.06c3.77,2.94,8.64,7.07,10.86,14.64l3.27,5.33L174.98,286.15z"/>
			</g>
			<g id="XMLID_1360_">
				<path id="XMLID_2646_" class="st9" d="M174.21,288.8c-0.12,0-0.23-0.09-0.24-0.21c-1.31-9.99-5.96-17.67-13.45-22.2
					c-0.12-0.07-0.15-0.22-0.08-0.34c0.07-0.12,0.22-0.15,0.34-0.08c7.62,4.61,12.35,12.41,13.68,22.56
					c0.02,0.13-0.08,0.26-0.21,0.28C174.24,288.8,174.22,288.8,174.21,288.8z"/>
			</g>
		</g>
		<g id="XMLID_1399_">
			<linearGradient id="XMLID_4_" gradientUnits="userSpaceOnUse" x1="175.329" y1="288.2413" x2="151.8994" y2="288.2413">
				<stop  offset="1.065558e-07" style="stop-color:#459CD1"/>
				<stop  offset="1" style="stop-color:#662D91"/>
			</linearGradient>
			<path id="XMLID_1401_" class="st10" d="M173.91,293.64c0,0-1.93,2.22-5.56,3.29c-3.63,1.07-5.5-0.49-5.5-0.49
				s1.01-3.67,2.99-4.92c0,0-3.48,1.19-6.1,3.48c0,0-2.26,0.33-3.61-3.01c0,0,1.07-2.26,5.43-3.97c0,0-2.83-0.33-6.65,1.19
				c-0.28,0.16-2.13-4.15-2.78-6.16s0.18-2.1,1.73-2.74c1.55-0.64,6.99-1.62,8.12-0.87c1.12,0.75,2.03,3.71,2.03,3.71
				s0.74-1.84,0.31-3.33c0,0,1.54-0.76,3.43-0.36s2.27,1.62,2.7,2.88c0.43,1.26,0.57,2.4,0.45,4.02c0,0,0.96-2.37,0.31-4.47
				c0,0,1.91,0.7,3.12,2.37C175.55,285.93,175.91,290.66,173.91,293.64z"/>
			<g id="XMLID_1400_">
				<path id="XMLID_2645_" class="st9" d="M173.91,293.89c-0.08,0-0.16-0.04-0.21-0.11c-3.8-5.82-15.86-11.59-19.95-11.85
					c-0.14-0.01-0.24-0.13-0.23-0.26c0.01-0.13,0.11-0.24,0.26-0.23c4.16,0.26,16.45,6.14,20.33,12.07
					c0.07,0.11,0.04,0.27-0.07,0.34C174,293.88,173.95,293.89,173.91,293.89z"/>
			</g>
		</g>
	</g>
</g>
<g id="Bus_Stop">
	<g id="Bus_stop_2_">
		<g id="toldo_1_">
			<g id="XMLID_384_">
				<polygon id="XMLID_386_" class="st11" points="230.98,179.16 230.98,267.12 229.2,268.14 229.2,180.19 				"/>
				<polygon id="XMLID_385_" class="st12" points="229.2,180.19 229.2,268.14 225.66,266.1 225.66,178.15 				"/>
			</g>
			<g id="XMLID_381_" class="st13">
				<polygon id="XMLID_383_" class="st14" points="316,316.22 314.22,317.25 314.22,229.3 316,228.27 				"/>
				<polygon id="XMLID_382_" class="st15" points="314.22,229.3 314.22,317.25 310.68,315.2 310.68,227.25 				"/>
			</g>
			<g id="XMLID_377_">
				<linearGradient id="XMLID_5_" gradientUnits="userSpaceOnUse" x1="200.4164" y1="183.0038" x2="306.7052" y2="244.3696">
					<stop  offset="1.065558e-07" style="stop-color:#459CD1"/>
					<stop  offset="1" style="stop-color:#662D91"/>
				</linearGradient>
				<path id="XMLID_380_" class="st16" d="M315.14,224.68c-0.01-0.01-0.03-0.02-0.05-0.03l-84.93-49.03l-0.01,0.01
					c-2.04-1.23-7.65,0.28-14.27,4.1l-9.65,5.57c-8.34,4.82-15.1,11.47-15.1,14.86v0l0,0v2.04l0,0v0l0,0l85.02,49.09v0L316,228.27
					v-2.05C316,225.51,315.69,225,315.14,224.68z"/>
				<path id="XMLID_379_" class="st17" d="M315.09,224.65c-2.11-1.13-7.67,0.4-14.19,4.17l-9.64,5.57
					c-8.35,4.81-15.11,11.47-15.11,14.86l-83.25-48.07l-1.77-1.02c0-3.39,6.76-10.04,15.1-14.86l9.65-5.57
					c6.61-3.82,12.23-5.33,14.27-4.1l0.01-0.01L315.09,224.65z"/>
				<linearGradient id="XMLID_6_" gradientUnits="userSpaceOnUse" x1="276.1426" y1="225.7201" x2="191.1213" y2="225.7201">
					<stop  offset="1.065558e-07" style="stop-color:#459CD1"/>
					<stop  offset="1" style="stop-color:#662D91"/>
				</linearGradient>
				<polygon id="XMLID_378_" class="st18" points="276.14,249.24 276.14,251.29 191.12,202.2 191.12,200.15 				"/>
			</g>
		</g>
		<g id="Chair_2_">
			<g id="XMLID_375_">
				<path id="XMLID_376_" class="st12" d="M260.43,288.56c0.21,0,0.43-0.05,0.62-0.17l13.43-7.76c1.47-0.85,2.38-2.43,2.38-4.12V261
					c0-0.69-0.56-1.25-1.25-1.25c-0.69,0-1.25,0.56-1.25,1.25v15.51c0,0.81-0.43,1.56-1.13,1.96l-13.43,7.76
					c-0.6,0.34-0.8,1.11-0.46,1.7C259.58,288.33,260,288.56,260.43,288.56z"/>
			</g>
			<g id="XMLID_373_">
				<path id="XMLID_374_" class="st12" d="M287.85,304.04c0.21,0,0.43-0.05,0.62-0.17l13.43-7.76c1.47-0.85,2.38-2.43,2.38-4.12
					v-15.51c0-0.69-0.56-1.25-1.25-1.25s-1.25,0.56-1.25,1.25v15.51c0,0.81-0.43,1.56-1.13,1.96l-13.43,7.76
					c-0.6,0.34-0.8,1.11-0.46,1.7C287,303.81,287.42,304.04,287.85,304.04z"/>
			</g>
			<g id="XMLID_371_">
				<path id="XMLID_372_" class="st12" d="M233.95,272.96c0.21,0,0.43-0.05,0.62-0.17l13.43-7.76c1.47-0.85,2.38-2.43,2.38-4.12
					V245.4c0-0.69-0.56-1.25-1.25-1.25c-0.69,0-1.25,0.56-1.25,1.25v15.51c0,0.81-0.43,1.56-1.13,1.96l-13.43,7.76
					c-0.6,0.34-0.8,1.11-0.46,1.7C233.1,272.73,233.52,272.96,233.95,272.96z"/>
			</g>
			<g id="XMLID_369_">
				<path id="XMLID_370_" class="st12" d="M285.53,302.49v14.36c0,0.21,0.14,0.42,0.41,0.58c0.55,0.32,1.45,0.32,2,0
					c0.28-0.16,0.41-0.37,0.41-0.58v-14.36H285.53z"/>
			</g>
			<g id="XMLID_367_">
				<path id="XMLID_368_" class="st12" d="M297.38,295.74v14.36c0,0.21,0.14,0.42,0.41,0.58c0.55,0.32,1.45,0.32,2,0
					c0.28-0.16,0.41-0.37,0.41-0.58v-14.36H297.38z"/>
			</g>
			<g id="XMLID_365_">
				<path id="XMLID_366_" class="st12" d="M231.67,271.4v14.36c0,0.21,0.14,0.42,0.41,0.58c0.55,0.32,1.45,0.32,2,0
					c0.28-0.16,0.41-0.37,0.41-0.58V271.4H231.67z"/>
			</g>
			<g id="XMLID_363_">
				<path id="XMLID_364_" class="st12" d="M243.52,264.65V279c0,0.21,0.14,0.42,0.41,0.58c0.55,0.32,1.45,0.32,2,0
					c0.28-0.16,0.41-0.37,0.41-0.58v-14.36H243.52z"/>
			</g>
			<g id="XMLID_356_">
				<g id="XMLID_361_">
					<path id="XMLID_362_" class="st19" d="M307.06,280l0.25-0.14c0.4-0.23,0.72-0.79,0.72-1.25v-2.24c0-0.46-0.32-1.02-0.72-1.25
						l-59.21-34.18c-0.4-0.23-1.04-0.23-1.44,0l-0.25,0.14c-0.4,0.23-0.72,0.79-0.72,1.25v2.24c0,0.46,0.32,1.02,0.72,1.25
						L305.63,280C306.02,280.23,306.67,280.23,307.06,280z"/>
				</g>
				<g id="XMLID_359_">
					<path id="XMLID_360_" class="st12" d="M304.66,277.49l3.16-1.83c0.13,0.23,0.21,0.48,0.21,0.71v2.24
						c0,0.46-0.32,1.02-0.72,1.25l-0.25,0.14c-0.4,0.23-1.04,0.23-1.44,0l-0.97-0.56V277.49z"/>
				</g>
				<g id="XMLID_357_">
					<path id="XMLID_358_" class="st11" d="M305.63,276.1l-59.21-34.18c-0.4-0.23-0.72-0.04-0.72,0.42v2.24
						c0,0.46,0.32,1.02,0.72,1.25L305.63,280c0.4,0.23,0.72,0.04,0.72-0.42l0-2.24C306.34,276.89,306.02,276.33,305.63,276.1z"/>
				</g>
			</g>
			<g id="XMLID_349_">
				<g id="XMLID_354_">
					<path id="XMLID_355_" class="st19" d="M307.06,286.83l0.25-0.14c0.4-0.23,0.72-0.79,0.72-1.25v-2.24
						c0-0.46-0.32-1.02-0.72-1.25l-59.21-34.18c-0.4-0.23-1.04-0.23-1.44,0l-0.25,0.14c-0.4,0.23-0.72,0.79-0.72,1.25v2.24
						c0,0.46,0.32,1.02,0.72,1.25l59.21,34.18C306.02,287.06,306.67,287.06,307.06,286.83z"/>
				</g>
				<g id="XMLID_352_">
					<path id="XMLID_353_" class="st12" d="M304.66,284.33l3.16-1.83c0.13,0.23,0.21,0.48,0.21,0.71v2.24
						c0,0.46-0.32,1.02-0.72,1.25l-0.25,0.14c-0.4,0.23-1.04,0.23-1.44,0l-0.97-0.56V284.33z"/>
				</g>
				<g id="XMLID_350_">
					<path id="XMLID_351_" class="st11" d="M305.63,282.94l-59.21-34.18c-0.4-0.23-0.72-0.04-0.72,0.42v2.24
						c0,0.46,0.32,1.02,0.72,1.25l59.21,34.18c0.4,0.23,0.72,0.04,0.72-0.42l0-2.24C306.34,283.72,306.02,283.17,305.63,282.94z"/>
				</g>
			</g>
			<g id="XMLID_342_">
				<g id="XMLID_347_">
					<path id="XMLID_348_" class="st19" d="M307.06,293.67l0.25-0.14c0.4-0.23,0.72-0.79,0.72-1.25v-2.24
						c0-0.46-0.32-1.02-0.72-1.25l-59.21-34.18c-0.4-0.23-1.04-0.23-1.44,0l-0.25,0.14c-0.4,0.23-0.72,0.79-0.72,1.25v2.24
						c0,0.46,0.32,1.02,0.72,1.25l59.21,34.18C306.02,293.9,306.67,293.9,307.06,293.67z"/>
				</g>
				<g id="XMLID_345_">
					<path id="XMLID_346_" class="st12" d="M304.66,291.16l3.16-1.83c0.13,0.23,0.21,0.48,0.21,0.71v2.24
						c0,0.46-0.32,1.02-0.72,1.25l-0.25,0.14c-0.4,0.23-1.04,0.23-1.44,0l-0.97-0.56V291.16z"/>
				</g>
				<g id="XMLID_343_">
					<path id="XMLID_344_" class="st11" d="M305.63,289.77l-59.21-34.18c-0.4-0.23-0.72-0.04-0.72,0.42v2.24
						c0,0.46,0.32,1.02,0.72,1.25l59.21,34.18c0.4,0.23,0.72,0.04,0.72-0.42l0-2.24C306.34,290.56,306.02,290,305.63,289.77z"/>
				</g>
			</g>
			<g id="XMLID_320_">
				<g id="XMLID_335_">
					<g id="XMLID_340_">
						<path id="XMLID_341_" class="st11" d="M304.66,297.81v0.29c0,0.46-0.32,1.02-0.72,1.25l-1.94,1.12c-0.4,0.23-1.04,0.23-1.44,0
							l-59.21-34.18c-0.4-0.23-0.72-0.79-0.72-1.25v-0.29c0-0.46,0.32-1.02,0.72-1.25l1.94-1.12c0.4-0.23,1.04-0.23,1.44,0
							l59.21,34.18C304.33,296.79,304.66,297.35,304.66,297.81z"/>
					</g>
					<g id="XMLID_338_">
						<path id="XMLID_339_" class="st12" d="M301.28,296.98l0,3.65c0.26,0,0.52-0.06,0.72-0.17l1.94-1.12
							c0.4-0.23,0.72-0.79,0.72-1.25l0-0.29c0-0.46-0.32-1.02-0.72-1.25l-0.97-0.56L301.28,296.98z"/>
					</g>
					<g id="XMLID_336_">
						<path id="XMLID_337_" class="st19" d="M300.56,298.51l-59.21-34.18c-0.4-0.23-0.4-0.6,0-0.83l1.94-1.12
							c0.4-0.23,1.04-0.23,1.44,0l59.21,34.18c0.4,0.23,0.4,0.6,0,0.83l-1.94,1.12C301.6,298.74,300.96,298.74,300.56,298.51z"/>
					</g>
				</g>
				<g id="XMLID_328_">
					<g id="XMLID_333_">
						<path id="XMLID_334_" class="st11" d="M298.75,301.22v0.29c0,0.46-0.32,1.02-0.72,1.25l-1.94,1.12c-0.4,0.23-1.04,0.23-1.44,0
							l-59.21-34.18c-0.4-0.23-0.72-0.79-0.72-1.25v-0.29c0-0.46,0.32-1.02,0.72-1.25l1.94-1.12c0.4-0.23,1.04-0.23,1.44,0
							l59.21,34.18C298.43,300.2,298.75,300.76,298.75,301.22z"/>
					</g>
					<g id="XMLID_331_">
						<path id="XMLID_332_" class="st12" d="M295.37,300.39l0,3.65c0.26,0,0.52-0.06,0.72-0.17l1.94-1.12
							c0.4-0.23,0.72-0.79,0.72-1.25l0-0.29c0-0.46-0.32-1.02-0.72-1.25l-0.97-0.56L295.37,300.39z"/>
					</g>
					<g id="XMLID_329_">
						<path id="XMLID_330_" class="st19" d="M294.65,301.92l-59.21-34.18c-0.4-0.23-0.4-0.6,0-0.83l1.94-1.12
							c0.4-0.23,1.04-0.23,1.44,0l59.21,34.18c0.4,0.23,0.4,0.6,0,0.83l-1.94,1.12C295.7,302.15,295.05,302.15,294.65,301.92z"/>
					</g>
				</g>
				<g id="XMLID_321_">
					<g id="XMLID_326_">
						<path id="XMLID_327_" class="st11" d="M292.84,304.63v0.29c0,0.46-0.32,1.02-0.72,1.25l-1.94,1.12c-0.4,0.23-1.04,0.23-1.44,0
							l-59.21-34.18c-0.4-0.23-0.72-0.79-0.72-1.25v-0.29c0-0.46,0.32-1.02,0.72-1.25l1.94-1.12c0.4-0.23,1.04-0.23,1.44,0
							l59.21,34.18C292.52,303.61,292.84,304.17,292.84,304.63z"/>
					</g>
					<g id="XMLID_324_">
						<path id="XMLID_325_" class="st12" d="M289.47,303.8l0,3.65c0.26,0,0.52-0.06,0.72-0.17l1.94-1.12
							c0.4-0.23,0.72-0.79,0.72-1.25l0-0.29c0-0.46-0.32-1.02-0.72-1.25l-0.97-0.56L289.47,303.8z"/>
					</g>
					<g id="XMLID_322_">
						<path id="XMLID_323_" class="st19" d="M288.75,305.33l-59.21-34.18c-0.4-0.23-0.4-0.6,0-0.83l1.94-1.12
							c0.4-0.23,1.04-0.23,1.44,0l59.21,34.18c0.4,0.23,0.4,0.6,0,0.83l-1.94,1.12C289.79,305.56,289.14,305.56,288.75,305.33z"/>
					</g>
				</g>
			</g>
			<g id="XMLID_313_">
				<g id="XMLID_318_">
					<path id="XMLID_319_" class="st12" d="M303.04,275.94c0.26,0.15,0.46,0.51,0.46,0.8c0,0.3-0.21,0.42-0.46,0.27
						c-0.26-0.15-0.46-0.51-0.46-0.8C302.58,275.92,302.79,275.8,303.04,275.94z"/>
				</g>
				<g id="XMLID_316_">
					<path id="XMLID_317_" class="st12" d="M303.04,282.77c0.26,0.15,0.46,0.51,0.46,0.8c0,0.3-0.21,0.42-0.46,0.27
						c-0.26-0.15-0.46-0.51-0.46-0.8C302.58,282.74,302.79,282.62,303.04,282.77z"/>
				</g>
				<g id="XMLID_314_">
					<path id="XMLID_315_" class="st12" d="M303.04,289.59c0.26,0.15,0.46,0.51,0.46,0.8s-0.21,0.42-0.46,0.27
						c-0.26-0.15-0.46-0.51-0.46-0.8C302.58,289.56,302.79,289.44,303.04,289.59z"/>
				</g>
			</g>
			<g id="XMLID_306_">
				<g id="XMLID_311_">
					<path id="XMLID_312_" class="st12" d="M249.14,244.88c0.26,0.15,0.46,0.51,0.46,0.8c0,0.3-0.21,0.42-0.46,0.27
						c-0.26-0.15-0.46-0.51-0.46-0.8C248.68,244.85,248.88,244.73,249.14,244.88z"/>
				</g>
				<g id="XMLID_309_">
					<path id="XMLID_310_" class="st12" d="M249.14,251.7c0.26,0.15,0.46,0.51,0.46,0.8c0,0.3-0.21,0.42-0.46,0.27
						c-0.26-0.15-0.46-0.51-0.46-0.8C248.68,251.68,248.88,251.56,249.14,251.7z"/>
				</g>
				<g id="XMLID_307_">
					<path id="XMLID_308_" class="st12" d="M249.14,258.52c0.26,0.15,0.46,0.51,0.46,0.8s-0.21,0.42-0.46,0.27
						c-0.26-0.15-0.46-0.51-0.46-0.8C248.68,258.5,248.88,258.38,249.14,258.52z"/>
				</g>
			</g>
			<g id="XMLID_299_">
				<g id="XMLID_304_">
					<path id="XMLID_305_" class="st12" d="M299.2,295.21c0.22,0.13,0.23,0.34,0,0.47c-0.22,0.13-0.59,0.13-0.81,0
						c-0.23-0.13-0.23-0.34,0-0.47C298.61,295.09,298.97,295.08,299.2,295.21z"/>
				</g>
				<g id="XMLID_302_">
					<path id="XMLID_303_" class="st12" d="M293.27,298.65c0.22,0.13,0.23,0.34,0,0.47c-0.22,0.13-0.59,0.13-0.81,0
						c-0.23-0.13-0.23-0.34,0-0.47C292.68,298.52,293.05,298.52,293.27,298.65z"/>
				</g>
				<g id="XMLID_300_">
					<path id="XMLID_301_" class="st12" d="M287.35,302.09c0.22,0.13,0.23,0.34,0,0.47c-0.22,0.13-0.59,0.13-0.81,0
						c-0.23-0.13-0.23-0.34,0-0.47C286.76,301.96,287.13,301.96,287.35,302.09z"/>
				</g>
			</g>
			<g id="XMLID_292_">
				<g id="XMLID_297_">
					<path id="XMLID_298_" class="st12" d="M245.34,264.14c0.22,0.13,0.23,0.34,0,0.47c-0.22,0.13-0.59,0.13-0.81,0
						c-0.23-0.13-0.23-0.34,0-0.47C244.75,264.01,245.12,264.01,245.34,264.14z"/>
				</g>
				<g id="XMLID_295_">
					<path id="XMLID_296_" class="st12" d="M239.42,267.58c0.22,0.13,0.23,0.34,0,0.47c-0.22,0.13-0.59,0.13-0.81,0
						c-0.23-0.13-0.23-0.34,0-0.47C238.83,267.45,239.19,267.45,239.42,267.58z"/>
				</g>
				<g id="XMLID_293_">
					<path id="XMLID_294_" class="st12" d="M233.49,271.02c0.22,0.13,0.23,0.34,0,0.47c-0.22,0.13-0.59,0.13-0.81,0
						s-0.23-0.34,0-0.47C232.91,270.89,233.27,270.89,233.49,271.02z"/>
				</g>
			</g>
			<g id="XMLID_285_">
				<g id="XMLID_290_">
					<path id="XMLID_291_" class="st12" d="M275.62,260.48c0.26,0.15,0.46,0.51,0.46,0.8s-0.21,0.42-0.46,0.27
						c-0.26-0.15-0.46-0.51-0.46-0.8C275.16,260.45,275.36,260.33,275.62,260.48z"/>
				</g>
				<g id="XMLID_288_">
					<path id="XMLID_289_" class="st12" d="M275.62,267.3c0.26,0.15,0.46,0.51,0.46,0.8c0,0.3-0.21,0.42-0.46,0.27
						c-0.26-0.15-0.46-0.51-0.46-0.8S275.36,267.15,275.62,267.3z"/>
				</g>
				<g id="XMLID_286_">
					<path id="XMLID_287_" class="st12" d="M275.62,274.12c0.26,0.15,0.46,0.51,0.46,0.8s-0.21,0.42-0.46,0.27
						c-0.26-0.15-0.46-0.51-0.46-0.8C275.16,274.09,275.36,273.98,275.62,274.12z"/>
				</g>
			</g>
			<g id="XMLID_278_">
				<g id="XMLID_283_">
					<path id="XMLID_284_" class="st12" d="M271.82,279.74c0.22,0.13,0.23,0.34,0,0.47c-0.22,0.13-0.59,0.13-0.81,0
						c-0.23-0.13-0.23-0.34,0-0.47C271.23,279.61,271.6,279.61,271.82,279.74z"/>
				</g>
				<g id="XMLID_281_">
					<path id="XMLID_282_" class="st12" d="M265.9,283.18c0.22,0.13,0.23,0.34,0,0.47c-0.22,0.13-0.59,0.13-0.81,0
						c-0.23-0.13-0.23-0.34,0-0.47C265.31,283.05,265.67,283.05,265.9,283.18z"/>
				</g>
				<g id="XMLID_279_">
					<path id="XMLID_280_" class="st12" d="M259.98,286.61c0.22,0.13,0.23,0.34,0,0.47c-0.22,0.13-0.59,0.13-0.81,0
						c-0.23-0.13-0.23-0.34,0-0.47C259.39,286.48,259.75,286.48,259.98,286.61z"/>
				</g>
			</g>
		</g>
	</g>
</g>
<g id="Sign">
	<g id="Bus_signal">
		<g id="XMLID_1392_">
			<polygon id="XMLID_1347_" class="st12" points="175.64,207.1 175.64,294.99 173.86,293.96 173.86,206.05 			"/>
			<polygon id="XMLID_1346_" class="st11" points="178.49,205.44 178.49,293.35 175.64,294.99 175.64,207.1 			"/>
			<polygon id="XMLID_1345_" class="st19" points="178.49,205.44 175.64,207.1 173.86,206.05 176.71,204.41 			"/>
		</g>
		<g id="XMLID_1391_">
			<linearGradient id="XMLID_7_" gradientUnits="userSpaceOnUse" x1="168.3122" y1="217.4434" x2="185.5195" y2="247.2474">
				<stop  offset="1.065558e-07" style="stop-color:#459CD1"/>
				<stop  offset="1" style="stop-color:#662D91"/>
			</linearGradient>
			<path id="XMLID_1339_" class="st20" d="M164.5,219.64l24.82-14.33c0.92-0.53,1.67-0.1,1.67,0.96v35.89
				c0,1.06-0.75,2.36-1.67,2.89l-24.82,14.33c-0.92,0.53-1.67,0.1-1.67-0.96l0-35.89C162.84,221.47,163.58,220.17,164.5,219.64z"/>
			<g id="XMLID_1341_">
				<path id="XMLID_1342_" class="st21" d="M187.26,222.24l-1.13,0.65c-0.09,0.05-0.16,0.17-0.16,0.27v2.62l0,0v1.17l-0.49,0.27
					v-8.38c0-1.48-1.04-2.08-2.32-1.34l-12.49,7.21c-1.28,0.74-2.32,2.54-2.32,4.02v8.38l-0.49,0.29v-1.17l0,0v-2.62
					c0-0.1-0.07-0.14-0.16-0.09l-1.13,0.65c-0.09,0.05-0.16,0.17-0.16,0.27v2.4c0,0.37,0.26,0.52,0.58,0.34l0.3-0.17v0.71
					c0,0.35,0.25,0.49,0.55,0.32l0.5-0.29v5.92l-0.07,0.04c-0.35,0.2-0.63,0.69-0.63,1.09V245c0,0.96,0.68,1.35,1.51,0.87l0.31-0.18
					v1.53c0,0.26,0.18,0.37,0.41,0.24l1.95-1.13c0.23-0.13,0.41-0.45,0.41-0.71v-1.53l9.35-5.4v1.53c0,0.26,0.18,0.37,0.41,0.24
					l1.95-1.13c0.23-0.13,0.41-0.45,0.41-0.71v-1.53l0.31-0.18c0.83-0.48,1.51-1.65,1.51-2.61v-0.21c0-0.4-0.28-0.56-0.63-0.36
					l-0.07,0.04v-5.92l0.5-0.29c0.3-0.17,0.55-0.6,0.55-0.95v-0.71l0.3-0.17c0.32-0.19,0.58-0.64,0.58-1.01v-2.4
					C187.41,222.23,187.34,222.19,187.26,222.24z M184.82,229.97c0,0.62-0.43,1.37-0.97,1.68c-0.54,0.31-0.97,0.06-0.97-0.56
					c0-0.62,0.43-1.37,0.97-1.68C184.38,229.1,184.82,229.35,184.82,229.97z M183.49,218.63c0.33-0.19,0.61-0.04,0.61,0.35
					c0,0.39-0.27,0.86-0.61,1.05c-0.33,0.19-0.61,0.04-0.61-0.35C182.88,219.3,183.15,218.83,183.49,218.63z M184.09,222.89v4.1
					c0,0.18-0.13,0.4-0.28,0.49l-6.6,3.81v-6.56l5.04-2.91C183.27,221.24,184.09,221.71,184.09,222.89z M182.13,233.86l-10.42,6.02
					v-0.48l10.42-6.02V233.86z M182.13,231.03v0.56l-10.42,6.02v-0.56L182.13,231.03z M182.13,232.73l-10.42,6.02v-0.48l10.42-6.02
					V232.73z M172.24,225.23c0-0.09,0.06-0.2,0.14-0.24l9.07-5.23c0.08-0.04,0.14-0.01,0.14,0.08v1.18c0,0.09-0.06,0.2-0.14,0.24
					l-9.07,5.23c-0.08,0.04-0.14,0.01-0.14-0.08V225.23z M170.35,226.22c0.33-0.19,0.61-0.04,0.61,0.35c0,0.39-0.27,0.86-0.61,1.05
					c-0.33,0.19-0.61,0.04-0.61-0.35C169.74,226.88,170.01,226.41,170.35,226.22z M169.74,231.17c0-1.18,0.83-2.61,1.84-3.19
					l5.04-2.91v6.56l-6.6,3.81c-0.16,0.09-0.28,0.02-0.28-0.16V231.17z M169.99,237.42c0.54-0.31,0.97-0.06,0.97,0.56
					c0,0.62-0.43,1.37-0.97,1.68c-0.54,0.31-0.97,0.06-0.97-0.56C169.01,238.48,169.45,237.73,169.99,237.42z M172.57,240.58
					c-0.34,0.2-0.64,0.14-0.78-0.12l10.24-5.91c-0.14,0.41-0.43,0.82-0.78,1.01L172.57,240.58z"/>
			</g>
		</g>
	</g>
</g>
<g id="Character">
	<g id="Character_1_">
		<g id="Backpack_1_">
			<linearGradient id="XMLID_8_" gradientUnits="userSpaceOnUse" x1="276.2491" y1="274.9297" x2="259.1826" y2="274.9297">
				<stop  offset="1.065558e-07" style="stop-color:#459CD1"/>
				<stop  offset="1" style="stop-color:#662D91"/>
			</linearGradient>
			<path id="XMLID_167_" class="st22" d="M270.33,286.88c0.7-0.18,4.42-2.29,4.79-2.55c0.38-0.26,1.13-0.79,1.13-1.71
				c0-0.81-0.09-8.47-0.75-12.17c-0.33-1.82-1.51-4.21-3.82-5.64c-2.31-1.43-4.64-2.47-6.6-1.66c-1.96,0.81-3.75,2.31-4.52,4.12
				c-0.77,1.81-1.3,5.43-1.35,6.83c-0.05,1.4,0,6.2,0,6.63c0,0.43,0.08,0.98,2.37,2.4c2.3,1.42,5.47,3.13,6.45,3.57
				C268.78,287.04,269.7,287.04,270.33,286.88z"/>
			<linearGradient id="XMLID_9_" gradientUnits="userSpaceOnUse" x1="271.8733" y1="263.5788" x2="266.039" y2="263.5788">
				<stop  offset="1.065558e-07" style="stop-color:#459CD1"/>
				<stop  offset="1" style="stop-color:#662D91"/>
			</linearGradient>
			<path id="XMLID_166_" class="st23" d="M270.9,265.81c0.21,0.12,0.82-0.18,0.92-0.33c0.09-0.15,0.12-1.47-0.34-2.19
				c-0.46-0.73-3.32-2.06-4.02-1.96c-0.71,0.1-1.22,0.65-1.31,0.84c-0.09,0.19-0.18,1.41,0,1.66c0.18,0.25,0.84-0.13,0.89-0.24
				c0.06-0.11-0.22-1,0.25-1.18c0.42-0.17,2.41,0.68,3.22,1.36c0.35,0.29,0.33,1.03,0.32,1.4
				C270.81,265.51,270.8,265.75,270.9,265.81z"/>
			<path id="XMLID_165_" class="st8" d="M270.9,265.81c0.21,0.12,0.82-0.18,0.92-0.33c0.09-0.15,0.12-1.47-0.34-2.19
				c-0.46-0.73-3.32-2.06-4.02-1.96c-0.71,0.1-1.22,0.65-1.31,0.84c-0.09,0.19-0.18,1.41,0,1.66c0.18,0.25,0.84-0.13,0.89-0.24
				c0.06-0.11-0.22-1,0.25-1.18c0.42-0.17,2.41,0.68,3.22,1.36c0.35,0.29,0.33,1.03,0.32,1.4
				C270.81,265.51,270.8,265.75,270.9,265.81z"/>
			<path id="XMLID_164_" class="st8" d="M271.48,274.44c-0.41-3.98-1.15-6.3-5.04-8.04c-3.89-1.73-5.4-0.26-5.95,1.07
				c-0.73,1.86-1.22,5.28-1.28,6.63c-0.05,1.4,0,6.2,0,6.63c0,0.43,0.08,0.98,2.37,2.4c2.3,1.42,5.47,3.13,6.45,3.57
				c0.75,0.34,1.67,0.34,2.3,0.18c0.1-0.02,0.25-0.09,0.45-0.18C271.99,285.16,271.85,278.07,271.48,274.44z"/>
			<path id="XMLID_163_" class="st8" d="M262.4,264.84c1.01-0.59,2.68-0.99,5.13,0.1c4.38,1.95,5.49,4.39,5.93,8.67
				c0.08,0.78,0.2,1.72,0.25,2.72l0.36-0.22c-0.05-1.08-0.16-2.01-0.25-2.85c-0.47-4.32-1.78-6.7-5.96-8.57
				c-2.31-1.03-3.84-0.9-4.84-0.39C262.83,264.46,262.65,264.61,262.4,264.84z"/>
			<path id="XMLID_162_" class="st9" d="M262.25,264.96c1.01-0.59,2.68-0.99,5.13,0.1c4.38,1.95,5.49,4.39,5.93,8.67
				c0.08,0.78,0.2,1.72,0.25,2.72l0.36-0.22c-0.05-1.08-0.16-2.01-0.25-2.85c-0.47-4.32-1.78-6.7-5.96-8.57
				c-2.31-1.03-3.88-0.86-4.88-0.35C262.64,264.61,262.5,264.72,262.25,264.96z"/>
			<g id="XMLID_156_">
				<path id="XMLID_161_" class="st11" d="M263.67,268.74l1.32-0.75c0.14-0.08,0.31-0.03,0.39,0.11l1.36,2.36
					c0.08,0.14,0.03,0.31-0.1,0.39l-1.31,0.76c-0.13,0.08-0.31,0.03-0.39-0.1l-1.37-2.37C263.49,268.99,263.53,268.82,263.67,268.74
					z"/>
				<path id="XMLID_160_" class="st19" d="M265.09,271.33l-1.3-2.25c-0.04-0.07-0.02-0.15,0.05-0.19l1.2-0.68
					c0.07-0.04,0.15-0.02,0.19,0.05l1.29,2.24c0.04,0.07,0.02,0.15-0.05,0.19l-1.18,0.69C265.21,271.42,265.13,271.39,265.09,271.33
					z"/>
				<g id="XMLID_157_">
					<path id="XMLID_159_" class="st11" d="M264.81,270.25L264.81,270.25c-0.07-0.04-0.13-0.13-0.13-0.2v-1.08
						c0-0.07,0.06-0.09,0.13-0.05l0,0c0.07,0.04,0.13,0.13,0.13,0.2v1.08C264.93,270.27,264.88,270.29,264.81,270.25z"/>
					<path id="XMLID_158_" class="st11" d="M265.51,270.66L265.51,270.66c-0.07-0.04-0.13-0.13-0.13-0.2v-1.08
						c0-0.07,0.06-0.09,0.13-0.05l0,0c0.07,0.04,0.13,0.13,0.13,0.2v1.08C265.63,270.67,265.58,270.7,265.51,270.66z"/>
				</g>
			</g>
			<g id="XMLID_151_">
				<g id="XMLID_154_">
					<path id="XMLID_155_" class="st12" d="M273.48,275.59c0,0-0.23,0.89-0.21,1.27c0,0.09,0.12,0.13,0.15,0.13
						c0.2,0,0.7-0.3,0.74-0.38c0.04-0.08-0.2-1.08-0.2-1.08L273.48,275.59z"/>
				</g>
				<g id="XMLID_152_">
					<circle id="XMLID_153_" class="st12" cx="273.69" cy="275.25" r="0.46"/>
				</g>
			</g>
			<path id="XMLID_150_" class="st8" d="M267.46,262.37c-0.5-0.05-0.98,0-1.1,0.5c-0.12,0.51-0.08,0.96,0,1.03
				c0.26-0.01,0.64-0.24,0.68-0.32c0.06-0.11-0.22-1,0.25-1.18C267.33,262.38,267.38,262.37,267.46,262.37L267.46,262.37z"/>
			<g id="XMLID_144_">
				<linearGradient id="XMLID_10_" gradientUnits="userSpaceOnUse" x1="277.0447" y1="281.1867" x2="272.33" y2="281.1867">
					<stop  offset="1.065558e-07" style="stop-color:#459CD1"/>
					<stop  offset="1" style="stop-color:#662D91"/>
				</linearGradient>
				<path id="XMLID_149_" class="st24" d="M272.6,278.84l2.69-1.57c0.15-0.09,0.34-0.08,0.48,0.03c0.3,0.23,0.77,0.77,1.03,1.89
					c0.39,1.7,0.29,3.96-0.15,4.21l-2.91,1.7c-0.44,0.26-1.05-0.28-1.21-0.47C272.22,284.25,272.29,280.2,272.6,278.84z"/>
				<path id="XMLID_148_" class="st8" d="M272.6,278.84c0,0,0.55,0.45,0.94,2.16c0.39,1.7,0.63,3.85,0.2,4.11s-1.05-0.28-1.21-0.47
					C272.22,284.25,272.29,280.2,272.6,278.84z"/>
				<path id="XMLID_147_" class="st8" d="M275.63,277.56c0.32,0.16,0.86,0.59,1.1,1.74c0.08,0.36-0.05,0.72-0.27,0.88
					c-0.22,0.16-1.23,0.64-1.86,1.01c-0.54,0.32-0.83-0.11-0.95-0.38l0,0c-0.2-0.48-0.38-0.85-0.53-1.14
					c-0.28-0.64-0.52-0.84-0.52-0.84l2.59-1.26C275.33,277.5,275.49,277.49,275.63,277.56z"/>
				<linearGradient id="XMLID_11_" gradientUnits="userSpaceOnUse" x1="276.8871" y1="279.0788" x2="272.5999" y2="279.0788">
					<stop  offset="1.065558e-07" style="stop-color:#459CD1"/>
					<stop  offset="1" style="stop-color:#662D91"/>
				</linearGradient>
				<path id="XMLID_146_" class="st25" d="M275.33,277.25c0.13-0.08,0.3-0.09,0.43-0.02c0.32,0.16,0.86,0.59,1.1,1.74
					c0.08,0.36-0.05,0.72-0.27,0.88c-0.22,0.16-1.23,0.64-1.86,1.01c-0.54,0.32-0.83-0.11-0.95-0.38l0,0
					c-0.66-1.38-1.18-1.65-1.18-1.65L275.33,277.25z"/>
				<path id="XMLID_145_" class="st26" d="M275.33,277.25c0.13-0.08,0.3-0.09,0.43-0.02c0.32,0.16,0.86,0.59,1.1,1.74
					c0.08,0.36-0.05,0.72-0.27,0.88c-0.22,0.16-1.23,0.64-1.86,1.01c-0.54,0.32-0.83-0.11-0.95-0.38l0,0
					c-0.66-1.38-1.18-1.65-1.18-1.65L275.33,277.25z"/>
			</g>
			<polygon id="XMLID_143_" class="st9" points="260.92,275.09 268.91,279.7 268.91,280.17 260.92,275.56 			"/>
			<polygon id="XMLID_141_" class="st8" points="260.92,275.83 268.91,280.45 268.91,280.17 260.92,275.56 			"/>
			<g id="XMLID_136_">
				<g id="XMLID_139_">
					<path id="XMLID_140_" class="st12" d="M269.17,280.37c0,0,0.23,0.89,0.21,1.27c0,0.09-0.12,0.13-0.15,0.13
						c-0.2,0-0.7-0.3-0.74-0.38c-0.04-0.08,0.2-1.08,0.2-1.08L269.17,280.37z"/>
				</g>
				<g id="XMLID_137_">
					<circle id="XMLID_138_" class="st12" cx="268.96" cy="280.03" r="0.46"/>
				</g>
			</g>
		</g>
		<g id="Personaje_1_">
			<g id="XMLID_125_">
				<g id="XMLID_133_">
					<polygon id="XMLID_135_" class="st27" points="277.49,321.73 274.25,321.4 274.92,316.46 278.42,316.79 					"/>
					<path id="XMLID_134_" class="st12" d="M274.52,319.4l0.06-0.44c-0.32,0.12-2.11,3.37-3.2,4.72c-1.13,1.4-2.94,2.57-3.34,3.59
						c-0.42,1.06,2.31,1.73,3.27,1.61c1.12-0.14,3.07-0.83,3.58-1.53c0.51-0.7,0.79-1.75,1.21-2.27c0.42-0.51,2.02-1.59,2.27-2.47
						c0.1-0.34,0.02-1.73-0.12-2.36c-0.12-0.58-0.07-1.21-0.27-1.16l-0.09,0.47c-0.25,0.25-1.02,0.35-1.75,0.35
						C275.67,319.91,274.5,319.76,274.52,319.4z"/>
				</g>
				<g id="XMLID_130_">
					<polygon id="XMLID_132_" class="st27" points="266.54,315.34 263.13,314.99 264.89,309.67 268.51,309.57 					"/>
					<path id="XMLID_131_" class="st12" d="M263.5,313.85c-0.16,0.01-0.41,0.18-0.84,0.55c-0.47,0.42-2.93,1.87-3.62,2.22
						c-1.16,0.58-3.41,1.47-4.42,1.93c-0.64,0.29-0.61,1.05,0.05,1.49c0.66,0.44,2.28,1.36,4.19,0.94c1.04-0.23,4.32-2.01,5.17-1.96
						c0.86,0.05,2.46,0.04,3.09-0.4c0.63-0.44,0.34-1.98,0.16-2.78c-0.19-0.87-0.03-1.8-0.32-1.74l-0.2,0.59
						c-0.37,0.56-3.46,0.12-3.41-0.38L263.5,313.85z"/>
				</g>
				<g id="XMLID_126_">
					<path id="XMLID_129_" class="st11" d="M294.89,286.34c0.68,4.77-0.24,5.69-4.77,10.26c-2.44,2.46-7.6,5.88-7.6,5.88
						s0.47,2.71-0.52,5.98c-1.1,3.61-3.84,9.97-3.84,9.97s-1.81,0.78-3.62-0.14c0,0,0.83-5.31,1.21-9.1
						c0.6-5.99,1.12-8.02,1.39-9.12c0.23-0.98,5.45-6.42,6.51-8.06l-10.54,5.3c0,0-0.05,3.26-0.69,5.01
						c-1.65,4.53-5.13,11.41-5.13,11.41s-2.65,0.27-3.77-0.6c0,0,3.38-16.58,3.8-17.98c0.74-2.45,9.67-8.87,11.5-10.42
						c1.04-0.88,2.21-1.83,2.21-1.83L294.89,286.34z"/>
					<path id="XMLID_128_" class="st12" d="M294.89,286.34l-2.79-0.69l0.08,0.86c0,0,0.22,5.02-3.75,8.93
						c-3.96,3.91-7.34,6.19-7.54,7.04c-0.2,0.85-0.43,8.15-4,16.24c0.75-0.07,1.26-0.29,1.26-0.29s2.74-6.36,3.84-9.97
						c1-3.27,0.52-5.98,0.52-5.98s5.16-3.42,7.6-5.88C294.65,292.04,295.56,291.12,294.89,286.34z"/>
					<path id="XMLID_127_" class="st12" d="M283.63,292.02c0,0-1.57-1.16-2.24-3.2c0,0,0.08,1.37,0.35,2.43
						c0.27,1.06-8.65,6.06-8.65,6.06L283.63,292.02z"/>
				</g>
			</g>
			<g id="XMLID_117_">
				<g id="XMLID_122_">
					<path id="XMLID_124_" class="st27" d="M281.6,273.92c0,0-6.3-6.21-7.45-7.24c-1.19-1.07-3.61-1.75-5.24-1.47
						c-1.63,0.28-1.54,1.52-0.13,2.12c2.31,0.98,3.02,1.88,2.96,1.98c-0.06,0.1-1.67-0.67-2.35-0.28c-0.68,0.38-0.33,0.87,0,0.96
						c0.33,0.09,1.73,0.75,2.48,0.98c0.75,0.23,1.83,0.25,2.87,0.97c1.05,0.72,5.04,6.89,6.73,7.87c1.69,0.98,1.94-5.76,1.94-5.76
						L281.6,273.92z"/>
					<path id="XMLID_123_" class="st28" d="M285.7,264.3c-1.56-0.21-2.72,0.13-3.63,1.53c-0.91,1.41-1.45,7.12-1.45,7.12
						s0.33,1.39,1.38,1.83C283.05,275.23,285.7,264.3,285.7,264.3z"/>
				</g>
				<path id="XMLID_121_" class="st29" d="M294.03,266.96c0,0,1.08,0.89,1.08,3.69v6.05l-0.15,10.18
					c-2.17,2.36-11.91,1.46-14.31-3.68c0,0,0.35-10.87,0.67-13.26c0.44-3.24,1.25-5.57,4.38-5.64l4.77,1.11L294.03,266.96z"/>
				<g id="XMLID_118_">
					<path id="XMLID_120_" class="st27" d="M296.87,296.37c-0.37,0.46-0.82,0.86-1.34,1.12c-0.68,0.33-1.45,0.4-2.2,0.37
						c-0.33-0.01-0.66-0.04-0.96-0.18c-0.23-0.11-0.54-0.34-0.59-0.61c-0.05-0.28,0.24-0.52,0.43-0.67c0.33-0.27,0.62-0.6,0.9-0.92
						c0.14-0.16,0.28-0.32,0.4-0.49c0.15-0.21,0.28-0.44,0.42-0.65c0.08-0.12,0.28-0.45,0.08-0.55c-0.07-0.04-0.16-0.02-0.25-0.01
						c-0.25,0.06-0.49,0.15-0.74,0.2c-0.25,0.05-0.52,0.06-0.76-0.03c-0.11-0.05-0.22-0.12-0.26-0.23c-0.04-0.11,0-0.24,0.07-0.33
						c0.07-0.1,0.16-0.17,0.26-0.24c0.29-0.21,0.57-0.43,0.86-0.64c0.57-0.42,1.25-0.68,1.66-1.29c0.3-0.44,0.37-0.99,0.47-1.5
						c0.33-1.71,0.69-8.44,0.69-8.44l-2.2-7.83c0,0-2.03-4.2,0.22-6.5c1.04,0.48,2.26,0.37,3.59,4.99c0.96,3.31,2.63,7.77,2.63,9.23
						c0,0.52-0.04,1.11-0.18,1.86c-0.61,3.25-1.23,6.04-1.78,9.3c-0.05,0.28-0.04,0.56-0.09,0.83
						C297.86,295.12,297.23,295.91,296.87,296.37z"/>
					<path id="XMLID_119_" class="st28" d="M294.03,266.96c0,0,1.29,0.18,2.08,1.08c0.46,0.52,1.45,2.22,1.99,4.22
						c0.54,2,1.37,4.56,1.37,4.56s-1.7,1.92-4.63,1.67l-1.65-5.38C293.18,273.1,291.63,268.36,294.03,266.96z"/>
				</g>
			</g>
			<g id="XMLID_75_">
				
					<ellipse id="XMLID_116_" transform="matrix(0.2298 -0.9732 0.9732 0.2298 -29.1607 474.6124)" class="st12" cx="285.27" cy="255.73" rx="4.39" ry="4.39"/>
				<g id="XMLID_108_">
					<path id="XMLID_114_" class="st12" d="M292.45,258.35c0,0-0.67,3.16-0.94,3.68c-0.27,0.52-0.83,0.67-0.83,0.67l0.05-2.22
						L292.45,258.35z"/>
					<path id="XMLID_113_" class="st12" d="M291.6,253.82c0,0,0.72-0.12,1.29,0.45c0.55,0.57,0.24,2.34-0.45,4.07l-1.27,0.15
						L291.6,253.82z"/>
					<path id="XMLID_112_" class="st27" d="M290.8,258.49c0.25,0.15,0.62-0.34,0.93-0.66c0.31-0.33,1.34-0.78,1.85,0.3
						c0.52,1.1-0.45,2.54-1.26,2.8c-1.39,0.44-1.6-0.45-1.6-0.45l-0.11,5.01c-1.2,1.34-5.29,1.02-4.52-0.13l0-1.52
						c0,0-1.26,0.19-1.87,0.1c-1.02-0.16-1.66-0.96-1.97-2.07c-0.5-1.77-0.69-3.21-0.26-6.7c0.46-3.83,4.91-3.86,7.31-2.35
						C291.71,254.31,290.8,258.49,290.8,258.49z"/>
					<path id="XMLID_111_" class="st12" d="M290.8,258.92c0.13,0,0.61-0.8,0.93-1.09c0.44-0.4-0.13-4.01-0.13-4.01
						s0.42-0.9-0.42-1.83c-0.6-0.66-1.6-0.73-3.32-1c-0.9-0.14-2.26-0.39-3.16-0.56c-1.07-0.2-1.96-0.41-2.72,0.25
						c-0.59,0.51-0.84,1.42-0.53,2.13c0.07,0.17,0.18,0.32,0.3,0.45c0.22,0.24,0.46,0.43,0.77,0.53c0,0,0.47,0.41,2.09,0.61
						c1.63,0.2,4.16-0.04,4.5-0.09c0.47-0.06,0.57,0.39,0.83,1.64C290.18,257.06,290.37,258.91,290.8,258.92z"/>
					<path id="XMLID_110_" class="st12" d="M291.6,254.1l1.54-0.82c-0.22-0.44-0.74-0.61-1.16-0.38
						C291.55,253.12,291.38,253.66,291.6,254.1z"/>
					<path id="XMLID_109_" class="st30" d="M286.11,263.82c0,0,2.28-0.46,3.07-0.88c0.53-0.28,0.97-0.77,1.1-1.09
						c0,0-0.15,0.68-0.63,1.28c-0.58,0.74-3.55,1.29-3.55,1.29L286.11,263.82z"/>
				</g>
				<g id="XMLID_101_">
					<path id="XMLID_107_" class="st12" d="M286.65,257.93c0,0.26,0.2,0.47,0.46,0.47c0.25,0,0.46-0.21,0.46-0.48
						c0-0.26-0.2-0.47-0.46-0.47C286.86,257.45,286.65,257.66,286.65,257.93z"/>
					<path id="XMLID_106_" class="st12" d="M287.39,256.04l0.98,0.54c0.14-0.28,0.04-0.63-0.23-0.78
						C287.87,255.65,287.53,255.75,287.39,256.04z"/>
					<path id="XMLID_105_" class="st30" d="M286.31,261.08l-1.04,0.39c0.1,0.3,0.42,0.45,0.71,0.35
						C286.27,261.71,286.41,261.38,286.31,261.08z"/>
					<path id="XMLID_104_" class="st12" d="M282.46,256.44l0.89-0.69c-0.18-0.26-0.53-0.31-0.77-0.12
						C282.33,255.82,282.28,256.18,282.46,256.44z"/>
					<path id="XMLID_103_" class="st12" d="M282.86,257.8c0,0.26,0.2,0.47,0.46,0.47c0.25,0,0.46-0.21,0.46-0.48
						c0-0.26-0.2-0.47-0.46-0.47C283.06,257.32,282.86,257.53,282.86,257.8z"/>
					<polygon id="XMLID_102_" class="st30" points="285.11,257.43 285.06,260.2 283.42,259.84 					"/>
				</g>
			</g>
		</g>
	</g>
</g>
<path id="Nube_1_" class="st31" d="M315.68,196.89l3.38,1.95c-0.02-0.15-0.03-0.3-0.03-0.45v-0.98c0-1.74,1.22-2.45,2.73-1.58
	c0.61,0.35,1.17,0.91,1.63,1.56c0.25-2.19,1.96-3,4.05-1.8c2.25,1.3,4.08,4.47,4.08,7.07v1.46c0,0.67-0.12,1.24-0.35,1.69l2.8,1.62
	c0.84,0.48,1.51,1.66,1.51,2.62c0,0.97-0.68,1.36-1.51,0.87l-18.29-10.56c-0.84-0.48-1.51-1.66-1.51-2.62
	C314.17,196.8,314.84,196.41,315.68,196.89z"/>
<g id="XMLID_2329_">
	<g id="XMLID_3199_">
		<g id="XMLID_3244_">
			<g id="XMLID_3332_">
				<g id="XMLID_3334_">
					<g id="XMLID_3341_">
						<g id="XMLID_3994_">
							<path id="XMLID_7801_" class="st9" d="M240.21,166.87l5.9-3.07c0.05-0.03,0.11-0.06,0.16-0.09l0.16-0.09l0.01,0.01
								c1.27-0.59,2.94-0.43,4.79,0.63l18.62,10.6c3.96,2.29,7.17,7.84,7.17,12.41v14.09c0,2.26-0.79,3.85-2.06,4.61l0,0l-0.02,0.01
								c-0.02,0.01-0.04,0.02-0.06,0.03l-7.77,3.99c-0.05,0.33-0.12,0.51-0.33,0.61l-0.07,0.05l-0.02,0.01
								c-0.92,0.5-1.25,0.68-1.25,0.68l-4.44,2.48c0,0-3.36-10.73-3.36-10.9s2.45-3.09,2.45-3.09l4.93,5.41l-3.83-5.81
								c-1.2-1.82-2.69-3.29-4.24-4.19l-8.97-5.18c-3.96-2.29-1.57-4.46-1.57-9.04v-10.44L240.21,166.87z"/>
						</g>
					</g>
				</g>
			</g>
			<g id="XMLID_3311_">
				<g id="XMLID_3328_">
					<g id="XMLID_3329_">
						<g id="XMLID_3331_">
							<g id="XMLID_3993_">
								<polygon id="XMLID_7795_" class="st32" points="241.59,167.32 240.89,166.89 240.98,166.84 								"/>
							</g>
						</g>
					</g>
				</g>
				<g id="XMLID_3312_">
					<g id="XMLID_3324_">
						<g id="XMLID_3325_">
							<g id="XMLID_3992_">
								<path id="XMLID_7790_" class="st32" d="M246.75,181.06c0,4.46-2.45,6.52,1.41,8.75l8.97,5.18c1.58,0.91,3.13,2.44,4.35,4.29
									l3.83,5.81l-0.52,0.41l-4.67-5.13c-0.94,1.12-1.88,2.29-2.11,2.63c0.24,0.85,1.97,6.41,3.2,10.36l0.1-0.06v-5.02l1.1-0.85
									l3.26,1.83l1.47,0.38l3.1-1.6l1.03-2.17l0.16-15.23l-0.67-3.4l5.43-3.19c-1.02-3.59-3.55-7.18-6.51-8.89l-18.62-10.6
									c-1.67-0.96-3.26-1.18-4.48-0.62l-0.19,0.09c-0.04,0.02-0.08,0.04-0.13,0.07l-5.28,2.74l-0.58-0.45l5.53-2.88
									c0.05-0.03,0.1-0.06,0.17-0.09l0.36-0.19l0.02,0.01c1.39-0.56,3.12-0.3,4.91,0.73l18.62,10.6c4.04,2.33,7.33,8.03,7.33,12.7
									v14.09c0,2.23-0.74,3.93-2.08,4.81l-0.18,0.11l-0.04,0.02l-0.02,0.01l-0.03,0.01l-7.59,3.9c-0.05,0.27-0.16,0.54-0.45,0.67
									l-0.21,0.12c-0.71,0.39-1,0.55-1.15,0.62l0,0.01l-4.69,2.62l-0.23-0.33c-3.38-10.78-3.38-10.93-3.38-11
									c0-0.14,0-0.29,2.53-3.3l0.24-0.29l2.32,2.55l-1.49-2.26c-1.17-1.77-2.63-3.22-4.13-4.08l-8.97-5.18
									c-4.04-2.33-1.74-4.65-1.74-9.32V170.8l-4.49-3.49l5.15,3.11V181.06z"/>
							</g>
						</g>
					</g>
				</g>
			</g>
			<g id="XMLID_3298_">
				<g id="XMLID_3307_">
					<g id="XMLID_3309_">
						<g id="XMLID_3989_">
							<linearGradient id="XMLID_12_" gradientUnits="userSpaceOnUse" x1="267.5914" y1="210.0376" x2="242.0497" y2="165.7982">
								<stop  offset="1.065558e-07" style="stop-color:#459CD1"/>
								<stop  offset="0.1569" style="stop-color:#4796CD"/>
								<stop  offset="0.3703" style="stop-color:#4C84C3"/>
								<stop  offset="0.616" style="stop-color:#5468B3"/>
								<stop  offset="0.8841" style="stop-color:#60409C"/>
								<stop  offset="1" style="stop-color:#662D91"/>
							</linearGradient>
							<path id="XMLID_7784_" class="st33" d="M245.48,167.25l18.62,10.6c3.96,2.29,7.17,7.84,7.17,12.41v14.09
								c0,4.57-3.21,6.42-7.17,4.14l-1.19-0.69c-0.92-0.53-1.67-0.1-1.67,0.97v4.33c0,1.26-1.26,1.22-2.11-0.06l-6.03-9.16
								c-1.2-1.82-2.69-3.29-4.24-4.19l-3.37-1.8c-3.96-2.29-7.17-7.84-7.17-12.41v-14.09
								C238.31,166.81,241.52,164.96,245.48,167.25z"/>
						</g>
					</g>
				</g>
			</g>
			<g id="XMLID_3983_">
				<g id="XMLID_3988_">
					<path id="XMLID_7778_" class="st9" d="M263.99,177.69l-18.62-10.6c-0.93-0.53-1.81-0.83-2.62-0.93
						c-1.4,0.7-2.28,2.34-2.28,4.73v14.09c0,4.57,3.21,10.13,7.17,12.41l3.37,1.8c1.54,0.89,3.04,2.37,4.24,4.19l5.88,8.92v-3.69
						c0-1.07,0.75-1.5,1.67-0.97l0.62,0.36c0,0,1.06,0.86,1.91,1.34h2.19c0.93,0.53,0.55-0.52,1.36-0.42
						c1.4-0.7,2.28-2.34,2.28-4.73v-14.09C271.16,185.54,267.95,179.98,263.99,177.69z"/>
				</g>
			</g>
			<g id="XMLID_3295_">
				<g id="XMLID_3296_">
					<g id="XMLID_3297_">
						<g id="XMLID_3987_">
							<path id="XMLID_7775_" class="st34" d="M245.31,169.19c-1.75-1.01-3.35-1.21-4.6-0.72l5.55-2.89l0.01,0.01
								c1.27-0.59,2.94-0.43,4.79,0.63l18.62,10.6c1.4,0.81,2.7,2.03,3.8,3.46l-5.58,3.19c-1.14-1.53-2.5-2.83-3.97-3.68
								L245.31,169.19z"/>
						</g>
					</g>
				</g>
			</g>
			<g id="XMLID_3245_">
				<g id="XMLID_3246_">
					<g id="XMLID_3247_">
						<g id="XMLID_4622_">
							<path id="XMLID_7691_" class="st32" d="M258.85,213.21l-6.03-9.16c-1.16-1.77-2.63-3.22-4.12-4.08l-3.37-1.8
								c-4.04-2.33-7.33-8.03-7.33-12.7v-14.09c0-2.33,0.8-4.08,2.27-4.93c1.46-0.84,3.38-0.67,5.4,0.5l18.62,10.6
								c4.04,2.33,7.33,8.03,7.33,12.7v14.09c0,2.33-0.8,4.08-2.27,4.93c-1.46,0.84-3.38,0.66-5.4-0.5l-1.19-0.69
								c-0.34-0.19-0.64-0.24-0.85-0.12c-0.21,0.12-0.32,0.41-0.32,0.79v4.33c0,0.62-0.28,1.07-0.74,1.21
								c-0.1,0.03-0.2,0.04-0.3,0.04C259.95,214.34,259.32,213.92,258.85,213.21z M263.07,207.51l1.19,0.69
								c1.81,1.04,3.49,1.22,4.74,0.5c1.25-0.72,1.93-2.27,1.93-4.35v-14.09c0-4.46-3.14-9.9-7-12.13l-18.62-10.6
								c-1.81-1.04-3.49-1.22-4.74-0.5c-1.25,0.72-1.93,2.27-1.93,4.35v14.09c0,4.46,3.14,9.9,7,12.13l3.37,1.8
								c1.58,0.91,3.13,2.44,4.35,4.29l6.03,9.16c0.42,0.64,0.95,0.9,1.23,0.82c0.23-0.07,0.27-0.39,0.27-0.57v-4.33
								c0-0.64,0.23-1.13,0.66-1.37c0.18-0.1,0.38-0.16,0.6-0.16C262.45,207.23,262.76,207.33,263.07,207.51z"/>
						</g>
					</g>
				</g>
			</g>
		</g>
		<g id="XMLID_3208_">
			<g id="XMLID_3227_">
				<g id="XMLID_3228_">
					<g id="XMLID_3985_">
						<ellipse id="XMLID_7682_" class="st32" cx="259.67" cy="173.11" rx="0.52" ry="0.3"/>
					</g>
				</g>
			</g>
			<g id="XMLID_3225_">
				<g id="XMLID_3226_">
					<g id="XMLID_3984_">
						<path id="XMLID_7677_" class="st32" d="M258.11,171.79c0.2,0.12,0.2,0.31,0,0.43c-0.2,0.12-0.53,0.12-0.74,0
							c-0.2-0.12-0.2-0.31,0-0.43C257.58,171.67,257.91,171.67,258.11,171.79z"/>
					</g>
				</g>
			</g>
			<g id="XMLID_3223_">
				<g id="XMLID_3224_">
					<g id="XMLID_3982_">
						<path id="XMLID_7672_" class="st32" d="M256.18,170.67c0.2,0.12,0.2,0.31,0,0.43c-0.2,0.12-0.53,0.12-0.74,0
							c-0.2-0.12-0.2-0.31,0-0.43C255.65,170.55,255.98,170.55,256.18,170.67z"/>
					</g>
				</g>
			</g>
			<g id="XMLID_3221_">
				<g id="XMLID_3222_">
					<g id="XMLID_3450_">
						<path id="XMLID_6163_" class="st32" d="M254.25,169.56c0.2,0.12,0.2,0.31,0,0.43c-0.2,0.12-0.53,0.12-0.74,0
							c-0.2-0.12-0.2-0.31,0-0.43C253.72,169.44,254.05,169.44,254.25,169.56z"/>
					</g>
				</g>
			</g>
			<g id="XMLID_3219_">
				<g id="XMLID_3220_">
					<g id="XMLID_3449_">
						<path id="XMLID_6159_" class="st32" d="M252.32,168.44c0.2,0.12,0.2,0.31,0,0.43c-0.2,0.12-0.53,0.12-0.74,0
							c-0.2-0.12-0.2-0.31,0-0.43C251.79,168.33,252.12,168.33,252.32,168.44z"/>
					</g>
				</g>
			</g>
			<g id="XMLID_3217_">
				<g id="XMLID_3218_">
					<g id="XMLID_3448_">
						<path id="XMLID_6154_" class="st32" d="M250.38,167.32c0.2,0.12,0.2,0.31,0,0.43c-0.2,0.12-0.53,0.12-0.74,0
							c-0.2-0.12-0.2-0.31,0-0.43C249.84,167.2,250.17,167.2,250.38,167.32z"/>
					</g>
				</g>
			</g>
			<g id="XMLID_3212_">
				<g id="XMLID_3216_">
					<g id="XMLID_3445_">
						<path id="XMLID_6150_" class="st32" d="M248.45,166.2c0.2,0.12,0.2,0.31,0,0.43c-0.2,0.12-0.53,0.12-0.74,0
							c-0.2-0.12-0.2-0.31,0-0.43C247.91,166.09,248.24,166.09,248.45,166.2z"/>
					</g>
				</g>
			</g>
		</g>
	</g>
	<g id="XMLID_3439_">
		<g id="XMLID_53_">
			<path id="XMLID_115_" class="st32" d="M247.37,201.1c-4.33-1.26-7.9-5.59-8.1-5.96l0.52-0.29c0.02,0.04,3.44,4.42,7.74,5.67
				L247.37,201.1z"/>
		</g>
	</g>
</g>
<g>
	<g>
		<g class="st35">
			<g class="st35">
				<defs>
					<path id="SVGID_4_" class="st35" d="M242.33,180.08l0.35-0.2c-0.13,0.07-0.24,0.18-0.33,0.31c-0.19,0.26-0.28,0.63-0.28,1.08
						c0,0.67,0.19,1.36,0.6,2.06c0.41,0.7,0.9,1.22,1.47,1.55c0.38,0.22,0.73,0.31,1.06,0.29c0.17-0.01,0.32-0.05,0.45-0.13
						l-0.35,0.2c-0.13,0.07-0.28,0.12-0.45,0.13c-0.33,0.02-0.68-0.07-1.06-0.29c-0.57-0.33-1.07-0.85-1.47-1.55
						c-0.41-0.7-0.6-1.38-0.6-2.06c0-0.45,0.09-0.82,0.28-1.08C242.1,180.26,242.21,180.15,242.33,180.08z"/>
				</defs>
				<clipPath id="SVGID_5_">
					<use xlink:href="#SVGID_4_"  style="overflow:visible;"/>
				</clipPath>
				<g class="st36">
					<path class="st37" d="M242.33,180.08l0.35-0.2c-0.13,0.07-0.24,0.18-0.33,0.31c-0.01,0.02-0.02,0.03-0.04,0.05l-0.35,0.2
						c0.01-0.02,0.02-0.04,0.04-0.05C242.1,180.26,242.21,180.15,242.33,180.08"/>
					<path class="st38" d="M241.97,180.44l0.35-0.2c-0.03,0.04-0.05,0.09-0.07,0.13l-0.35,0.2
						C241.92,180.53,241.94,180.48,241.97,180.44"/>
					<path class="st39" d="M241.89,180.57l0.35-0.2c-0.02,0.04-0.03,0.08-0.05,0.12l-0.35,0.2
						C241.86,180.65,241.88,180.61,241.89,180.57"/>
					<path class="st40" d="M241.85,180.69l0.35-0.2c-0.01,0.04-0.02,0.07-0.04,0.11l-0.35,0.2
						C241.82,180.76,241.83,180.72,241.85,180.69"/>
					<path class="st41" d="M241.81,180.8l0.35-0.2c-0.01,0.03-0.02,0.07-0.03,0.11l-0.35,0.2
						C241.79,180.87,241.8,180.83,241.81,180.8"/>
					<path class="st42" d="M241.78,180.9l0.35-0.2c-0.01,0.03-0.01,0.07-0.02,0.11l-0.35,0.2
						C241.77,180.97,241.78,180.94,241.78,180.9"/>
					<path class="st43" d="M241.76,181.01l0.35-0.2c-0.01,0.04-0.01,0.07-0.02,0.11l-0.35,0.2
						C241.75,181.08,241.76,181.04,241.76,181.01"/>
					<path class="st44" d="M241.75,181.12l0.35-0.2c0,0.04-0.01,0.07-0.01,0.11l-0.35,0.2
						C241.74,181.19,241.74,181.15,241.75,181.12"/>
					<path class="st45" d="M241.73,181.23l0.35-0.2c0,0.04-0.01,0.08-0.01,0.11l-0.35,0.2C241.73,181.3,241.73,181.27,241.73,181.23
						"/>
					<path class="st46" d="M241.73,181.34l0.35-0.2c0,0.04,0,0.08,0,0.12l-0.35,0.2C241.73,181.42,241.73,181.38,241.73,181.34"/>
					<path class="st47" d="M241.72,181.46l0.35-0.2c0,0,0,0,0,0.01c0,0.04,0,0.08,0,0.11l-0.35,0.2
						C241.73,181.55,241.72,181.51,241.72,181.46C241.72,181.47,241.72,181.47,241.72,181.46"/>
					<path class="st48" d="M241.73,181.58l0.35-0.2c0,0.04,0,0.08,0.01,0.12l-0.35,0.2C241.73,181.66,241.73,181.62,241.73,181.58"
						/>
					<path class="st49" d="M241.73,181.7l0.35-0.2c0,0.04,0.01,0.07,0.01,0.11l-0.35,0.2C241.74,181.77,241.73,181.74,241.73,181.7"
						/>
					<path class="st50" d="M241.74,181.81l0.35-0.2c0,0.04,0.01,0.07,0.01,0.11l-0.35,0.2
						C241.75,181.88,241.74,181.85,241.74,181.81"/>
					<path class="st51" d="M241.75,181.92l0.35-0.2c0,0.04,0.01,0.07,0.02,0.11l-0.35,0.2
						C241.76,181.99,241.76,181.95,241.75,181.92"/>
					<path class="st52" d="M241.77,182.03l0.35-0.2c0.01,0.04,0.01,0.07,0.02,0.11l-0.35,0.2
						C241.78,182.1,241.77,182.06,241.77,182.03"/>
					<path class="st53" d="M241.79,182.13l0.35-0.2c0.01,0.04,0.01,0.07,0.02,0.11l-0.35,0.2
						C241.8,182.2,241.79,182.17,241.79,182.13"/>
					<path class="st54" d="M241.81,182.24l0.35-0.2c0.01,0.03,0.02,0.07,0.02,0.1l-0.35,0.2
						C241.82,182.31,241.82,182.27,241.81,182.24"/>
					<path class="st55" d="M241.83,182.34l0.35-0.2c0.01,0.03,0.02,0.07,0.03,0.1l-0.35,0.2
						C241.85,182.41,241.84,182.38,241.83,182.34"/>
					<path class="st56" d="M241.86,182.45l0.35-0.2c0.01,0.03,0.02,0.07,0.03,0.1l-0.35,0.2
						C241.88,182.51,241.87,182.48,241.86,182.45"/>
					<path class="st57" d="M241.89,182.55l0.35-0.2c0.01,0.03,0.02,0.07,0.03,0.1l-0.35,0.2
						C241.91,182.61,241.9,182.58,241.89,182.55"/>
					<path class="st58" d="M241.92,182.65l0.35-0.2c0.01,0.03,0.02,0.06,0.03,0.1l-0.35,0.2
						C241.94,182.71,241.93,182.68,241.92,182.65"/>
					<path class="st59" d="M241.95,182.74l0.35-0.2c0.01,0.03,0.02,0.06,0.04,0.09l-0.35,0.2
						C241.98,182.81,241.97,182.78,241.95,182.74"/>
					<path class="st60" d="M241.99,182.84l0.35-0.2c0.01,0.03,0.02,0.06,0.04,0.09l-0.35,0.2C242.01,182.9,242,182.87,241.99,182.84
						"/>
					<path class="st61" d="M242.03,182.93l0.35-0.2c0.01,0.03,0.03,0.06,0.04,0.09l-0.35,0.2
						C242.05,182.99,242.04,182.96,242.03,182.93"/>
					<path class="st62" d="M242.07,183.03l0.35-0.2c0.01,0.03,0.03,0.06,0.04,0.1l-0.35,0.2
						C242.1,183.09,242.08,183.06,242.07,183.03"/>
					<path class="st63" d="M242.11,183.12l0.35-0.2c0.02,0.03,0.03,0.07,0.05,0.1l-0.35,0.2
						C242.14,183.19,242.13,183.16,242.11,183.12"/>
					<path class="st64" d="M242.16,183.22l0.35-0.2c0.02,0.04,0.04,0.08,0.06,0.12l-0.35,0.2
						C242.2,183.31,242.18,183.27,242.16,183.22"/>
					<path class="st65" d="M242.22,183.35l0.35-0.2c0.03,0.06,0.06,0.12,0.1,0.18l-0.35,0.2
						C242.29,183.47,242.26,183.41,242.22,183.35"/>
					<path class="st66" d="M242.32,183.53l0.35-0.2c0,0,0,0,0,0c0.07,0.11,0.13,0.22,0.2,0.32l-0.35,0.2
						C242.46,183.75,242.39,183.64,242.32,183.53C242.33,183.53,242.32,183.53,242.32,183.53"/>
					<path class="st65" d="M242.53,183.85l0.35-0.2c0.04,0.06,0.08,0.12,0.12,0.17l-0.35,0.2
						C242.61,183.97,242.57,183.91,242.53,183.85"/>
					<path class="st64" d="M242.65,184.03l0.35-0.2c0.03,0.04,0.06,0.08,0.09,0.11l-0.35,0.2
						C242.71,184.1,242.68,184.06,242.65,184.03"/>
					<path class="st63" d="M242.74,184.14l0.35-0.2c0.03,0.03,0.05,0.06,0.08,0.1l-0.35,0.2
						C242.79,184.2,242.76,184.17,242.74,184.14"/>
					<path class="st62" d="M242.81,184.23l0.35-0.2c0.02,0.03,0.05,0.06,0.08,0.09l-0.35,0.2
						C242.86,184.29,242.84,184.26,242.81,184.23"/>
					<path class="st61" d="M242.89,184.32l0.35-0.2c0.03,0.03,0.05,0.06,0.08,0.08l-0.35,0.2
						C242.94,184.38,242.92,184.35,242.89,184.32"/>
					<path class="st60" d="M242.97,184.41l0.35-0.2c0.03,0.03,0.05,0.06,0.08,0.08l-0.35,0.2
						C243.02,184.46,242.99,184.43,242.97,184.41"/>
					<path class="st59" d="M243.05,184.49l0.35-0.2c0.03,0.03,0.06,0.06,0.08,0.08l-0.35,0.2
						C243.1,184.54,243.07,184.52,243.05,184.49"/>
					<path class="st58" d="M243.13,184.57l0.35-0.2c0.03,0.03,0.06,0.05,0.09,0.08l-0.35,0.2
						C243.19,184.63,243.16,184.6,243.13,184.57"/>
					<path class="st57" d="M243.22,184.65l0.35-0.2c0.03,0.03,0.06,0.05,0.09,0.08l-0.35,0.2
						C243.28,184.71,243.25,184.68,243.22,184.65"/>
					<path class="st56" d="M243.31,184.73l0.35-0.2c0.03,0.03,0.06,0.05,0.09,0.07l-0.35,0.2
						C243.37,184.78,243.34,184.76,243.31,184.73"/>
					<path class="st55" d="M243.4,184.81l0.35-0.2c0.03,0.02,0.06,0.05,0.09,0.07l-0.35,0.2
						C243.46,184.85,243.43,184.83,243.4,184.81"/>
					<path class="st54" d="M243.49,184.88l0.35-0.2c0.03,0.02,0.06,0.04,0.09,0.07l-0.35,0.2
						C243.55,184.92,243.52,184.9,243.49,184.88"/>
					<path class="st53" d="M243.58,184.94l0.35-0.2c0.03,0.02,0.06,0.04,0.09,0.06l-0.35,0.2
						C243.65,184.99,243.62,184.96,243.58,184.94"/>
					<path class="st52" d="M243.68,185.01l0.35-0.2c0.03,0.02,0.06,0.04,0.1,0.06l-0.35,0.2
						C243.74,185.05,243.71,185.03,243.68,185.01"/>
					<path class="st51" d="M243.78,185.07l0.35-0.2c0.01,0,0.02,0.01,0.02,0.01c0.02,0.01,0.05,0.03,0.07,0.04l-0.35,0.2
						c-0.02-0.01-0.05-0.03-0.07-0.04C243.79,185.07,243.78,185.07,243.78,185.07"/>
					<path class="st50" d="M243.87,185.12l0.35-0.2c0.03,0.02,0.06,0.03,0.09,0.05l-0.35,0.2
						C243.93,185.15,243.9,185.13,243.87,185.12"/>
					<path class="st49" d="M243.96,185.16l0.35-0.2c0.03,0.01,0.06,0.03,0.09,0.04l-0.35,0.2
						C244.02,185.19,243.99,185.18,243.96,185.16"/>
					<path class="st48" d="M244.05,185.21l0.35-0.2c0.03,0.01,0.06,0.02,0.08,0.04l-0.35,0.2
						C244.1,185.23,244.07,185.22,244.05,185.21"/>
					<path class="st47" d="M244.13,185.24l0.35-0.2c0.03,0.01,0.06,0.02,0.08,0.03l-0.35,0.2
						C244.19,185.26,244.16,185.25,244.13,185.24"/>
					<path class="st46" d="M244.21,185.27l0.35-0.2c0.03,0.01,0.06,0.02,0.08,0.03l-0.35,0.2
						C244.27,185.29,244.24,185.28,244.21,185.27"/>
					<path class="st45" d="M244.3,185.3l0.35-0.2c0.03,0.01,0.06,0.02,0.09,0.02l-0.35,0.2C244.36,185.32,244.33,185.31,244.3,185.3
						"/>
					<path class="st44" d="M244.38,185.32l0.35-0.2c0.03,0.01,0.06,0.01,0.09,0.02l-0.35,0.2
						C244.44,185.34,244.41,185.33,244.38,185.32"/>
					<path class="st43" d="M244.47,185.34l0.35-0.2c0.03,0.01,0.06,0.01,0.09,0.01l-0.35,0.2
						C244.53,185.35,244.5,185.35,244.47,185.34"/>
					<path class="st42" d="M244.56,185.36l0.35-0.2c0.03,0,0.06,0.01,0.1,0.01l-0.35,0.2C244.63,185.37,244.59,185.36,244.56,185.36
						"/>
					<path class="st41" d="M244.66,185.37l0.35-0.2c0.03,0,0.07,0,0.1,0l-0.35,0.2C244.73,185.37,244.69,185.37,244.66,185.37"/>
					<path class="st40" d="M244.76,185.37l0.35-0.2c0.03,0,0.07,0,0.1,0c0.01,0,0.02,0,0.03,0l-0.35,0.2c-0.01,0-0.02,0-0.03,0
						C244.83,185.37,244.79,185.37,244.76,185.37"/>
					<path class="st39" d="M244.89,185.37l0.35-0.2c0.04,0,0.08-0.01,0.12-0.02l-0.35,0.2
						C244.97,185.36,244.93,185.36,244.89,185.37"/>
					<path class="st38" d="M245.01,185.35l0.35-0.2c0.05-0.01,0.09-0.02,0.14-0.04l-0.35,0.2
						C245.1,185.33,245.06,185.34,245.01,185.35"/>
					<path class="st37" d="M245.15,185.31l0.35-0.2c0.06-0.02,0.11-0.04,0.16-0.07l-0.35,0.2
						C245.26,185.27,245.2,185.29,245.15,185.31"/>
				</g>
			</g>
			<g class="st35">
				<defs>
					<path id="SVGID_6_" class="st35" d="M245.67,181.6l0.35-0.2c0.5,0.86,0.75,1.71,0.75,2.56c0,0.83-0.25,1.39-0.76,1.68
						l-0.35,0.2c0.51-0.29,0.76-0.85,0.76-1.68C246.42,183.31,246.17,182.47,245.67,181.6z"/>
				</defs>
				<clipPath id="SVGID_7_">
					<use xlink:href="#SVGID_6_"  style="overflow:visible;"/>
				</clipPath>
				<g class="st67">
					<path class="st65" d="M245.67,181.6l0.35-0.2c0.04,0.08,0.09,0.15,0.13,0.23l-0.35,0.2
						C245.76,181.75,245.71,181.68,245.67,181.6"/>
					<path class="st64" d="M245.8,181.83l0.35-0.2c0.03,0.05,0.05,0.1,0.08,0.15l-0.35,0.2
						C245.85,181.93,245.82,181.88,245.8,181.83"/>
					<path class="st63" d="M245.88,181.98l0.35-0.2c0.02,0.04,0.04,0.09,0.06,0.13l-0.35,0.2
						C245.92,182.07,245.9,182.03,245.88,181.98"/>
					<path class="st62" d="M245.94,182.11l0.35-0.2c0.02,0.04,0.04,0.08,0.05,0.12l-0.35,0.2
						C245.97,182.19,245.96,182.15,245.94,182.11"/>
					<path class="st61" d="M245.99,182.23l0.35-0.2c0.02,0.04,0.03,0.08,0.05,0.12l-0.35,0.2
						C246.03,182.31,246.01,182.27,245.99,182.23"/>
					<path class="st60" d="M246.04,182.35l0.35-0.2c0.02,0.04,0.03,0.08,0.05,0.12l-0.35,0.2
						C246.07,182.42,246.06,182.39,246.04,182.35"/>
					<path class="st59" d="M246.09,182.46l0.35-0.2c0.02,0.04,0.03,0.08,0.04,0.12l-0.35,0.2
						C246.12,182.54,246.1,182.5,246.09,182.46"/>
					<path class="st58" d="M246.13,182.58l0.35-0.2c0.01,0.04,0.03,0.08,0.04,0.12l-0.35,0.2
						C246.16,182.66,246.15,182.62,246.13,182.58"/>
					<path class="st57" d="M246.17,182.7l0.35-0.2c0.01,0.04,0.03,0.08,0.04,0.12l-0.35,0.2
						C246.2,182.78,246.19,182.74,246.17,182.7"/>
					<path class="st56" d="M246.21,182.83l0.35-0.2c0.01,0.04,0.03,0.08,0.04,0.13l-0.35,0.2
						C246.24,182.91,246.23,182.87,246.21,182.83"/>
					<path class="st55" d="M246.25,182.95l0.35-0.2c0.01,0.04,0.02,0.09,0.03,0.13l-0.35,0.2
						C246.27,183.04,246.26,182.99,246.25,182.95"/>
					<path class="st54" d="M246.29,183.08l0.35-0.2c0.01,0.04,0.02,0.09,0.03,0.13l-0.35,0.2
						C246.31,183.17,246.3,183.12,246.29,183.08"/>
					<path class="st53" d="M246.32,183.21l0.35-0.2c0.01,0.04,0.02,0.09,0.03,0.13l-0.35,0.2
						C246.33,183.3,246.32,183.25,246.32,183.21"/>
					<path class="st52" d="M246.34,183.34l0.35-0.2c0.01,0.04,0.02,0.09,0.02,0.13l-0.35,0.2
						C246.36,183.43,246.35,183.38,246.34,183.34"/>
					<path class="st51" d="M246.36,183.47l0.35-0.2c0.01,0.04,0.01,0.09,0.02,0.13l-0.35,0.2
						C246.38,183.56,246.37,183.51,246.36,183.47"/>
					<path class="st50" d="M246.38,183.6l0.35-0.2c0.01,0.04,0.01,0.09,0.01,0.13l-0.35,0.2
						C246.39,183.69,246.39,183.65,246.38,183.6"/>
					<path class="st49" d="M246.4,183.74l0.35-0.2c0,0.05,0.01,0.09,0.01,0.14l-0.35,0.2C246.41,183.83,246.4,183.78,246.4,183.74"
						/>
					<path class="st48" d="M246.41,183.87l0.35-0.2c0,0.05,0.01,0.1,0.01,0.14l-0.35,0.2C246.41,183.97,246.41,183.92,246.41,183.87
						"/>
					<path class="st47" d="M246.42,184.02l0.35-0.2c0,0.05,0,0.09,0,0.14c0,0,0,0.01,0,0.01l-0.35,0.2c0,0,0-0.01,0-0.01
						C246.42,184.11,246.42,184.06,246.42,184.02"/>
					<path class="st46" d="M246.42,184.17l0.35-0.2c0,0.05,0,0.1,0,0.14l-0.35,0.2C246.42,184.26,246.42,184.21,246.42,184.17"/>
					<path class="st45" d="M246.41,184.31l0.35-0.2c0,0.05,0,0.09-0.01,0.14l-0.35,0.2C246.41,184.4,246.41,184.36,246.41,184.31"/>
					<path class="st44" d="M246.41,184.45l0.35-0.2c0,0.04-0.01,0.09-0.01,0.13l-0.35,0.2C246.4,184.53,246.4,184.49,246.41,184.45"
						/>
					<path class="st43" d="M246.39,184.58l0.35-0.2c-0.01,0.04-0.01,0.09-0.02,0.13l-0.35,0.2
						C246.38,184.66,246.39,184.62,246.39,184.58"/>
					<path class="st42" d="M246.37,184.71l0.35-0.2c-0.01,0.04-0.02,0.08-0.03,0.13l-0.35,0.2
						C246.36,184.79,246.37,184.75,246.37,184.71"/>
					<path class="st41" d="M246.35,184.83l0.35-0.2c-0.01,0.04-0.02,0.09-0.03,0.13l-0.35,0.2
						C246.33,184.92,246.34,184.87,246.35,184.83"/>
					<path class="st40" d="M246.32,184.96l0.35-0.2c-0.01,0.04-0.03,0.09-0.04,0.13l-0.35,0.2
						C246.29,185.05,246.3,185,246.32,184.96"/>
					<path class="st39" d="M246.27,185.09l0.35-0.2c-0.02,0.05-0.04,0.1-0.06,0.14l-0.35,0.2
						C246.23,185.18,246.25,185.14,246.27,185.09"/>
					<path class="st38" d="M246.21,185.23l0.35-0.2c-0.03,0.06-0.06,0.11-0.09,0.16l-0.35,0.2
						C246.16,185.34,246.19,185.29,246.21,185.23"/>
					<path class="st37" d="M246.12,185.39l0.35-0.2c-0.12,0.19-0.27,0.33-0.47,0.44l-0.35,0.2
						C245.85,185.73,246,185.58,246.12,185.39"/>
				</g>
			</g>
			<g class="st35">
				<defs>
					<path id="SVGID_8_" class="st35" d="M241.97,179.47l0.35-0.2c0.16-0.09,0.34-0.15,0.54-0.16c0.4-0.04,0.82,0.08,1.28,0.34
						c0.75,0.43,1.38,1.08,1.88,1.95l-0.35,0.2c-0.5-0.87-1.13-1.52-1.88-1.95c-0.46-0.27-0.89-0.38-1.28-0.34
						C242.3,179.32,242.12,179.38,241.97,179.47z"/>
				</defs>
				<clipPath id="SVGID_9_">
					<use xlink:href="#SVGID_8_"  style="overflow:visible;"/>
				</clipPath>
				<g class="st68">
					<path class="st37" d="M241.97,179.47l0.35-0.2c0.06-0.04,0.13-0.07,0.2-0.09l-0.35,0.2
						C242.1,179.4,242.03,179.43,241.97,179.47"/>
					<path class="st38" d="M242.17,179.37l0.35-0.2c0.06-0.02,0.11-0.03,0.17-0.05l-0.35,0.2
						C242.28,179.34,242.23,179.35,242.17,179.37"/>
					<path class="st39" d="M242.34,179.33l0.35-0.2c0.05-0.01,0.11-0.02,0.16-0.02c0,0,0,0,0,0l-0.35,0.2c0,0,0,0,0,0
						C242.45,179.31,242.39,179.32,242.34,179.33"/>
					<path class="st40" d="M242.51,179.3l0.35-0.2c0.04,0,0.09-0.01,0.14-0.01l-0.35,0.2C242.6,179.3,242.55,179.3,242.51,179.3"/>
					<path class="st41" d="M242.64,179.3l0.35-0.2c0.04,0,0.08,0,0.12,0l-0.35,0.2C242.72,179.3,242.68,179.3,242.64,179.3"/>
					<path class="st42" d="M242.76,179.3l0.35-0.2c0.04,0,0.08,0.01,0.11,0.01l-0.35,0.2C242.84,179.31,242.8,179.31,242.76,179.3"
						/>
					<path class="st43" d="M242.88,179.31l0.35-0.2c0.04,0,0.07,0.01,0.11,0.02l-0.35,0.2
						C242.95,179.32,242.91,179.32,242.88,179.31"/>
					<path class="st44" d="M242.98,179.33l0.35-0.2c0.03,0.01,0.07,0.01,0.1,0.02l-0.35,0.2
						C243.05,179.35,243.02,179.34,242.98,179.33"/>
					<path class="st45" d="M243.09,179.35l0.35-0.2c0.03,0.01,0.07,0.02,0.1,0.03l-0.35,0.2
						C243.16,179.37,243.12,179.36,243.09,179.35"/>
					<path class="st46" d="M243.19,179.38l0.35-0.2c0.03,0.01,0.07,0.02,0.1,0.03l-0.35,0.2
						C243.26,179.4,243.22,179.39,243.19,179.38"/>
					<path class="st47" d="M243.29,179.42l0.35-0.2c0.03,0.01,0.07,0.02,0.1,0.04l-0.35,0.2
						C243.36,179.44,243.32,179.43,243.29,179.42"/>
					<path class="st48" d="M243.39,179.45l0.35-0.2c0.03,0.01,0.07,0.03,0.1,0.04l-0.35,0.2
						C243.46,179.48,243.42,179.47,243.39,179.45"/>
					<path class="st49" d="M243.49,179.5l0.35-0.2c0.03,0.02,0.07,0.03,0.1,0.05l-0.35,0.2
						C243.56,179.53,243.53,179.51,243.49,179.5"/>
					<path class="st50" d="M243.6,179.55l0.35-0.2c0.04,0.02,0.07,0.04,0.11,0.06l-0.35,0.2
						C243.67,179.58,243.63,179.56,243.6,179.55"/>
					<path class="st51" d="M243.7,179.6l0.35-0.2c0.03,0.02,0.06,0.03,0.09,0.05c0.01,0.01,0.02,0.01,0.03,0.02l-0.35,0.2
						c-0.01-0.01-0.02-0.01-0.03-0.02C243.76,179.63,243.73,179.62,243.7,179.6"/>
					<path class="st52" d="M243.82,179.67l0.35-0.2c0.05,0.03,0.09,0.05,0.13,0.08l-0.35,0.2
						C243.91,179.72,243.87,179.69,243.82,179.67"/>
					<path class="st53" d="M243.95,179.75l0.35-0.2c0.04,0.03,0.09,0.06,0.13,0.09l-0.35,0.2
						C244.04,179.81,244,179.78,243.95,179.75"/>
					<path class="st54" d="M244.08,179.83l0.35-0.2c0.04,0.03,0.08,0.06,0.13,0.09l-0.35,0.2
						C244.17,179.89,244.13,179.86,244.08,179.83"/>
					<path class="st55" d="M244.21,179.92l0.35-0.2c0.04,0.03,0.08,0.06,0.12,0.09l-0.35,0.2
						C244.29,179.99,244.25,179.96,244.21,179.92"/>
					<path class="st56" d="M244.33,180.02l0.35-0.2c0.04,0.03,0.08,0.06,0.12,0.1l-0.35,0.2
						C244.41,180.08,244.37,180.05,244.33,180.02"/>
					<path class="st57" d="M244.45,180.12l0.35-0.2c0.04,0.03,0.08,0.07,0.12,0.1l-0.35,0.2
						C244.53,180.18,244.49,180.15,244.45,180.12"/>
					<path class="st58" d="M244.57,180.22l0.35-0.2c0.04,0.03,0.08,0.07,0.11,0.1l-0.35,0.2
						C244.65,180.29,244.61,180.25,244.57,180.22"/>
					<path class="st59" d="M244.68,180.32l0.35-0.2c0.04,0.03,0.07,0.07,0.11,0.11l-0.35,0.2
						C244.76,180.39,244.72,180.36,244.68,180.32"/>
					<path class="st60" d="M244.79,180.43l0.35-0.2c0.03,0.03,0.07,0.07,0.1,0.11l-0.35,0.2
						C244.86,180.5,244.82,180.46,244.79,180.43"/>
					<path class="st61" d="M244.89,180.53l0.35-0.2c0.03,0.03,0.06,0.07,0.1,0.11l-0.35,0.2
						C244.95,180.6,244.92,180.57,244.89,180.53"/>
					<path class="st62" d="M244.99,180.64l0.35-0.2c0.03,0.04,0.06,0.07,0.09,0.11l-0.35,0.2
						C245.05,180.71,245.02,180.68,244.99,180.64"/>
					<path class="st63" d="M245.08,180.75l0.35-0.2c0.03,0.04,0.06,0.08,0.09,0.12l-0.35,0.2
						C245.14,180.83,245.11,180.79,245.08,180.75"/>
					<path class="st64" d="M245.17,180.87l0.35-0.2c0.03,0.04,0.07,0.09,0.1,0.13l-0.35,0.2
						C245.24,180.95,245.21,180.91,245.17,180.87"/>
					<path class="st65" d="M245.28,181l0.35-0.2c0.05,0.07,0.1,0.13,0.14,0.2l-0.35,0.2C245.37,181.13,245.33,181.07,245.28,181"/>
					<path class="st66" d="M245.42,181.2l0.35-0.2c0.08,0.12,0.16,0.24,0.23,0.37l-0.35,0.2
						C245.58,181.45,245.5,181.32,245.42,181.2"/>
					<path class="st65" d="M245.65,181.57l0.35-0.2c0.01,0.01,0.01,0.02,0.02,0.03l-0.35,0.2
						C245.66,181.59,245.66,181.58,245.65,181.57"/>
				</g>
			</g>
			<g>
				<path class="st69" d="M245.67,181.6c0.5,0.86,0.75,1.71,0.75,2.56c0,0.83-0.25,1.39-0.76,1.68c-0.51,0.29-1.12,0.22-1.84-0.2
					c-0.73-0.42-1.35-1.07-1.86-1.94c-0.5-0.86-0.75-1.7-0.75-2.53c0-0.54,0.12-0.98,0.34-1.32c0.23-0.33,0.55-0.52,0.95-0.55
					c0.4-0.04,0.82,0.08,1.28,0.34C244.54,180.08,245.17,180.73,245.67,181.6z M245.63,184.94c0.19-0.27,0.28-0.63,0.28-1.08
					c0-0.45-0.09-0.91-0.27-1.38c-0.18-0.47-0.44-0.91-0.77-1.33c-0.33-0.4-0.68-0.72-1.05-0.93c-0.37-0.21-0.72-0.3-1.04-0.28
					c-0.33,0.03-0.58,0.18-0.77,0.45c-0.19,0.26-0.28,0.63-0.28,1.08c0,0.67,0.19,1.36,0.6,2.06c0.41,0.7,0.9,1.22,1.47,1.55
					c0.38,0.22,0.73,0.31,1.06,0.29C245.19,185.35,245.44,185.2,245.63,184.94"/>
			</g>
		</g>
		<g class="st35">
			<g>
				<polygon class="st70" points="247.93,183.57 248.28,183.36 248.27,187.66 247.92,187.87 				"/>
			</g>
			<g>
				<polygon class="st71" points="247.42,181.89 247.77,181.69 247.88,181.75 247.53,181.96 				"/>
			</g>
			<g>
				<polygon class="st72" points="247.53,181.96 247.88,181.75 251.16,188 250.81,188.21 				"/>
			</g>
			<g>
				<polygon class="st70" points="251.3,184.13 251.66,183.93 251.64,189.61 251.29,189.81 				"/>
			</g>
			<g>
				<polygon class="st71" points="250.82,183.85 251.17,183.65 251.66,183.93 251.3,184.13 				"/>
			</g>
			<g>
				<polygon class="st69" points="251.3,184.13 251.29,189.81 251.18,189.75 247.93,183.57 247.92,187.87 247.41,187.57 
					247.42,181.89 247.53,181.96 250.81,188.21 250.82,183.85 				"/>
			</g>
		</g>
		<g class="st35">
			<g>
				<polygon class="st70" points="253.96,188.98 254.32,188.78 254.31,189.25 253.96,189.45 				"/>
			</g>
			<g>
				<polygon class="st71" points="252.11,187.92 252.46,187.71 254.32,188.78 253.96,188.98 				"/>
			</g>
			<g>
				<polygon class="st69" points="253.96,188.98 253.96,189.45 252.11,188.38 252.11,187.92 				"/>
			</g>
		</g>
		<g class="st35">
			<g>
				<polygon class="st71" points="254.51,185.99 254.86,185.78 255.37,186.08 255.02,186.28 				"/>
			</g>
			<g>
				<polygon class="st73" points="255.02,186.28 255.37,186.08 256.37,190.74 256.02,190.95 				"/>
			</g>
			<g>
				<polygon class="st74" points="257.49,189.09 257.85,188.88 256.34,192.32 255.99,192.53 				"/>
			</g>
			<g>
				<polygon class="st71" points="257.45,187.68 257.8,187.48 257.9,187.54 257.55,187.74 				"/>
			</g>
			<g>
				<polygon class="st75" points="257.55,187.74 257.9,187.54 259.29,192.43 258.93,192.63 				"/>
			</g>
			<g>
				<polygon class="st76" points="260.48,189.43 260.83,189.23 259.39,194.08 259.04,194.29 				"/>
			</g>
			<g>
				<polygon class="st71" points="259.97,189.14 260.33,188.94 260.83,189.23 260.48,189.43 				"/>
			</g>
			<g>
				<polygon class="st69" points="260.48,189.43 259.04,194.29 258.95,194.24 257.49,189.09 255.99,192.53 255.9,192.47 
					254.51,185.99 255.02,186.28 256.02,190.95 257.45,187.68 257.55,187.74 258.93,192.63 259.97,189.14 				"/>
			</g>
		</g>
		<g class="st35">
			<g>
				<polygon class="st39" points="262.27,194.28 262.62,194.07 261.84,195.5 261.49,195.7 				"/>
			</g>
			<g>
				<polygon class="st71" points="262.49,193.86 262.85,193.65 264.54,194.63 264.18,194.83 				"/>
			</g>
			<g>
				<polygon class="st39" points="263.35,192.29 263.7,192.09 262.85,193.65 262.49,193.86 				"/>
			</g>
			<g>
				<polygon class="st71" points="263.29,191.06 263.65,190.85 263.77,190.92 263.42,191.13 				"/>
			</g>
			<g>
				<polygon class="st77" points="263.42,191.13 263.77,190.92 266.05,197.93 265.7,198.13 				"/>
			</g>
			<g>
				<path class="st69" d="M263.42,191.13l2.28,7.01l-0.53-0.31l-0.77-2.32l-2.13-1.23l-0.78,1.42l-0.55-0.32l2.35-4.33
					L263.42,191.13z M262.49,193.86l1.69,0.98l-0.84-2.54L262.49,193.86"/>
			</g>
		</g>
		<g class="st35">
			<g>
				<polygon class="st70" points="268.17,196.84 268.52,196.64 268.51,199.35 268.16,199.56 				"/>
			</g>
			<g>
				<polygon class="st71" points="266.09,192.67 266.44,192.47 267.01,192.8 266.66,193 				"/>
			</g>
			<g>
				<polygon class="st59" points="266.66,193 267.01,192.8 268.27,195.87 267.92,196.07 				"/>
			</g>
			<g>
				<polygon class="st37" points="269.74,194.78 270.09,194.58 268.52,196.64 268.17,196.84 				"/>
			</g>
			<g>
				<polygon class="st71" points="269.17,194.45 269.52,194.24 270.09,194.58 269.74,194.78 				"/>
			</g>
			<g>
				<polygon class="st69" points="269.74,194.78 268.17,196.84 268.16,199.56 267.67,199.27 267.68,196.56 266.09,192.67 
					266.66,193 267.92,196.07 269.17,194.45 				"/>
			</g>
		</g>
	</g>
</g>
</svg>
