<?xml version="1.0" standalone="no"?>
<!DOCTYPE svg PUBLIC "-//W3C//DTD SVG 20010904//EN"
 "http://www.w3.org/TR/2001/REC-SVG-20010904/DTD/svg10.dtd">
<svg version="1.0" xmlns="http://www.w3.org/2000/svg"
 width="1280.000000pt" height="1051.000000pt" viewBox="0 0 1280.000000 1051.000000"
 preserveAspectRatio="xMidYMid meet">
<metadata>
Created by potrace 1.15, written by Peter Selinger 2001-2017
</metadata>
<g transform="translate(0.000000,1051.000000) scale(0.100000,-0.100000)"
fill="#000000" stroke="none">
<path d="M9610 10255 c-102 -32 -170 -127 -178 -250 -8 -138 68 -367 190 -571
77 -129 122 -229 114 -250 -20 -51 -259 25 -610 195 l-184 89 10 42 c9 34 8
53 -6 95 -22 72 -89 173 -123 186 -16 6 -36 17 -45 26 -10 9 -30 15 -45 15
-17 0 -42 12 -62 30 -22 20 -40 28 -54 24 -11 -3 -33 2 -48 10 -25 13 -36 12
-96 -2 -95 -24 -155 -56 -186 -101 -29 -42 -67 -143 -67 -178 0 -16 -21 -36
-82 -77 -151 -100 -338 -259 -363 -309 -29 -55 -18 -104 36 -167 20 -22 29
-44 29 -66 0 -76 30 -190 65 -247 l34 -56 -20 -54 c-17 -44 -20 -69 -16 -134
4 -72 9 -89 54 -176 65 -124 103 -189 111 -189 4 0 18 -9 31 -19 28 -22 32
-14 -86 -193 l-84 -128 30 -39 31 -39 -45 -119 c-51 -132 -62 -150 -57 -95 4
45 -14 65 -58 64 -28 -1 -30 2 -30 39 0 38 -3 41 -62 79 -67 42 -102 49 -134
25 -10 -8 -35 -15 -55 -15 -25 0 -43 -8 -60 -26 -13 -14 -36 -32 -51 -40 -16
-8 -28 -23 -28 -34 0 -11 -13 -33 -30 -50 -35 -36 -36 -44 -11 -108 31 -78 36
-134 16 -186 -9 -24 -14 -49 -11 -54 9 -15 -17 -242 -28 -242 -5 0 -34 14 -65
31 -194 110 -349 109 -504 -1 -102 -73 -146 -224 -113 -385 17 -84 37 -123
167 -317 41 -62 95 -148 118 -192 37 -68 41 -80 28 -93 -16 -16 -3 -63 71
-251 l41 -102 -62 -29 c-34 -15 -129 -61 -212 -102 -127 -62 -160 -84 -216
-139 -37 -36 -104 -92 -149 -125 -46 -33 -135 -115 -199 -181 -140 -147 -263
-240 -446 -339 -38 -21 -117 -64 -175 -95 -214 -117 -375 -193 -413 -196 -52
-3 -125 -39 -172 -86 -22 -22 -110 -85 -195 -140 -211 -137 -327 -227 -469
-362 -66 -63 -135 -123 -153 -132 -27 -14 -48 -15 -137 -9 -58 5 -155 8 -216
8 -98 1 -116 -2 -168 -26 -44 -20 -64 -24 -77 -17 -27 15 -60 73 -60 108 0 17
-4 34 -10 37 -32 20 12 334 55 386 29 36 44 207 19 225 -10 8 -13 20 -8 40 10
41 30 61 72 69 34 7 353 23 360 19 2 -2 -8 -44 -23 -94 -24 -87 -25 -93 -10
-117 12 -18 14 -28 6 -36 -16 -16 -14 -62 4 -77 24 -20 89 -24 126 -7 53 23
205 48 304 50 75 2 95 6 121 24 18 13 65 28 120 38 129 23 234 56 275 85 102
72 171 137 214 199 56 82 55 105 -6 163 -88 84 -169 104 -444 113 -419 12
-577 29 -750 80 -65 19 -119 35 -121 35 -2 0 0 15 3 33 5 31 2 35 -28 49 -19
9 -79 18 -134 22 -57 4 -127 15 -163 27 -60 20 -62 22 -62 55 0 20 -8 42 -20
54 -19 19 -20 19 -75 0 -43 -15 -77 -38 -145 -102 -60 -56 -89 -90 -90 -105 0
-18 -6 -23 -27 -23 -25 0 -25 1 -10 18 10 10 17 23 17 28 0 5 11 25 24 44 28
42 43 110 52 242 5 85 4 102 -14 140 -25 53 -34 111 -16 104 21 -8 38 49 25
86 -10 28 -9 35 6 45 11 9 12 13 4 13 -11 0 -11 3 -1 15 7 8 19 15 26 15 19 0
18 5 -9 32 -18 18 -26 43 -36 113 -12 87 -42 162 -74 182 -7 4 -25 25 -40 46
-36 48 -58 59 -224 108 -152 45 -155 45 -371 15 -145 -20 -204 -63 -310 -226
-83 -127 -90 -148 -94 -277 -3 -101 -2 -110 13 -97 22 20 29 18 29 -8 1 -22 2
-22 14 -5 12 16 15 14 29 -20 8 -21 18 -64 21 -95 4 -32 12 -61 18 -64 7 -5 8
-2 3 6 -6 9 -4 11 4 5 14 -8 11 -64 -4 -99 -6 -14 -5 -17 3 -12 8 5 10 2 6 -8
-9 -25 5 -39 24 -24 13 10 13 7 -2 -16 -13 -21 -15 -31 -7 -34 6 -2 9 -8 6
-13 -4 -5 1 -6 10 -3 14 6 15 0 9 -46 -5 -39 -4 -51 5 -46 10 6 15 -6 12 -26
0 -5 4 -8 10 -8 8 0 10 -14 6 -40 -3 -23 -1 -40 5 -40 5 0 6 -4 3 -10 -4 -6 1
-7 11 -3 14 5 15 1 9 -27 -5 -21 -4 -30 3 -26 6 4 9 -23 8 -74 0 -44 2 -80 7
-80 4 0 7 16 7 35 0 20 5 35 11 35 21 0 2 -110 -31 -177 -29 -59 -33 -63 -66
-63 -19 0 -47 -6 -62 -14 -15 -7 -58 -19 -96 -25 -87 -15 -111 -28 -165 -86
-39 -43 -42 -50 -36 -83 3 -20 17 -57 31 -81 33 -59 34 -160 2 -211 -22 -37
-47 -133 -48 -187 0 -17 17 -65 40 -108 l39 -78 -18 -91 c-10 -50 -37 -156
-60 -236 -27 -92 -52 -215 -70 -335 -22 -147 -35 -207 -60 -265 -43 -102 -87
-170 -110 -170 -14 0 -40 -37 -96 -138 -159 -280 -305 -519 -368 -603 -36 -47
-65 -95 -64 -105 2 -15 -9 -21 -57 -30 -146 -30 -263 -100 -307 -187 -10 -20
-28 -55 -39 -77 -26 -51 -25 -76 4 -105 14 -13 26 -32 28 -41 2 -9 12 -23 24
-30 17 -12 25 -11 59 6 48 25 45 25 45 -3 0 -42 49 -63 79 -34 11 10 14 10 18
0 10 -28 58 -13 100 30 179 182 257 257 267 257 6 0 30 28 53 63 23 34 90 114
150 177 285 301 394 447 516 687 50 98 60 126 51 140 -8 13 -3 43 23 129 30
102 163 428 182 447 4 4 35 -35 68 -85 151 -229 435 -484 701 -629 42 -23 91
-53 109 -65 17 -13 34 -24 37 -24 3 0 29 -15 58 -33 29 -19 98 -52 153 -75 55
-22 140 -59 188 -81 l88 -41 -26 -44 c-69 -117 -108 -287 -119 -506 -3 -63
-12 -146 -21 -185 -20 -87 -9 -180 25 -205 16 -12 60 -294 65 -415 14 -355 27
-465 67 -557 26 -61 90 -118 164 -146 118 -46 215 -17 305 91 71 85 89 127 89
212 0 64 3 74 35 119 19 26 96 106 172 178 76 71 152 144 168 162 17 17 66 60
111 93 45 34 105 88 135 121 57 62 78 72 172 78 27 1 56 9 65 16 10 8 30 19
45 26 15 6 30 18 33 25 3 8 16 12 33 9 61 -9 92 69 56 139 -16 30 -68 69 -93
69 -8 0 -41 17 -74 37 -79 49 -126 49 -235 -1 -108 -48 -141 -47 -262 8 -53
24 -113 46 -134 50 -20 4 -37 12 -37 17 0 6 21 85 47 176 33 120 58 186 90
241 82 145 115 265 116 422 0 91 -4 115 -28 180 -15 41 -28 93 -29 115 -2 22
-5 47 -8 55 -4 8 -9 35 -11 59 -6 51 1 60 145 179 48 40 106 95 129 122 24 28
59 60 78 72 50 29 201 178 273 268 94 116 135 158 160 162 24 3 131 134 122
149 -2 4 65 53 148 110 381 255 627 447 710 553 108 138 165 182 402 307 87
46 187 108 222 136 35 29 68 53 74 53 20 0 75 32 106 62 l31 29 22 -93 c12
-51 29 -133 38 -183 9 -49 19 -92 23 -95 13 -10 19 -39 30 -142 13 -120 61
-333 96 -427 14 -36 47 -111 75 -167 34 -70 57 -135 75 -215 26 -113 26 -116
15 -289 -14 -221 -14 -220 6 -242 27 -31 68 -23 118 23 46 42 95 125 95 159 0
11 9 24 19 29 10 6 24 25 30 42 6 17 22 44 36 61 14 16 25 37 25 45 0 9 13 43
30 77 33 67 50 142 50 217 0 48 15 74 26 45 3 -9 13 -16 21 -16 8 0 21 -17 29
-38 9 -20 49 -109 89 -197 40 -88 91 -214 114 -280 23 -66 57 -157 76 -202 20
-45 42 -114 50 -154 8 -39 27 -99 41 -133 47 -112 72 -190 118 -356 65 -237
73 -273 58 -278 -7 -2 -12 -13 -12 -25 1 -31 66 -282 200 -762 32 -115 64
-237 71 -270 6 -33 18 -70 25 -82 8 -12 19 -52 25 -90 9 -57 8 -77 -5 -125
-25 -84 -130 -239 -246 -362 -80 -84 -124 -112 -195 -121 -56 -7 -63 -11 -107
-59 -76 -81 -63 -129 49 -183 59 -28 82 -34 125 -32 29 1 69 -1 89 -5 82 -17
146 21 263 156 88 101 128 123 256 143 114 18 137 24 192 51 74 37 116 109
105 180 -3 18 -38 133 -77 256 -55 170 -73 240 -75 293 -2 39 -8 245 -14 458
-9 351 -12 392 -29 430 -13 28 -22 73 -25 137 -7 117 -34 220 -96 370 -86 206
-129 345 -135 445 -4 50 -11 158 -17 240 -8 127 -44 437 -79 684 -7 48 -6 69
4 82 15 22 -2 125 -22 138 -7 4 -19 48 -26 97 -23 149 -38 275 -34 278 1 1 34
9 72 19 104 26 153 54 237 137 107 106 160 206 213 404 60 220 72 355 56 604
-12 180 -11 196 10 338 12 82 24 152 25 155 2 3 26 104 53 225 51 226 62 286
87 486 25 208 56 356 75 361 13 3 20 26 30 103 7 55 20 120 29 146 l16 47 85
-65 c65 -49 91 -63 110 -60 18 3 49 -12 115 -57 50 -33 104 -73 121 -87 61
-53 118 -73 194 -68 57 3 77 9 112 34 62 43 80 83 75 170 -8 141 -105 257
-344 416 -87 57 -180 117 -208 133 -27 15 -51 29 -53 30 -1 1 3 14 9 29 15 32
-2 119 -30 153 -27 32 -186 107 -260 123 -50 10 -66 19 -83 44 -12 17 -28 37
-36 44 -25 19 -91 14 -167 -14 -77 -28 -125 -36 -144 -24 -7 4 -34 67 -61 141
-26 74 -53 146 -59 161 -15 39 -67 68 -121 68 l-45 0 -1 158 c-1 103 -7 175
-17 210 -8 29 -11 51 -6 50 4 -2 96 -75 204 -163 108 -88 226 -181 263 -208
88 -62 606 -322 747 -374 61 -23 171 -64 245 -93 240 -92 603 -192 813 -225
59 -9 113 -14 119 -12 7 3 2 6 -12 7 l-25 2 25 8 25 8 -27 1 c-79 3 -492 88
-543 112 -46 21 -168 58 -176 53 -5 -3 -9 -1 -9 4 0 5 -28 17 -61 27 -108 33
-45 28 114 -9 280 -65 566 -106 745 -106 127 0 93 10 -49 15 -124 4 -421 43
-534 70 l-60 15 60 -5 c33 -3 121 -10 195 -15 323 -26 866 -8 966 31 16 6 58
17 94 25 l65 14 -57 -5 c-32 -3 -81 -11 -111 -19 -82 -21 -261 -38 -377 -34
l-105 3 70 8 c39 4 78 12 87 17 16 9 158 28 368 50 120 12 319 54 334 71 8 9
-11 10 -74 6 l-85 -6 110 30 c60 16 113 33 118 38 5 5 -33 -1 -84 -15 -144
-37 -313 -64 -392 -62 l-72 1 55 7 c36 4 -8 8 -130 9 -148 2 -297 13 -270 20
3 0 52 10 109 21 58 12 107 23 109 25 14 13 -32 14 -88 1 -98 -23 -83 -11 30
24 56 18 99 34 97 37 -6 5 -183 -41 -255 -68 -59 -21 -97 -25 -42 -4 46 18 27
18 -30 1 -33 -10 -40 -15 -25 -18 71 -17 -173 6 -270 26 -131 25 -131 23 -12
52 15 3 26 9 23 12 -3 3 -47 -5 -98 -17 -87 -21 -98 -22 -168 -9 l-75 14 95
13 c115 15 343 64 335 72 -3 4 6 4 21 1 17 -3 25 -1 20 6 -4 6 66 27 192 57
108 25 224 53 257 61 111 28 410 94 430 95 11 1 -7 5 -39 9 -39 5 -81 3 -124
-6 -36 -8 -68 -12 -70 -9 -2 2 31 15 74 29 65 20 71 24 34 19 -25 -3 -81 -14
-124 -25 -44 -11 -88 -17 -98 -15 -11 3 -15 1 -12 -5 4 -7 -5 -8 -27 -3 -27 5
-31 4 -19 -5 13 -10 12 -11 -3 -6 -10 3 -74 -8 -144 -24 -78 -19 -130 -27
-137 -21 -6 5 -20 11 -31 13 -11 2 30 16 90 31 61 16 128 33 150 39 l40 11
-45 12 -45 12 40 8 c22 4 47 12 55 17 29 18 -94 -2 -200 -32 -136 -39 -499
-159 -525 -173 -11 -6 -78 -11 -150 -12 -92 -1 -144 -7 -178 -18 -26 -10 -60
-17 -75 -16 -22 1 -19 3 13 10 22 5 55 16 73 25 20 9 69 17 128 18 130 5 131
16 1 16 -58 0 -108 -4 -111 -8 -8 -13 -104 -31 -183 -35 -40 -1 -73 -2 -73 -1
0 1 24 10 53 19 48 16 187 70 297 115 25 10 98 26 163 35 65 9 137 25 160 36
23 11 31 18 17 14 -66 -16 -160 -34 -205 -40 -89 -11 -25 13 95 36 62 12 107
25 100 29 -6 4 25 17 69 30 45 12 81 26 81 30 0 4 41 19 91 34 50 15 89 30 86
33 -3 3 -47 -7 -99 -22 -167 -49 -271 -71 -247 -52 2 2 45 23 94 46 117 56
273 108 355 119 54 7 61 10 38 16 -18 5 -61 -1 -130 -18 -126 -32 -222 -68
-398 -151 -84 -39 -154 -65 -185 -69 l-50 -6 45 40 c25 22 64 53 87 69 23 15
40 31 37 33 -7 8 80 79 162 132 38 25 66 46 61 46 -23 0 -214 -127 -332 -222
l-137 -109 -132 3 -131 3 -3 32 c-2 24 1 33 17 38 12 4 18 12 14 20 -3 9 4 18
18 24 21 8 21 10 5 10 -15 1 -17 4 -9 12 7 7 68 14 145 17 l133 6 -80 8 c-44
5 -97 10 -117 11 -21 2 -40 5 -42 8 -3 3 19 24 50 48 30 23 52 46 49 50 -8 13
41 52 57 46 9 -4 19 -1 23 4 3 6 9 10 13 8 4 -2 21 12 37 31 31 37 20 36 -25
-2 l-25 -20 26 27 c15 17 39 30 60 32 18 3 35 9 37 15 2 6 9 7 15 3 7 -3 9 -3
5 2 -10 10 140 110 215 143 32 13 56 27 54 29 -10 9 -140 -56 -212 -107 -107
-76 -110 -78 -90 -47 33 50 220 165 340 208 28 10 44 18 38 18 -21 2 -145 -48
-208 -84 -33 -18 -101 -62 -151 -98 -84 -59 -95 -64 -159 -70 -102 -10 -163
-43 -209 -115 -20 -31 -43 -78 -52 -104 -14 -43 -20 -49 -80 -77 -36 -17 -79
-40 -95 -52 -17 -12 -32 -19 -35 -16 -3 3 -1 22 5 43 6 22 13 73 17 114 4 50
12 79 22 88 9 6 11 12 5 12 -6 0 -14 12 -17 28 -11 53 -21 249 -21 402 0 151
1 158 28 210 20 40 22 48 7 30 -11 -14 -28 -50 -38 -80 -15 -48 -17 -90 -14
-314 l3 -259 -40 -34 c-40 -34 -51 -58 -81 -178 -14 -55 -21 -64 -50 -58 -22
4 -30 17 -58 101 -44 133 -44 134 -33 183 12 51 37 75 94 89 23 6 56 15 72 20
27 8 26 8 -10 4 -22 -3 -51 -7 -65 -10 -24 -5 -24 -5 -6 15 28 31 5 25 -50
-11 -65 -45 -89 -94 -87 -178 1 -37 10 -92 22 -125 11 -32 19 -61 16 -63 -4
-5 -143 15 -178 25 -17 5 -17 7 6 31 14 15 39 53 56 86 37 69 39 120 13 296
-23 159 -16 247 24 297 17 21 53 51 80 66 45 26 34 32 -22 10 -11 -4 -15 -3
-11 5 4 6 23 16 43 22 19 7 33 14 31 17 -3 2 -25 -4 -49 -15 -47 -21 -92 -62
-113 -103 -19 -36 -35 -142 -30 -193 31 -280 28 -353 -16 -425 l-20 -33 -34
72 c-19 39 -39 69 -44 66 -5 -3 -8 2 -7 12 0 9 -4 16 -11 15 -8 -2 -10 4 -6
14 5 12 3 14 -7 8 -9 -5 -11 -4 -6 4 4 6 -1 23 -12 39 -11 15 -34 55 -51 90
-17 34 -34 62 -36 62 -3 0 1 -13 10 -30 9 -16 13 -30 11 -30 -11 0 -36 61 -30
72 5 7 3 8 -6 3 -10 -6 -12 -4 -7 8 3 10 2 17 -4 17 -6 0 -7 5 -4 10 3 6 1 10
-5 10 -6 0 -8 4 -5 10 3 5 -1 23 -10 39 -41 80 -58 271 -30 339 22 51 100 130
156 156 l47 22 -30 13 c-33 15 -30 21 15 38 l32 11 -30 1 c-16 0 -50 -7 -75
-14z m-31 -37 c-2 -2 -22 -19 -43 -38 -28 -26 -36 -29 -27 -13 12 23 49 53 65
53 5 0 7 -1 5 -2z m1153 -808 c-24 -22 -39 -29 -56 -24 -14 3 -27 0 -35 -10
-10 -12 -9 -14 11 -8 21 5 22 4 9 -11 -7 -9 -18 -17 -24 -17 -5 0 -25 -16 -44
-36 -18 -20 -40 -37 -47 -38 -8 -1 -24 -13 -36 -26 -21 -25 -21 -25 1 15 49
91 95 132 175 154 21 6 46 15 54 21 28 19 25 9 -8 -20z m-764 -92 c1 -24 11
-70 22 -103 30 -84 35 -120 9 -65 -44 96 -63 183 -42 203 10 11 10 10 11 -35z
m278 -75 c-4 -38 -14 -92 -22 -120 -13 -45 -19 -53 -39 -53 -26 0 -41 15 -25
25 5 3 10 16 9 28 0 21 -1 21 -9 2 -15 -35 -11 5 7 69 13 46 18 55 24 40 7
-17 8 -16 8 5 1 21 35 71 49 71 3 0 2 -30 -2 -67z m-653 -198 c98 -53 129 -60
42 -10 -68 39 -69 44 -3 15 65 -28 202 -59 280 -62 38 -2 68 -6 68 -9 0 -22
-182 -19 -240 4 -14 5 -40 11 -57 12 -40 4 -210 95 -178 95 3 0 43 -20 88 -45z
m883 9 c-4 -9 -9 -15 -11 -12 -3 3 -3 13 1 22 4 9 9 15 11 12 3 -3 3 -13 -1
-22z m-91 6 c-3 -5 -14 -10 -23 -10 -15 0 -15 2 -2 10 20 13 33 13 25 0z
m-598 -6 c-3 -3 -12 -4 -19 -1 -8 3 -5 6 6 6 11 1 17 -2 13 -5z m623 -4 c0 -5
-5 -10 -11 -10 -5 0 -7 5 -4 10 3 6 8 10 11 10 2 0 4 -4 4 -10z m670 0 c-8 -5
-22 -9 -30 -9 -10 0 -8 3 5 9 27 12 43 12 25 0z m-1247 -7 c-7 -2 -19 -2 -25
0 -7 3 -2 5 12 5 14 0 19 -2 13 -5z m311 -57 c3 2 4 1 1 -3 -6 -8 -95 -15 -95
-7 0 11 47 21 66 13 12 -4 25 -6 28 -3z m229 -13 c-7 -2 -19 -2 -25 0 -7 3 -2
5 12 5 14 0 19 -2 13 -5z m170 0 c-7 -2 -19 -2 -25 0 -7 3 -2 5 12 5 14 0 19
-2 13 -5z m132 -3 c-3 -5 -12 -10 -18 -10 -7 0 -6 4 3 10 19 12 23 12 15 0z
m115 0 c-20 -13 -53 -13 -45 0 3 6 18 10 33 10 21 0 24 -2 12 -10z m-575 -10
c-28 -12 -37 -12 -30 0 3 6 16 10 28 9 21 0 21 -1 2 -9z m128 -5 l37 -6 -16
-32 c-33 -65 -52 -77 -119 -77 -58 0 -162 14 -195 26 -18 7 -20 6 125 62 55
21 107 37 115 36 8 -2 32 -6 53 -9z m265 -5 c14 0 21 -4 16 -11 -8 -13 -124
-2 -139 13 -7 7 7 9 45 4 30 -3 65 -6 78 -6z m132 -4 c0 -2 -9 -6 -20 -9 -11
-3 -18 -1 -14 4 5 9 34 13 34 5z m-175 -25 c28 -6 25 -8 -44 -34 -40 -15 -75
-26 -76 -25 -1 2 4 18 11 36 12 27 19 32 47 31 17 -1 46 -4 62 -8z m820 -61
c-11 -5 -27 -9 -35 -9 -9 0 -8 4 5 9 11 5 27 9 35 9 9 0 8 -4 -5 -9z m-1210
-30 c88 -16 94 -18 49 -19 -49 -1 -189 30 -202 44 -4 4 7 4 23 0 17 -4 75 -15
130 -25z m1220 5 c-22 -8 -49 -13 -60 -13 -11 0 -2 6 20 13 22 8 49 13 60 13
11 0 2 -6 -20 -13z m-1865 -21 c0 -2 -9 0 -20 6 -11 6 -20 13 -20 16 0 2 9 0
20 -6 11 -6 20 -13 20 -16z m70 -40 c0 -2 -9 0 -20 6 -11 6 -20 13 -20 16 0 2
9 0 20 -6 11 -6 20 -13 20 -16z m1260 -3 c-8 -5 -42 -13 -75 -19 -33 -6 -71
-14 -85 -18 -22 -5 -22 -4 5 11 25 14 100 30 155 33 13 1 13 0 0 -7z m-135
-207 c32 -10 35 -13 15 -13 -40 -1 -143 18 -152 27 -13 13 89 3 137 -14z m253
-31 c95 -15 103 -18 72 -25 -19 -4 -55 -8 -80 -9 -61 -1 -215 32 -198 43 20
12 90 9 206 -9z m150 0 c-10 -2 -26 -2 -35 0 -10 3 -2 5 17 5 19 0 27 -2 18
-5z m625 -30 c-7 -2 -21 -2 -30 0 -10 3 -4 5 12 5 17 0 24 -2 18 -5z m-427
-25 l59 -13 -55 -6 c-66 -8 -220 1 -220 12 0 8 42 14 116 17 22 1 67 -4 100
-10z m-859 -4 c-3 -3 -12 -4 -19 -1 -8 3 -5 6 6 6 11 1 17 -2 13 -5z m83 -19
c30 -7 44 -13 30 -13 -24 0 -115 25 -95 27 6 0 35 -6 65 -14z m1118 5 c-26 -5
-60 -5 -75 0 -21 6 -8 8 47 8 71 0 72 -1 28 -8z m-113 -10 c19 -5 -10 -8 -80
-8 -70 0 -99 3 -80 8 17 4 53 8 80 8 28 0 64 -4 80 -8z m-888 -6 c-3 -3 -12
-4 -19 -1 -8 3 -5 6 6 6 11 1 17 -2 13 -5z m230 0 c-3 -3 -12 -4 -19 -1 -8 3
-5 6 6 6 11 1 17 -2 13 -5z m283 -34 c23 -7 22 -8 -10 -9 -19 0 -42 4 -50 9
-12 8 -10 10 10 9 14 -1 36 -5 50 -9z m-493 -26 c-3 -3 -12 -4 -19 -1 -8 3 -5
6 6 6 11 1 17 -2 13 -5z m251 -1 c-10 -2 -26 -2 -35 0 -10 3 -2 5 17 5 19 0
27 -2 18 -5z m-205 -10 c-7 -2 -19 -2 -25 0 -7 3 -2 5 12 5 14 0 19 -2 13 -5z
m-2928 -1065 c-14 -24 -38 -64 -53 -90 -30 -52 -43 -60 -41 -25 3 52 17 77 64
116 27 23 51 41 53 41 2 0 -9 -19 -23 -42z m267 -537 c44 -57 96 -94 175 -126
l58 -24 13 -58 c11 -55 9 -221 -4 -266 -5 -14 -18 -7 -77 44 -40 34 -73 67
-75 73 -16 54 -121 146 -167 146 -26 0 -115 55 -115 72 0 8 58 106 107 180 24
36 29 38 38 23 5 -9 27 -38 47 -64z m-263 -1428 c-9 -56 -14 -161 -13 -288 0
-167 4 -217 22 -302 12 -56 25 -110 28 -120 7 -17 6 -17 -12 0 -19 18 -67 214
-54 222 4 2 3 26 -1 52 -10 60 -36 327 -44 453 -3 52 -8 113 -11 135 l-6 40
53 -52 52 -52 -14 -88z"/>
<path d="M10555 9300 c-27 -30 -12 -34 15 -5 13 14 19 25 13 25 -5 0 -18 -9
-28 -20z"/>
<path d="M10181 9184 c0 -11 3 -14 6 -6 3 7 2 16 -1 19 -3 4 -6 -2 -5 -13z"/>
<path d="M9673 10233 c9 -2 23 -2 30 0 6 3 -1 5 -18 5 -16 0 -22 -2 -12 -5z"/>
<path d="M11440 9679 c-22 -4 0 -7 60 -7 52 0 91 1 85 3 -22 8 -112 10 -145 4z"/>
<path d="M10140 9510 c-20 -6 -21 -8 -5 -8 11 0 29 3 40 8 25 11 -1 11 -35 0z"/>
<path d="M11448 9403 c6 -2 18 -2 25 0 6 3 1 5 -13 5 -14 0 -19 -2 -12 -5z"/>
<path d="M11390 9390 c-18 -12 -2 -12 25 0 13 6 15 9 5 9 -8 0 -22 -4 -30 -9z"/>
<path d="M10319 9363 c19 -4 21 -7 10 -15 -11 -8 -10 -9 4 -4 10 3 26 6 35 7
23 1 -27 17 -53 17 -15 -1 -13 -2 4 -5z"/>
<path d="M10694 9329 c-19 -22 -19 -22 3 -10 24 12 39 31 25 31 -5 0 -17 -10
-28 -21z"/>
<path d="M11698 9213 c7 -3 16 -2 19 1 4 3 -2 6 -13 5 -11 0 -14 -3 -6 -6z"/>
<path d="M11658 9203 c7 -3 16 -2 19 1 4 3 -2 6 -13 5 -11 0 -14 -3 -6 -6z"/>
<path d="M11505 9185 c-22 -8 -33 -14 -25 -15 10 0 6 -5 -9 -14 -18 -10 -21
-15 -10 -20 8 -3 4 -4 -9 -2 -12 2 -20 0 -17 -4 3 -5 -14 -14 -37 -20 -125
-34 -241 -69 -227 -69 23 -1 270 69 299 85 15 8 19 13 10 14 -8 0 4 12 28 26
23 14 42 27 42 30 0 2 -1 4 -2 3 -2 -1 -21 -7 -43 -14z"/>
<path d="M11599 9183 c-12 -16 -12 -17 1 -7 8 6 22 14 30 17 13 5 12 6 -1 6
-9 1 -23 -7 -30 -16z"/>
<path d="M11465 9103 c-65 -35 -170 -73 -248 -89 -45 -10 -91 -24 -102 -32
-19 -13 -19 -13 5 -6 14 5 43 9 65 9 45 1 107 22 213 72 40 18 77 31 82 28 5
-3 22 1 37 10 26 15 23 15 -24 -1 -15 -5 -15 -3 1 10 25 20 10 20 -29 -1z"/>
<path d="M11425 9054 c-26 -12 -27 -14 -5 -9 14 2 31 5 38 5 6 0 12 5 12 10 0
13 -9 12 -45 -6z"/>
<path d="M10998 8953 c7 -3 16 -2 19 1 4 3 -2 6 -13 5 -11 0 -14 -3 -6 -6z"/>
<path d="M11628 8923 c7 -3 16 -2 19 1 4 3 -2 6 -13 5 -11 0 -14 -3 -6 -6z"/>
<path d="M11525 8905 c-27 -7 -41 -13 -30 -14 11 0 43 6 70 13 63 18 28 19
-40 1z"/>
<path d="M10840 8870 c-19 -6 -13 -8 30 -9 30 -1 73 -3 95 -6 38 -5 38 -4 -10
10 -55 16 -77 17 -115 5z"/>
<path d="M11928 8873 c6 -2 18 -2 25 0 6 3 1 5 -13 5 -14 0 -19 -2 -12 -5z"/>
<path d="M11598 8733 c6 -2 18 -2 25 0 6 3 1 5 -13 5 -14 0 -19 -2 -12 -5z"/>
<path d="M11455 8720 c-19 -5 -6 -6 35 -3 36 3 67 7 69 9 8 7 -73 2 -104 -6z"/>
<path d="M11388 8703 c6 -2 18 -2 25 0 6 3 1 5 -13 5 -14 0 -19 -2 -12 -5z"/>
<path d="M11303 8693 c9 -2 25 -2 35 0 9 3 1 5 -18 5 -19 0 -27 -2 -17 -5z"/>
<path d="M11738 8603 c7 -3 16 -2 19 1 4 3 -2 6 -13 5 -11 0 -14 -3 -6 -6z"/>
<path d="M11368 8173 c12 -2 30 -2 40 0 9 3 -1 5 -23 4 -22 0 -30 -2 -17 -4z"/>
<path d="M11373 8153 c9 -2 23 -2 30 0 6 3 -1 5 -18 5 -16 0 -22 -2 -12 -5z"/>
<path d="M11518 8143 c23 -2 59 -2 80 0 20 2 1 4 -43 4 -44 0 -61 -2 -37 -4z"/>
<path d="M11663 8143 c15 -2 39 -2 55 0 15 2 2 4 -28 4 -30 0 -43 -2 -27 -4z"/>
</g>
</svg>
